<svg width="400" height="400" viewBox="0 0 400 400" fill="none" xmlns="http://www.w3.org/2000/svg">
<path d="M373.326 284.521C381.458 218.27 342.207 130.333 301.437 94.0092C227.921 28.4087 166.874 41.0951 119.382 64.6245C71.8894 88.1539 65.0583 166.549 32.3123 202.006C-0.542159 237.463 -19.1922 285.172 30.5774 332.773C80.347 380.266 120.466 356.194 172.513 353.158C224.559 350.122 293.521 373.868 330.821 353.266C356.845 338.737 369.748 313.798 373.326 284.521Z" fill="#136AFB"/>
<path opacity="0.9" d="M373.326 284.521C381.458 218.27 342.207 130.333 301.437 94.0092C227.921 28.4087 166.874 41.0951 119.382 64.6245C71.8894 88.1539 65.0583 166.549 32.3123 202.006C-0.542159 237.463 -19.1922 285.172 30.5774 332.773C80.347 380.266 120.466 356.194 172.513 353.158C224.559 350.122 293.521 373.868 330.821 353.266C356.845 338.737 369.748 313.798 373.326 284.521Z" fill="white"/>
<path d="M167.417 282.136V38.2759" stroke="#263238" stroke-miterlimit="10" stroke-linecap="round" stroke-linejoin="round"/>
<path d="M8.8913 284.63H162.754L396.53 359.989" stroke="#160647" stroke-miterlimit="10" stroke-linecap="round" stroke-linejoin="round"/>
<path d="M79.0458 278.883H68.3112V103.117H90.2141L80.7807 68.9617H52.3719L42.9385 103.117H64.8414V278.883H54.2152C48.5768 278.883 43.9143 283.437 43.8059 289.076C43.8059 289.076 43.8059 289.076 43.8059 289.184V289.292C44.1312 291.786 54.2152 293.738 66.5763 293.738C78.9374 293.738 89.0214 291.786 89.3467 289.292H89.4551C89.4551 283.546 84.7926 278.883 79.0458 278.883Z" fill="#263238"/>
<path d="M220.548 26.1317V233.125L376.362 258.715V0.542114L220.548 26.1317ZM372.35 85.4432L293.196 89.8888V17.9994L372.35 5.42149V85.4432ZM293.088 97.479L372.242 93.9008V166.224L293.088 162.537V97.479ZM286.69 162.104L223.15 159.176V100.623L286.69 97.6958V162.104ZM286.69 19.0837V90.3226L223.15 93.9008V29.1678L286.69 19.0837ZM223.15 166.007L286.69 169.694V240.282L223.15 230.198V166.007ZM293.088 241.258V170.019L372.242 174.573V253.836L293.088 241.258Z" fill="#263238" stroke="#263238" stroke-miterlimit="10" stroke-linecap="round" stroke-linejoin="round"/>
<path d="M166.874 385.145C235.682 385.145 291.461 367.766 291.461 346.327C291.461 324.888 235.682 307.509 166.874 307.509C98.0672 307.509 42.2879 324.888 42.2879 346.327C42.2879 367.766 98.0672 385.145 166.874 385.145Z" fill="#136AFB"/>
<path opacity="0.6" d="M166.874 385.145C235.682 385.145 291.461 367.766 291.461 346.327C291.461 324.888 235.682 307.509 166.874 307.509C98.0672 307.509 42.2879 324.888 42.2879 346.327C42.2879 367.766 98.0672 385.145 166.874 385.145Z" fill="white"/>
<path d="M156.248 175.115C156.248 175.115 128.056 171.754 109.406 186.283C90.8647 200.813 74.817 261.317 75.2507 290.377C75.576 319.328 86.4191 333.857 113.527 345.785C140.634 357.712 191.163 353.266 219.463 344.267C247.764 335.267 256.98 304.147 256.655 287.449C256.33 270.751 237.68 251.45 231.391 247.33C225.102 243.21 207.211 234.643 198.319 221.307C189.32 207.861 176.416 178.802 156.248 175.115Z" fill="#136AFB"/>
<path opacity="0.1" d="M224.668 342.207C214.042 340.797 201.355 337.869 191.705 332.014C171.429 319.761 166.441 296.557 159.176 287.883C151.911 279.208 138.899 279.967 133.153 270.534C127.406 261.101 136.731 191.705 120.141 187.368C115.695 186.175 112.334 185.85 109.732 185.85C109.623 185.958 109.515 185.958 109.406 186.067C90.8647 200.596 74.817 261.101 75.2507 290.16C75.576 319.111 86.4191 333.641 113.527 345.568C140.634 357.495 191.163 353.05 219.463 344.05C221.307 343.616 223.041 342.966 224.668 342.207Z" fill="#160647"/>
<path d="M156.248 175.115C156.248 175.115 128.056 171.754 109.406 186.283C90.8647 200.813 74.817 261.317 75.2507 290.377C75.576 319.328 86.4191 333.857 113.527 345.785C140.634 357.712 191.163 353.266 219.463 344.267C247.764 335.267 256.98 304.147 256.655 287.449C256.33 270.751 237.68 251.45 231.391 247.33C225.102 243.21 207.211 234.643 198.319 221.307C189.32 207.861 176.416 178.802 156.248 175.115Z" stroke="#263238" stroke-miterlimit="10" stroke-linecap="round" stroke-linejoin="round"/>
<path d="M145.188 188.235C145.188 188.235 126.755 191.705 123.502 194.958C120.249 198.211 106.696 249.173 106.696 249.173C106.696 249.173 112.659 247.547 118.081 249.715C123.502 251.884 124.044 257.522 124.587 260.342C125.129 263.161 125.454 270.1 125.454 270.1C125.454 270.1 180.211 265.221 191.922 262.51C203.632 259.799 221.307 258.607 221.307 258.607C221.307 258.607 191.38 191.055 186.717 188.561C182.055 186.067 162.863 185.85 160.152 186.392C157.441 186.934 145.188 188.235 145.188 188.235Z" fill="#263238" stroke="#263238" stroke-miterlimit="10" stroke-linecap="round" stroke-linejoin="round"/>
<path d="M126.972 250.8L131.635 213.174" stroke="white" stroke-miterlimit="10" stroke-linecap="round" stroke-linejoin="round"/>
<path d="M130.55 223.15L136.731 215.018" stroke="white" stroke-miterlimit="10" stroke-linecap="round" stroke-linejoin="round"/>
<path d="M149.2 228.029C149.2 228.029 166.766 222.391 178.477 222.391" stroke="white" stroke-miterlimit="10" stroke-linecap="round" stroke-linejoin="round"/>
<path d="M165.899 212.524L164.706 221.523C164.706 221.523 167.742 221.523 167.959 222.825C168.176 224.126 166.874 225.535 166.874 225.535C166.874 225.535 175.332 230.089 176.416 235.511" stroke="white" stroke-miterlimit="10" stroke-linecap="round" stroke-linejoin="round"/>
<path d="M155.272 178.151C155.272 178.151 145.188 181.404 143.67 183.898C142.261 186.392 143.345 204.175 143.345 206.343C143.345 208.512 144.646 205.042 145.731 202.548C146.815 200.054 150.61 196.259 151.911 196.584C153.212 196.91 153.863 198.428 153.863 200.705C153.863 203.09 156.79 206.343 159.284 208.078C161.778 209.921 164.164 211.656 164.164 211.656C164.164 211.656 169.368 204.066 170.67 202.114C171.971 200.163 171.754 195.934 171.971 194.524C172.188 193.115 175.44 198.536 176.091 197.018C176.85 195.609 174.465 194.307 171.971 190.295C169.477 186.284 170.127 182.163 166.332 179.236C162.537 176.525 158.2 177.392 155.272 178.151Z" fill="white"/>
<path d="M143.779 183.898C142.803 185.633 143.02 193.982 143.237 200.163C145.514 197.235 150.285 191.597 153.104 192.681C156.574 193.982 157.983 204.066 157.983 204.066L155.598 178.26H155.489C155.272 178.151 145.188 181.404 143.779 183.898Z" fill="#136AFB"/>
<path opacity="0.5" d="M143.779 183.898C142.803 185.633 143.02 193.982 143.237 200.163C145.514 197.235 150.285 191.597 153.104 192.681C156.574 193.982 157.983 204.066 157.983 204.066L155.598 178.26H155.489C155.272 178.151 145.188 181.404 143.779 183.898Z" fill="white"/>
<path d="M155.272 178.151C155.272 178.151 145.188 181.404 143.67 183.898C142.261 186.392 143.345 204.175 143.345 206.343C143.345 208.512 144.646 205.042 145.731 202.548C146.815 200.054 150.61 196.259 151.911 196.584C153.212 196.91 153.863 198.428 153.863 200.705C153.863 203.09 156.79 206.343 159.284 208.078C161.778 209.921 164.164 211.656 164.164 211.656C164.164 211.656 169.368 204.066 170.67 202.114C171.971 200.163 171.754 195.934 171.971 194.524C172.188 193.115 175.44 198.536 176.091 197.018C176.85 195.609 174.465 194.307 171.971 190.295C169.477 186.284 170.127 182.163 166.332 179.236C162.537 176.525 158.2 177.392 155.272 178.151Z" stroke="#263238" stroke-miterlimit="10" stroke-linecap="round" stroke-linejoin="round"/>
<path d="M131.309 251.342C131.309 251.342 125.02 242.45 117.43 241.583C109.84 240.716 100.623 247.005 100.298 249.173C99.9729 251.342 98.1295 263.052 99.4307 264.57C100.732 266.088 105.937 267.606 115.912 264.353C125.888 261.101 130.225 257.089 131.309 251.342Z" fill="white"/>
<path d="M105.937 264.353C105.937 264.353 103.768 258.173 104.852 256.004C105.937 253.836 110.274 250.583 112.985 247.33C115.695 244.077 106.696 249.173 106.262 247.33C105.937 245.812 111.033 242.884 112.985 241.8C106.696 242.993 100.623 247.438 100.407 249.173C100.19 251.342 98.238 263.052 99.5392 264.57C100.19 265.438 101.925 266.197 104.852 266.305C105.611 265.221 105.937 264.353 105.937 264.353Z" fill="#136AFB"/>
<path opacity="0.5" d="M105.937 264.353C105.937 264.353 103.768 258.173 104.852 256.004C105.937 253.836 110.274 250.583 112.985 247.33C115.695 244.077 106.696 249.173 106.262 247.33C105.937 245.812 111.033 242.884 112.985 241.8C106.696 242.993 100.623 247.438 100.407 249.173C100.19 251.342 98.238 263.052 99.5392 264.57C100.19 265.438 101.925 266.197 104.852 266.305C105.611 265.221 105.937 264.353 105.937 264.353Z" fill="white"/>
<path d="M131.309 251.342C131.309 251.342 125.02 242.45 117.43 241.583C109.84 240.716 100.623 247.005 100.298 249.173C99.9729 251.342 98.1295 263.052 99.4307 264.57C100.732 266.088 105.937 267.606 115.912 264.353C125.888 261.101 130.225 257.089 131.309 251.342Z" stroke="#263238" stroke-miterlimit="10" stroke-linecap="round" stroke-linejoin="round"/>
<path d="M110.165 253.836C110.165 253.836 99.9729 257.848 99.5392 265.763C99.3223 270.1 106.587 272.052 114.177 272.052C121.767 272.052 132.61 262.51 139.658 258.498C146.706 254.486 162.971 244.944 164.814 244.185C166.658 243.426 173.272 245.487 175.874 246.354C178.477 247.221 183.681 247.221 183.681 247.221C183.681 247.221 187.476 253.185 189.32 253.185C191.163 253.185 185.199 244.294 184.44 242.342C183.681 240.39 170.344 236.053 168.718 236.053C167.091 236.053 129.141 245.595 123.394 247.764C117.647 249.932 110.165 253.836 110.165 253.836Z" fill="white"/>
<path d="M131.418 252.751C146.923 245.053 168.935 235.945 168.935 235.945C167.308 235.945 129.358 245.487 123.611 247.655C117.864 249.824 110.057 253.944 110.057 253.944C110.057 253.944 99.8644 257.956 99.4307 265.872C99.2139 270.209 106.479 272.16 114.069 272.16C121.659 272.16 132.502 262.619 139.55 258.607C140.743 257.956 142.261 257.089 143.779 256.113C133.695 257.305 119.816 258.498 131.418 252.751Z" fill="#136AFB"/>
<path opacity="0.5" d="M131.418 252.751C146.923 245.053 168.935 235.945 168.935 235.945C167.308 235.945 129.358 245.487 123.611 247.655C117.864 249.824 110.057 253.944 110.057 253.944C110.057 253.944 99.8644 257.956 99.4307 265.872C99.2139 270.209 106.479 272.16 114.069 272.16C121.659 272.16 132.502 262.619 139.55 258.607C140.743 257.956 142.261 257.089 143.779 256.113C133.695 257.305 119.816 258.498 131.418 252.751Z" fill="white"/>
<path d="M110.165 253.836C110.165 253.836 99.9729 257.848 99.5392 265.763C99.3223 270.1 106.587 272.052 114.177 272.052C121.767 272.052 132.61 262.51 139.658 258.498C146.706 254.486 162.971 244.944 164.814 244.185C166.658 243.426 173.272 245.487 175.874 246.354C178.477 247.221 183.681 247.221 183.681 247.221C183.681 247.221 187.476 253.185 189.32 253.185C191.163 253.185 185.199 244.294 184.44 242.342C183.681 240.39 170.344 236.053 168.718 236.053C167.091 236.053 129.141 245.595 123.394 247.764C117.647 249.932 110.165 253.836 110.165 253.836Z" stroke="#263238" stroke-miterlimit="10" stroke-linecap="round" stroke-linejoin="round"/>
<path d="M189.536 193.548L181.296 240.065L240.932 240.282L249.824 196.259C250.149 194.633 248.956 193.006 247.221 193.006L192.356 191.38C190.946 191.271 189.753 192.247 189.536 193.548Z" fill="white" stroke="#263238" stroke-miterlimit="10" stroke-linecap="round" stroke-linejoin="round"/>
<path d="M181.187 239.957L152.236 260.558L218.596 258.607L240.824 240.282L181.187 239.957Z" fill="white"/>
<path d="M181.187 239.957L152.236 260.558L218.596 258.607L240.824 240.282L181.187 239.957Z" fill="#136AFB"/>
<path opacity="0.5" d="M181.187 239.957L152.236 260.558L218.596 258.607L240.824 240.282L181.187 239.957Z" fill="white"/>
<path d="M181.187 239.957L152.236 260.558L218.596 258.607L240.824 240.282L181.187 239.957Z" stroke="#263238" stroke-miterlimit="10" stroke-linecap="round" stroke-linejoin="round"/>
<path d="M203.199 260.342C203.199 260.342 227.053 239.523 250.691 232.367C274.329 225.21 279.1 226.403 278.666 236.921C278.233 247.438 266.739 302.846 259.149 316.942C251.559 331.038 242.017 356.845 242.342 361.616C242.667 366.387 251.884 380.916 259.908 386.013C267.932 391.109 267.281 397.398 262.076 398.482C256.872 399.566 251.016 401.518 233.342 390.024C215.668 378.531 208.403 362.375 209.488 358.363C210.572 354.351 221.957 348.821 226.62 340.797C231.282 332.773 238.764 302.304 239.414 288.534C240.065 274.763 244.836 263.052 244.836 263.052C244.836 263.052 215.018 268.474 206.343 273.895L203.199 260.342Z" fill="white"/>
<path d="M203.199 260.342C203.199 260.342 227.053 239.523 250.691 232.367C274.329 225.21 279.1 226.403 278.666 236.921C278.233 247.438 266.739 302.846 259.149 316.942C251.559 331.038 242.017 356.845 242.342 361.616C242.667 366.387 251.884 380.916 259.908 386.013C267.932 391.109 267.281 397.398 262.076 398.482C256.872 399.566 251.016 401.518 233.342 390.024C215.668 378.531 208.403 362.375 209.488 358.363C210.572 354.351 221.957 348.821 226.62 340.797C231.282 332.773 238.764 302.304 239.414 288.534C240.065 274.763 244.836 263.052 244.836 263.052C244.836 263.052 215.018 268.474 206.343 273.895L203.199 260.342Z" fill="#136AFB"/>
<path opacity="0.5" d="M203.199 260.342C203.199 260.342 227.053 239.523 250.691 232.367C274.329 225.21 279.1 226.403 278.666 236.921C278.233 247.438 266.739 302.846 259.149 316.942C251.559 331.038 242.017 356.845 242.342 361.616C242.667 366.387 251.884 380.916 259.908 386.013C267.932 391.109 267.281 397.398 262.076 398.482C256.872 399.566 251.016 401.518 233.342 390.024C215.668 378.531 208.403 362.375 209.488 358.363C210.572 354.351 221.957 348.821 226.62 340.797C231.282 332.773 238.764 302.304 239.414 288.534C240.065 274.763 244.836 263.052 244.836 263.052C244.836 263.052 215.018 268.474 206.343 273.895L203.199 260.342Z" fill="white"/>
<path d="M203.199 260.342C203.199 260.342 227.053 239.523 250.691 232.367C274.329 225.21 279.1 226.403 278.666 236.921C278.233 247.438 266.739 302.846 259.149 316.942C251.559 331.038 242.017 356.845 242.342 361.616C242.667 366.387 251.884 380.916 259.908 386.013C267.932 391.109 267.281 397.398 262.076 398.482C256.872 399.566 251.016 401.518 233.342 390.024C215.668 378.531 208.403 362.375 209.488 358.363C210.572 354.351 221.957 348.821 226.62 340.797C231.282 332.773 238.764 302.304 239.414 288.534C240.065 274.763 244.836 263.052 244.836 263.052C244.836 263.052 215.018 268.474 206.343 273.895L203.199 260.342Z" stroke="#263238" stroke-miterlimit="10" stroke-linecap="round" stroke-linejoin="round"/>
<path d="M226.511 340.797C226.186 341.448 225.752 341.99 225.319 342.532C229.547 342.966 235.511 344.484 240.607 348.929C242.125 350.23 243.318 351.423 244.294 352.508C247.438 342.424 253.727 326.81 259.04 316.942C266.631 302.846 278.016 247.547 278.558 236.921C279.1 226.294 274.221 225.21 250.583 232.367C226.945 239.523 203.09 260.342 203.09 260.342L206.126 273.895C214.801 268.474 244.619 263.052 244.619 263.052C244.619 263.052 239.74 274.763 239.198 288.534C238.655 302.304 231.065 332.665 226.511 340.797Z" fill="white" stroke="#263238" stroke-miterlimit="10" stroke-linecap="round" stroke-linejoin="round"/>
<path d="M226.511 340.797C226.186 341.448 225.752 341.99 225.319 342.532C229.547 342.966 235.511 344.484 240.607 348.929C242.125 350.23 243.318 351.423 244.294 352.507C249.499 345.568 255.354 323.557 261.968 314.448C278.992 291.027 278.016 247.547 278.558 237.029C279.1 226.511 274.221 225.319 250.583 232.475C226.945 239.631 203.09 260.45 203.09 260.45L206.126 274.004C214.801 268.582 244.619 263.161 244.619 263.161C244.619 263.161 239.74 274.871 239.198 288.642C238.655 302.413 231.065 332.665 226.511 340.797Z" fill="#263238"/>
<path opacity="0.53" d="M226.511 340.797C226.186 341.448 225.752 341.99 225.319 342.532C229.547 342.966 235.511 344.484 240.607 348.929C242.125 350.23 243.318 351.423 244.294 352.507C249.499 345.568 255.354 323.557 261.968 314.448C278.992 291.027 278.016 247.547 278.558 237.029C279.1 226.511 274.221 225.319 250.583 232.475C226.945 239.631 203.09 260.45 203.09 260.45L206.126 274.004C214.801 268.582 244.619 263.161 244.619 263.161C244.619 263.161 239.74 274.871 239.198 288.642C238.655 302.413 231.065 332.665 226.511 340.797Z" fill="white"/>
<path opacity="0.14" d="M267.064 235.619C266.631 231.716 224.668 249.499 206.994 257.197C204.5 259.149 203.09 260.342 203.09 260.342L206.126 273.895C214.801 268.474 244.619 263.052 244.619 263.052C244.619 263.052 239.74 274.763 239.198 288.533C238.655 302.304 231.065 332.773 226.403 340.797C226.078 341.448 225.644 341.99 225.21 342.532C227.704 342.857 230.74 343.399 233.885 344.809C240.499 330.93 247.438 314.882 250.691 302.196C256.763 279.534 267.606 240.499 267.064 235.619Z" fill="black"/>
<path d="M244.619 263.052C244.619 263.052 252.751 246.571 259.799 239.74" stroke="#263238" stroke-miterlimit="10" stroke-linecap="round" stroke-linejoin="round"/>
<path d="M226.511 340.797C226.186 341.448 225.752 341.99 225.319 342.532C229.547 342.966 235.511 344.484 240.607 348.929C242.125 350.23 243.318 351.423 244.294 352.507C249.499 345.568 255.354 323.557 261.968 314.448C278.992 291.027 278.016 247.547 278.558 237.029C279.1 226.511 274.221 225.319 250.583 232.475C226.945 239.631 203.09 260.45 203.09 260.45L206.126 274.004C214.801 268.582 244.619 263.161 244.619 263.161C244.619 263.161 239.74 274.871 239.198 288.642C238.655 302.413 231.065 332.665 226.511 340.797Z" stroke="#263238" stroke-miterlimit="10" stroke-linecap="round" stroke-linejoin="round"/>
<path opacity="0.1" d="M165.556 282.222C165.556 282.222 180.754 281.811 193.115 277.257C205.367 272.811 183.031 264.57 174.573 269.125C166.007 273.57 165.556 282.222 165.556 282.222Z" fill="#160647"/>
<path d="M132.177 264.679C132.177 264.679 123.502 269.558 120.466 274.98C117.43 280.401 130.333 289.401 143.887 288.859C157.441 288.317 182.272 273.57 182.272 273.57C182.272 273.57 182.488 297.425 187.151 306.099C191.813 314.774 212.957 335.918 221.307 341.339C229.656 346.761 257.956 367.146 262.293 370.399C266.631 373.651 274.763 379.615 276.606 379.94C278.449 380.266 298.292 356.086 302.846 347.953C307.4 339.821 311.521 322.798 309.894 318.894C308.268 314.991 305.015 318.352 301.762 321.063C298.509 323.773 268.691 343.616 265.98 344.917C263.269 346.219 261.426 346.869 261.426 346.869C261.426 346.869 237.029 323.557 224.017 305.666C211.006 287.775 209.921 264.679 205.042 256.004C200.163 247.33 193.115 243.535 182.488 244.619C171.862 245.703 150.068 251.342 132.177 264.679Z" fill="white"/>
<path d="M246.896 359.23C254.161 364.435 260.45 368.989 262.293 370.399C266.631 373.651 274.763 379.615 276.606 379.94C277.257 380.049 280.184 377.013 283.871 372.784L252.86 352.833L246.896 359.23Z" fill="#136AFB"/>
<path opacity="0.5" d="M246.896 359.23C254.161 364.435 260.45 368.989 262.293 370.399C266.631 373.651 274.763 379.615 276.606 379.94C277.257 380.049 280.184 377.013 283.871 372.784L252.86 352.833L246.896 359.23Z" fill="white"/>
<path d="M132.177 264.679C132.177 264.679 123.502 269.558 120.466 274.98C117.43 280.401 130.333 289.401 143.887 288.859C157.441 288.317 182.272 273.57 182.272 273.57C182.272 273.57 182.488 297.425 187.151 306.099C191.814 314.774 212.957 335.918 221.307 341.339C229.656 346.761 257.956 367.146 262.293 370.399C266.631 373.651 274.763 379.615 276.606 379.94C278.449 380.266 298.292 356.086 302.846 347.953C307.4 339.821 311.521 322.798 309.894 318.894C308.268 314.991 305.015 318.352 301.762 321.063C298.509 323.773 268.691 343.616 265.98 344.917C263.269 346.219 261.426 346.869 261.426 346.869C261.426 346.869 237.029 323.557 224.017 305.666C211.006 287.775 209.921 264.679 205.042 256.004C200.163 247.33 193.115 243.535 182.488 244.619C171.862 245.703 150.068 251.342 132.177 264.679Z" stroke="#263238" stroke-miterlimit="10" stroke-linecap="round" stroke-linejoin="round"/>
<path d="M259.799 345.134C254.053 339.496 232.583 310.653 224.126 294.063C211.656 269.775 210.355 261.426 205.476 252.751C200.596 244.077 193.223 243.426 182.705 244.511C172.188 245.595 153.212 247.547 130.008 260.667C130.008 260.667 120.249 265.98 117.322 271.401C114.394 276.823 125.237 290.485 144.104 288.75C157.658 287.558 182.488 273.462 182.488 273.462C182.488 273.462 182.705 297.316 187.368 305.991C192.03 314.665 213.174 335.809 221.523 341.231C226.837 344.7 240.173 354.134 250.257 361.399C252.643 352.507 257.089 347.52 259.799 345.134Z" fill="#263238"/>
<path opacity="0.53" d="M259.799 345.134C254.053 339.496 232.583 310.653 224.126 294.063C211.656 269.775 210.355 261.426 205.476 252.751C200.596 244.077 193.223 243.426 182.705 244.511C172.188 245.595 153.212 247.547 130.008 260.667C130.008 260.667 120.249 265.98 117.322 271.401C114.394 276.823 125.237 290.485 144.104 288.75C157.658 287.558 182.488 273.462 182.488 273.462C182.488 273.462 182.705 297.316 187.368 305.991C192.03 314.665 213.174 335.809 221.523 341.231C226.837 344.7 240.173 354.134 250.257 361.399C252.643 352.507 257.089 347.52 259.799 345.134Z" fill="white"/>
<path opacity="0.14" d="M205.259 306.641C197.127 286.04 202.006 244.836 179.236 250.258C162.646 254.161 132.285 268.257 116.996 275.522C118.84 281.702 128.815 290.268 143.887 288.859C157.441 287.666 182.272 273.57 182.272 273.57C182.272 273.57 182.488 297.425 187.151 306.099C191.813 314.774 212.957 335.918 221.307 341.339C226.62 344.809 239.957 354.242 250.041 361.507C251.017 357.821 252.426 354.893 253.836 352.399C233.668 337.544 209.813 318.135 205.259 306.641Z" fill="black"/>
<path d="M182.272 273.57L181.513 259.474" stroke="#263238" stroke-miterlimit="10" stroke-linecap="round" stroke-linejoin="round"/>
<path d="M259.618 345.465C253.871 339.826 232.402 310.984 223.945 294.394C211.475 270.106 210.174 261.756 205.295 253.082C200.415 244.408 193.042 243.757 182.524 244.841C172.006 245.926 153.031 247.877 129.827 260.997C129.827 260.997 120.068 266.311 117.141 271.732C114.213 277.154 125.056 290.816 143.923 289.081C157.477 287.888 182.307 273.792 182.307 273.792C182.307 273.792 182.524 297.647 187.187 306.321C191.849 314.996 212.993 336.14 221.342 341.561C226.655 345.031 239.992 354.464 250.076 361.729C252.462 352.838 256.907 347.85 259.618 345.465Z" stroke="#263238" stroke-miterlimit="10" stroke-linecap="round" stroke-linejoin="round"/>
<path d="M262.293 370.399C266.631 373.651 274.763 379.615 276.606 379.94C278.449 380.266 298.292 356.086 302.846 347.953C307.4 339.821 311.521 322.798 309.894 318.894C308.268 314.991 305.015 318.352 301.762 321.063C298.509 323.773 268.691 343.616 265.98 344.917C265.221 345.243 264.57 345.568 264.028 345.785C263.269 347.303 262.293 349.58 262.944 351.098C264.028 353.483 268.582 356.736 268.582 356.736L260.342 368.989C261.317 369.639 261.86 370.073 262.293 370.399Z" fill="#263238" stroke="#263238" stroke-miterlimit="10" stroke-linecap="round" stroke-linejoin="round"/>
<path d="M302.955 347.845C307.509 339.713 311.629 322.689 310.003 318.786C309.027 316.617 307.617 316.725 305.882 317.81C307.075 322.906 305.882 332.665 300.244 343.182C295.256 352.616 279.859 369.206 272.052 377.23C274.112 378.639 275.956 379.615 276.715 379.723C278.558 380.157 298.292 355.977 302.955 347.845Z" fill="white"/>
<path d="M276.931 379.832C277.04 379.832 277.04 379.724 277.148 379.724C277.148 379.724 277.148 379.724 277.257 379.724C277.365 379.615 277.474 379.615 277.582 379.507L277.69 379.398C277.799 379.29 277.907 379.181 278.016 379.181C278.124 379.181 278.124 379.073 278.233 379.073C278.341 378.964 278.558 378.856 278.666 378.639C278.775 378.531 278.883 378.422 278.883 378.422C278.992 378.314 279.1 378.205 279.208 378.097C279.317 377.989 279.425 377.88 279.534 377.772C279.642 377.663 279.751 377.555 279.859 377.446C280.076 377.23 280.401 376.904 280.618 376.687L280.726 376.579C280.835 376.362 281.052 376.254 281.16 376.037C281.269 375.928 281.269 375.928 281.377 375.82C281.919 375.169 282.57 374.519 283.22 373.868C283.22 373.868 283.22 373.868 283.22 373.76C283.437 373.543 283.654 373.218 283.871 373.001L279.1 369.965C276.389 372.892 273.895 375.495 271.944 377.555C272.16 377.772 272.486 377.88 272.703 377.989C272.703 377.989 272.811 377.989 272.811 378.097C273.028 378.205 273.245 378.422 273.462 378.531C273.787 378.748 274.221 378.964 274.546 379.181C274.654 379.29 274.763 379.29 274.871 379.398C274.98 379.507 275.088 379.507 275.197 379.507C275.305 379.615 275.413 379.615 275.522 379.724C275.63 379.724 275.63 379.832 275.739 379.832C275.847 379.832 275.956 379.94 276.064 379.94C276.172 379.94 276.172 379.94 276.281 380.049C276.389 380.049 276.606 380.157 276.715 380.157C276.715 379.94 276.823 379.832 276.931 379.832C276.823 379.832 276.931 379.832 276.931 379.832Z" fill="#136AFB"/>
<path opacity="0.5" d="M276.931 379.832C277.04 379.832 277.04 379.724 277.148 379.724C277.148 379.724 277.148 379.724 277.257 379.724C277.365 379.615 277.474 379.615 277.582 379.507L277.69 379.398C277.799 379.29 277.907 379.181 278.016 379.181C278.124 379.181 278.124 379.073 278.233 379.073C278.341 378.964 278.558 378.856 278.666 378.639C278.775 378.531 278.883 378.422 278.883 378.422C278.992 378.314 279.1 378.205 279.208 378.097C279.317 377.989 279.425 377.88 279.534 377.772C279.642 377.663 279.751 377.555 279.859 377.446C280.076 377.23 280.401 376.904 280.618 376.687L280.726 376.579C280.835 376.362 281.052 376.254 281.16 376.037C281.269 375.928 281.269 375.928 281.377 375.82C281.919 375.169 282.57 374.519 283.22 373.868C283.22 373.868 283.22 373.868 283.22 373.76C283.437 373.543 283.654 373.218 283.871 373.001L279.1 369.965C276.389 372.892 273.895 375.495 271.944 377.555C272.16 377.772 272.486 377.88 272.703 377.989C272.703 377.989 272.811 377.989 272.811 378.097C273.028 378.205 273.245 378.422 273.462 378.531C273.787 378.748 274.221 378.964 274.546 379.181C274.654 379.29 274.763 379.29 274.871 379.398C274.98 379.507 275.088 379.507 275.197 379.507C275.305 379.615 275.413 379.615 275.522 379.724C275.63 379.724 275.63 379.832 275.739 379.832C275.847 379.832 275.956 379.94 276.064 379.94C276.172 379.94 276.172 379.94 276.281 380.049C276.389 380.049 276.606 380.157 276.715 380.157C276.715 379.94 276.823 379.832 276.931 379.832C276.823 379.832 276.931 379.832 276.931 379.832Z" fill="white"/>
<path d="M302.955 347.845C307.509 339.713 311.629 322.689 310.003 318.786C309.027 316.617 307.617 316.725 305.882 317.81C307.075 322.906 305.882 332.665 300.244 343.182C295.256 352.616 279.859 369.206 272.052 377.23C274.112 378.639 275.956 379.615 276.715 379.723C278.558 380.157 298.292 355.977 302.955 347.845Z" stroke="#160647" stroke-miterlimit="10" stroke-linecap="round" stroke-linejoin="round"/>
<path d="M259.799 386.121C251.667 380.916 242.45 366.603 242.234 361.724C242.234 361.29 242.234 360.748 242.342 360.098C239.74 360.098 237.896 361.724 237.896 361.724C237.896 361.724 231.933 356.303 227.27 353.266C224.017 351.098 219.68 350.556 217.511 350.339C213.608 353.592 209.921 356.194 209.379 358.363C208.295 362.483 215.668 378.748 233.234 390.024C250.8 401.301 256.872 399.566 261.968 398.482C267.064 397.398 267.932 391.217 259.799 386.121Z" fill="#263238" stroke="#263238" stroke-miterlimit="10" stroke-linecap="round" stroke-linejoin="round"/>
<path d="M259.799 386.121C257.414 384.603 254.92 382.217 252.535 379.615C246.896 377.23 239.523 374.194 232.909 370.073C225.861 365.736 227.487 363.025 223.367 359.013C220.222 355.869 214.15 355.435 211.439 355.435C210.355 356.519 209.596 357.495 209.271 358.471C208.186 362.591 215.56 378.856 233.125 390.133C250.691 401.41 256.763 399.675 261.86 398.59C266.956 397.506 267.932 391.217 259.799 386.121Z" fill="white"/>
<path d="M259.799 386.121C257.414 384.603 254.92 382.217 252.535 379.615C246.896 377.23 239.523 374.194 232.909 370.073C225.861 365.736 227.487 363.025 223.367 359.013C220.222 355.869 214.15 355.435 211.439 355.435C210.355 356.519 209.596 357.495 209.271 358.471C208.186 362.591 215.56 378.856 233.125 390.133C250.691 401.41 256.763 399.675 261.86 398.59C266.956 397.506 267.932 391.217 259.799 386.121Z" fill="#136AFB"/>
<path opacity="0.5" d="M259.799 386.121C257.414 384.603 254.92 382.217 252.535 379.615C246.896 377.23 239.523 374.194 232.909 370.073C225.861 365.736 227.487 363.025 223.367 359.013C220.222 355.869 214.15 355.435 211.439 355.435C210.355 356.519 209.596 357.495 209.271 358.471C208.186 362.591 215.56 378.856 233.125 390.133C250.691 401.41 256.763 399.675 261.86 398.59C266.956 397.506 267.932 391.217 259.799 386.121Z" fill="white"/>
<path d="M259.799 386.121C257.414 384.603 254.92 382.217 252.535 379.615C246.896 377.23 239.523 374.194 232.909 370.073C225.861 365.736 227.487 363.025 223.367 359.013C220.222 355.869 214.15 355.435 211.439 355.435C210.355 356.519 209.596 357.495 209.271 358.471C208.186 362.591 215.56 378.856 233.125 390.133C250.691 401.41 256.763 399.675 261.86 398.59C266.956 397.506 267.932 391.217 259.799 386.121Z" stroke="#263238" stroke-miterlimit="10" stroke-linecap="round" stroke-linejoin="round"/>
<path d="M261.209 387.964C254.161 383.844 239.74 381.241 230.632 374.953C221.523 368.664 223.909 363.242 217.078 358.905C213.933 356.953 211.331 357.387 209.488 358.471C208.512 362.7 215.885 378.748 233.342 390.133C250.908 401.518 256.98 399.675 262.076 398.59C265.546 397.831 266.956 394.904 265.221 391.434C264.028 390.133 262.727 388.94 261.209 387.964Z" fill="#263238"/>
<path opacity="0.53" d="M261.209 387.964C254.161 383.844 239.74 381.241 230.632 374.953C221.523 368.664 223.909 363.242 217.078 358.905C213.933 356.953 211.331 357.387 209.488 358.471C208.512 362.7 215.885 378.748 233.342 390.133C250.908 401.518 256.98 399.675 262.076 398.59C265.546 397.831 266.956 394.904 265.221 391.434C264.028 390.133 262.727 388.94 261.209 387.964Z" fill="white"/>
<path d="M261.209 387.964C254.161 383.844 239.74 381.241 230.632 374.953C221.523 368.664 223.909 363.242 217.078 358.905C213.933 356.953 211.331 357.387 209.488 358.471C208.512 362.7 215.885 378.748 233.342 390.133C250.908 401.518 256.98 399.675 262.076 398.59C265.546 397.831 266.956 394.904 265.221 391.434C264.028 390.133 262.727 388.94 261.209 387.964Z" stroke="#263238" stroke-miterlimit="10" stroke-linecap="round" stroke-linejoin="round"/>
<path d="M126.105 336.134C126.105 336.134 131.309 329.846 132.068 334.616C132.827 339.496 131.743 348.387 127.948 351.748C124.261 355.11 122.418 349.905 122.418 349.905L124.695 346.978C124.695 346.978 126.538 350.664 128.056 344.701C129.574 338.737 125.129 339.496 125.129 339.496L126.105 336.134Z" fill="white" stroke="#263238" stroke-miterlimit="10" stroke-linecap="round" stroke-linejoin="round"/>
<path d="M122.093 359.989C119.057 362.266 108.973 362.266 105.937 359.989C99.4307 355.218 100.515 331.906 100.515 331.906H127.514C127.514 331.797 128.599 355.11 122.093 359.989Z" fill="white" stroke="#263238" stroke-miterlimit="10" stroke-linecap="round" stroke-linejoin="round"/>
<path d="M103.443 327.243C103.443 324.316 106.153 324.316 106.153 321.388C106.153 318.46 103.443 318.46 103.443 315.533C103.443 312.605 106.153 312.605 106.153 309.677C106.153 306.75 103.443 306.75 103.443 303.822C103.443 300.895 106.153 300.895 106.153 297.967" stroke="#263238" stroke-miterlimit="10" stroke-linecap="round" stroke-linejoin="round"/>
<path d="M112.768 327.243C112.768 324.966 115.478 324.966 115.478 322.798C115.478 320.52 112.768 320.52 112.768 318.352C112.768 316.075 115.478 316.075 115.478 313.906C115.478 311.629 112.768 311.629 112.768 309.461C112.768 307.184 115.478 307.184 115.478 305.015" stroke="#263238" stroke-miterlimit="10" stroke-linecap="round" stroke-linejoin="round"/>
<path d="M123.069 327.243C123.069 324.316 125.779 324.316 125.779 321.388C125.779 318.46 123.069 318.46 123.069 315.533C123.069 312.605 125.779 312.605 125.779 309.677C125.779 306.75 123.069 306.75 123.069 303.822C123.069 300.895 125.779 300.895 125.779 297.967" stroke="#263238" stroke-miterlimit="10" stroke-linecap="round" stroke-linejoin="round"/>
<path d="M127.514 331.797C127.514 332.448 121.442 332.99 114.069 332.99C106.587 332.99 100.623 332.448 100.623 331.797C100.623 331.147 106.696 330.604 114.069 330.604C121.442 330.604 127.514 331.147 127.514 331.797Z" fill="white" stroke="#263238" stroke-miterlimit="10" stroke-linecap="round" stroke-linejoin="round"/>
<path d="M152.345 164.055C152.345 164.055 153.646 177.718 154.188 182.055C154.73 186.392 155.923 198.753 157.224 202.873C158.417 206.994 165.248 214.15 165.899 212.524C166.549 210.897 169.91 199.729 168.609 193.115C167.308 186.5 166.874 180.754 167.742 179.019C168.609 177.392 171.537 175.44 171.537 175.44C171.537 175.44 166.224 172.73 161.344 169.477C156.465 166.224 153.104 162.537 152.345 164.055Z" fill="white"/>
<path d="M169.802 176.091L168.718 174.031C166.766 172.947 163.947 171.32 161.344 169.585C156.465 166.332 153.104 162.646 152.453 164.164C152.453 164.164 153.754 177.826 154.297 182.163C154.839 186.5 156.031 198.861 157.333 202.982C157.658 203.958 158.308 205.15 159.067 206.343C157.766 198.211 159.176 183.356 159.176 183.356L169.802 176.091Z" fill="#136AFB"/>
<path opacity="0.5" d="M169.802 176.091L168.718 174.031C166.766 172.947 163.947 171.32 161.344 169.585C156.465 166.332 153.104 162.646 152.453 164.164C152.453 164.164 153.754 177.826 154.297 182.163C154.839 186.5 156.031 198.861 157.333 202.982C157.658 203.958 158.308 205.15 159.067 206.343C157.766 198.211 159.176 183.356 159.176 183.356L169.802 176.091Z" fill="white"/>
<path d="M152.345 164.055C152.345 164.055 153.646 177.718 154.188 182.055C154.73 186.392 155.923 198.753 157.224 202.873C158.417 206.994 165.248 214.15 165.899 212.524C166.549 210.897 169.91 199.729 168.609 193.115C167.308 186.5 166.874 180.754 167.742 179.019C168.609 177.392 171.537 175.44 171.537 175.44C171.537 175.44 166.224 172.73 161.344 169.477C156.465 166.224 153.104 162.537 152.345 164.055Z" stroke="#263238" stroke-miterlimit="10" stroke-linecap="round" stroke-linejoin="round"/>
<path d="M151.911 166.007C151.911 166.007 159.718 172.513 165.682 174.898C171.645 177.284 180.862 177.175 182.163 174.031C183.464 170.886 179.886 146.273 176.85 139.767C173.814 133.261 170.453 133.153 165.031 132.719C159.61 132.177 148.658 136.622 146.706 141.936C144.755 147.249 146.923 154.622 148.55 159.068C150.176 163.513 151.911 166.007 151.911 166.007Z" fill="white"/>
<path d="M165.899 165.682C163.079 157.441 162.429 144.538 162.429 141.177C162.429 138.466 169.368 135.647 172.513 134.454C170.453 133.153 168.067 133.044 164.923 132.719C159.501 132.177 148.55 136.622 146.598 141.936C144.646 147.249 146.815 154.622 148.441 159.068C150.068 163.513 151.803 166.007 151.803 166.007C151.803 166.007 159.61 172.513 165.573 174.898C169.585 176.416 175.007 176.959 178.477 176.2C174.356 174.573 167.742 171.212 165.899 165.682Z" fill="#136AFB"/>
<path opacity="0.5" d="M165.899 165.682C163.079 157.441 162.429 144.538 162.429 141.177C162.429 138.466 169.368 135.647 172.513 134.454C170.453 133.153 168.067 133.044 164.923 132.719C159.501 132.177 148.55 136.622 146.598 141.936C144.646 147.249 146.815 154.622 148.441 159.068C150.068 163.513 151.803 166.007 151.803 166.007C151.803 166.007 159.61 172.513 165.573 174.898C169.585 176.416 175.007 176.959 178.477 176.2C174.356 174.573 167.742 171.212 165.899 165.682Z" fill="white"/>
<path d="M151.911 166.007C151.911 166.007 159.718 172.513 165.682 174.898C171.645 177.284 180.862 177.175 182.163 174.031C183.464 170.886 179.886 146.273 176.85 139.767C173.814 133.261 170.453 133.153 165.031 132.719C159.61 132.177 148.658 136.622 146.706 141.936C144.755 147.249 146.923 154.622 148.55 159.068C150.176 163.513 151.911 166.007 151.911 166.007Z" stroke="#263238" stroke-miterlimit="10" stroke-linecap="round" stroke-linejoin="round"/>
<path d="M177.392 149.959C177.501 153.104 175.549 155.706 173.055 155.815C170.561 155.923 168.392 153.429 168.284 150.393C168.176 147.249 170.127 144.646 172.621 144.538C175.115 144.321 177.284 146.815 177.392 149.959Z" stroke="#263238" stroke-miterlimit="10" stroke-linecap="round" stroke-linejoin="round"/>
<path d="M183.573 148.767C183.681 151.911 182.705 154.513 181.296 154.513C179.886 154.513 178.693 152.128 178.585 148.983C178.477 145.839 179.452 143.237 180.862 143.237C182.163 143.128 183.356 145.622 183.573 148.767Z" stroke="#263238" stroke-miterlimit="10" stroke-linecap="round" stroke-linejoin="round"/>
<path d="M177.718 148.767C177.718 148.767 186.717 150.502 185.85 152.67C184.982 154.839 178.91 157.116 178.91 157.116" fill="white"/>
<path d="M177.718 148.767C177.718 148.767 186.717 150.502 185.85 152.67C184.982 154.839 178.91 157.116 178.91 157.116" stroke="#263238" stroke-miterlimit="10" stroke-linecap="round" stroke-linejoin="round"/>
<path d="M177.175 147.791C177.175 147.791 177.284 146.706 178.693 147.357" stroke="#263238" stroke-miterlimit="10" stroke-linecap="round" stroke-linejoin="round"/>
<path d="M167.959 150.827L151.694 157.224" stroke="#263238" stroke-miterlimit="10" stroke-linecap="round" stroke-linejoin="round"/>
<path d="M168.176 145.514C168.176 145.514 169.152 142.911 172.188 143.02" stroke="#263238" stroke-width="2" stroke-miterlimit="10" stroke-linecap="round" stroke-linejoin="round"/>
<path d="M179.019 143.128L176.525 144.104" stroke="#263238" stroke-width="2" stroke-miterlimit="10" stroke-linecap="round" stroke-linejoin="round"/>
<path d="M171.32 161.345C171.32 161.345 174.573 160.477 176.416 162.429" stroke="#263238" stroke-miterlimit="10" stroke-linecap="round" stroke-linejoin="round"/>
<path d="M173.38 150.502C173.489 151.586 173.38 152.562 172.947 152.562C172.513 152.562 172.079 151.803 171.971 150.718C171.862 149.634 171.971 148.658 172.404 148.658C172.838 148.658 173.272 149.417 173.38 150.502Z" fill="#263238"/>
<path d="M153.212 157.224C153.212 157.224 152.128 159.393 155.164 159.501C158.2 159.61 160.26 158.092 158.851 156.248C157.333 154.405 155.164 152.67 157.441 150.176C159.718 147.682 164.055 145.622 161.67 142.911C159.176 140.201 150.068 142.695 152.345 140.417C154.622 138.249 165.14 135.863 169.911 136.189C174.681 136.514 183.464 132.827 185.416 128.056C187.368 123.285 184.657 114.394 178.26 114.936C171.862 115.37 167.2 121.008 164.381 121.334C161.561 121.659 155.815 118.623 150.935 121.442C146.056 124.261 145.947 132.068 145.514 132.936C145.08 133.912 138.574 135.321 137.381 141.935C136.189 148.55 139.225 153.863 141.935 156.899C144.646 159.827 145.839 161.019 145.839 161.019L153.212 157.224Z" fill="#263238" stroke="#263238" stroke-miterlimit="10" stroke-linecap="round" stroke-linejoin="round"/>
<path d="M139.442 145.188C139.333 146.815 140.092 148.116 140.092 148.116" stroke="white" stroke-width="0.75" stroke-miterlimit="10" stroke-linecap="round" stroke-linejoin="round"/>
<path d="M167.091 128.056C167.091 128.056 164.706 122.852 170.778 122.852C176.85 122.852 177.717 130.442 171.429 133.153C165.14 135.972 151.586 136.622 144.321 139.875C142.478 140.634 141.285 141.61 140.634 142.478" stroke="white" stroke-width="0.75" stroke-miterlimit="10" stroke-linecap="round" stroke-linejoin="round"/>
<path d="M156.14 146.381C153.971 147.14 151.152 148.224 148.333 149.526C142.261 152.345 143.562 155.164 143.562 155.164" stroke="white" stroke-width="0.75" stroke-miterlimit="10" stroke-linecap="round" stroke-linejoin="round"/>
<path d="M160.152 145.08C160.152 145.08 159.61 145.188 158.742 145.514" stroke="white" stroke-width="0.75" stroke-miterlimit="10" stroke-linecap="round" stroke-linejoin="round"/>
<path d="M154.188 159.501C154.188 159.501 150.718 154.405 147.032 156.465C143.345 158.525 146.164 165.682 148.441 168.176C150.61 170.67 154.947 166.007 155.381 164.814" fill="white"/>
<path d="M154.188 159.501C154.188 159.501 150.718 154.405 147.032 156.465C143.345 158.525 146.164 165.682 148.441 168.176C150.61 170.67 154.947 166.007 155.381 164.814" fill="#136AFB"/>
<path opacity="0.5" d="M154.188 159.501C154.188 159.501 150.718 154.405 147.032 156.465C143.345 158.525 146.164 165.682 148.441 168.176C150.61 170.67 154.947 166.007 155.381 164.814" fill="white"/>
<path d="M154.188 159.501C154.188 159.501 150.718 154.405 147.032 156.465C143.345 158.525 146.164 165.682 148.441 168.176C150.61 170.67 154.947 166.007 155.381 164.814" stroke="#263238" stroke-miterlimit="10" stroke-linecap="round" stroke-linejoin="round"/>
<path d="M110.413 223H33.4799C30.4713 223 28 220.502 28 217.46V160.54C28 157.498 30.4713 155 33.4799 155H110.52C113.529 155 116 157.498 116 160.54V217.46C116 220.502 113.529 223 110.413 223Z" fill="white" stroke="#263238" stroke-miterlimit="10" stroke-linecap="round" stroke-linejoin="round"/>
<path d="M113.852 203.849L165.899 217.403L113.852 191.922" fill="white"/>
<path d="M113.852 203.849L165.899 217.403L113.852 191.922" stroke="#263238" stroke-miterlimit="10" stroke-linecap="round" stroke-linejoin="round"/>
<path d="M46 163H96" stroke="#263238" stroke-miterlimit="10" stroke-linecap="round" stroke-linejoin="round"/>
<path d="M56 167H86" stroke="#263238" stroke-miterlimit="10" stroke-linecap="round" stroke-linejoin="round"/>
<path d="M74 180H106" stroke="#263238" stroke-miterlimit="10" stroke-linecap="round" stroke-linejoin="round"/>
<path d="M74 185H106" stroke="#263238" stroke-miterlimit="10" stroke-linecap="round" stroke-linejoin="round"/>
<path d="M74 190H94" stroke="#263238" stroke-miterlimit="10" stroke-linecap="round" stroke-linejoin="round"/>
<path d="M78 198H94" stroke="#263238" stroke-miterlimit="10" stroke-linecap="round" stroke-linejoin="round"/>
<path d="M78 203H94" stroke="#263238" stroke-miterlimit="10" stroke-linecap="round" stroke-linejoin="round"/>
<path d="M78 208H94" stroke="#263238" stroke-miterlimit="10" stroke-linecap="round" stroke-linejoin="round"/>
<path d="M75 198H75.01" stroke="#263238" stroke-miterlimit="10" stroke-linecap="round" stroke-linejoin="round"/>
<path d="M75 203H75.01" stroke="#263238" stroke-miterlimit="10" stroke-linecap="round" stroke-linejoin="round"/>
<path d="M75 208H75.01" stroke="#263238" stroke-miterlimit="10" stroke-linecap="round" stroke-linejoin="round"/>
<path d="M348.821 368.121C358.822 368.121 366.929 364.48 366.929 359.989C366.929 355.498 358.822 351.857 348.821 351.857C338.82 351.857 330.713 355.498 330.713 359.989C330.713 364.48 338.82 368.121 348.821 368.121Z" fill="#136AFB"/>
<path opacity="0.5" d="M348.821 368.121C358.822 368.121 366.929 364.48 366.929 359.989C366.929 355.498 358.822 351.857 348.821 351.857C338.82 351.857 330.713 355.498 330.713 359.989C330.713 364.48 338.82 368.121 348.821 368.121Z" fill="white"/>
<path d="M327.568 239.74C329.52 240.607 334.291 240.499 334.291 240.499C334.291 240.499 333.315 237.354 333.207 237.246C332.123 235.077 328.87 231.499 326.159 231.824C324.207 232.041 323.123 233.993 323.557 235.836C323.99 237.571 325.942 238.981 327.568 239.74Z" fill="#263238"/>
<mask id="path-118-inside-1" fill="white">
<path d="M389.808 223.584C387.097 223.258 383.952 226.945 382.976 229.222C382.868 229.439 381.892 232.583 382.001 232.583C382.001 232.583 382.001 232.583 382.109 232.583C381.567 233.126 381.025 233.776 380.483 234.535C379.398 235.836 378.205 237.246 377.121 238.981C375.928 240.716 374.736 242.559 373.543 244.619C372.459 246.679 371.374 248.956 370.507 251.45V251.559C370.507 250.8 370.507 248.523 370.507 248.414C370.182 246.029 368.23 241.583 365.519 241.041C363.567 240.716 361.941 242.234 361.832 244.077C361.724 246.029 363.025 247.872 364.435 249.065C365.953 250.366 370.182 251.776 370.507 251.884C369.748 254.269 369.206 256.655 368.772 259.257C368.555 260.667 368.338 262.185 368.121 263.594C368.121 262.944 368.121 262.293 368.121 262.185C367.796 259.799 365.844 255.354 363.134 254.812C361.182 254.486 359.555 256.004 359.447 257.848C359.339 259.799 360.64 261.643 362.049 262.835C363.459 264.028 367.037 265.221 367.905 265.546C367.796 266.088 367.796 266.631 367.688 267.281C367.362 269.992 367.037 272.703 366.712 275.305C366.603 276.281 366.387 277.148 366.278 278.016C366.278 277.365 366.278 276.931 366.278 276.823C365.953 274.438 364.001 269.992 361.29 269.45C359.339 269.124 357.712 270.642 357.604 272.486C357.495 274.438 358.796 276.281 360.206 277.474C361.507 278.666 364.76 279.751 365.953 280.184C365.736 281.16 365.519 282.028 365.302 282.895C365.085 283.546 364.977 284.088 364.76 284.738C364.543 285.389 364.326 285.931 364.218 286.473C363.784 287.558 363.35 288.75 363.025 289.835C362.7 290.594 362.483 291.353 362.158 292.003C362.266 291.027 362.591 289.292 362.591 289.076C362.591 287.449 362.049 284.847 360.965 283.004C360.965 282.787 360.965 282.57 360.965 282.244C360.64 280.401 358.905 278.992 357.062 279.534C354.459 280.184 352.833 284.847 352.616 287.232C352.616 287.341 352.724 288.967 352.724 289.943C352.616 289.401 352.507 288.859 352.291 288.208C351.965 287.015 351.748 285.931 351.423 284.63C351.206 284.088 351.098 283.437 350.881 282.895C350.664 282.244 350.447 281.702 350.23 281.052C349.688 279.642 349.146 278.233 348.496 276.823C349.471 276.606 353.05 275.63 354.568 274.546C355.977 273.462 357.495 271.618 357.495 269.775C357.495 267.932 355.977 266.305 354.025 266.522C351.315 266.847 349.038 271.076 348.496 273.462C348.496 273.57 348.279 275.305 348.279 276.281C347.845 275.413 347.52 274.546 347.086 273.787C345.893 271.401 344.592 268.908 343.291 266.522C342.857 265.763 342.532 265.004 342.098 264.353C342.423 264.245 346.761 263.269 348.387 262.076C349.797 260.992 351.315 259.149 351.315 257.306C351.315 255.462 349.797 253.836 347.845 254.053C345.134 254.378 342.857 258.607 342.315 260.992C342.315 261.209 342.098 263.703 341.99 264.353C341.122 262.727 340.363 261.101 339.604 259.474C338.52 257.197 337.652 254.92 337.002 252.643C337.219 252.643 341.664 251.559 343.291 250.366C344.7 249.282 346.218 247.438 346.218 245.595C346.218 243.752 344.7 242.125 342.749 242.342C340.038 242.667 337.761 246.896 337.219 249.282C337.219 249.499 336.893 252.209 336.893 252.643C336.893 252.535 336.785 252.426 336.785 252.209C336.026 249.824 335.701 247.33 335.375 245.053C335.267 243.752 335.159 242.451 335.159 241.149C336.026 241.041 339.93 240.499 341.556 239.523C343.074 238.547 344.809 236.921 345.026 235.077C345.243 233.234 343.941 231.391 341.99 231.391C339.279 231.391 336.46 235.403 335.701 237.68C335.701 237.788 335.375 239.089 335.159 240.065C335.159 239.523 335.159 238.872 335.159 238.33C335.159 236.27 335.267 234.427 335.375 232.8C335.484 231.824 335.592 230.957 335.592 230.198C336.351 229.656 339.496 227.487 340.472 225.861C341.448 224.343 342.207 222.066 341.448 220.331C340.797 218.596 338.737 217.62 337.002 218.487C334.616 219.68 333.966 224.56 334.4 226.945C334.4 227.162 335.375 230.306 335.375 230.306C335.267 231.065 335.159 231.933 335.05 232.8C334.833 234.427 334.725 236.378 334.616 238.439C334.616 240.499 334.616 242.667 334.725 245.053C334.942 247.438 335.267 249.824 335.918 252.426V252.535C335.484 251.884 334.291 250.041 334.074 249.932C332.448 248.089 328.327 245.487 325.834 246.571C323.99 247.33 323.557 249.499 324.424 251.125C325.291 252.751 327.568 253.619 329.303 253.836C331.364 254.161 335.592 252.86 335.918 252.751C336.568 255.137 337.436 257.522 338.52 259.908C339.062 261.209 339.713 262.619 340.363 263.92C339.93 263.378 339.604 262.835 339.604 262.835C337.978 260.992 333.857 258.39 331.364 259.474C329.52 260.233 329.086 262.402 329.954 264.028C330.821 265.655 333.098 266.522 334.833 266.739C336.677 266.956 340.255 265.98 341.231 265.763C341.448 266.305 341.773 266.739 341.99 267.281C343.182 269.775 344.484 272.16 345.568 274.546C346.002 275.413 346.327 276.281 346.652 277.148C346.327 276.606 346.002 276.172 346.002 276.172C344.375 274.329 340.255 271.727 337.761 272.811C335.918 273.57 335.484 275.739 336.351 277.365C337.219 278.992 339.496 279.859 341.231 280.076C342.966 280.293 346.327 279.425 347.411 279.1C347.737 279.967 348.062 280.835 348.387 281.702C348.604 282.353 348.821 282.895 348.929 283.437C349.146 284.088 349.255 284.63 349.471 285.281C349.797 286.473 350.014 287.666 350.23 288.75C350.447 289.509 350.556 290.268 350.664 291.027C350.23 290.16 349.471 288.533 349.363 288.425C348.062 286.365 344.375 283.22 341.773 283.871C339.93 284.305 339.062 286.365 339.713 288.1C340.363 289.943 342.423 291.027 344.158 291.57C346.11 292.112 350.23 291.57 350.773 291.57C350.989 292.871 351.206 294.063 351.423 295.256C352.182 299.268 352.616 302.629 352.833 305.015C352.833 305.449 352.941 305.774 352.941 306.208H344.809L347.411 357.278C347.628 361.182 350.773 364.218 354.676 364.218C358.58 364.218 361.724 361.182 361.941 357.278L364.543 306.208H356.953C357.062 306.099 357.062 305.991 357.17 305.882C358.254 303.714 359.664 300.569 361.182 296.774C361.724 295.581 362.158 294.28 362.7 292.979C363.242 293.088 367.362 293.955 369.314 293.521C371.049 293.088 373.218 292.112 373.977 290.377C374.736 288.642 374.085 286.582 372.242 285.931C369.639 285.064 365.736 287.991 364.326 289.943C364.218 290.051 363.459 291.353 363.025 292.22C363.242 291.678 363.459 291.136 363.676 290.594C364.11 289.509 364.435 288.317 364.869 287.124C365.085 286.582 365.194 285.931 365.411 285.281C365.628 284.738 365.736 284.088 365.844 283.437C366.17 281.919 366.495 280.51 366.712 278.992C367.688 279.317 371.158 280.51 373.001 280.401C374.844 280.293 377.013 279.642 378.097 278.016C379.073 276.498 378.748 274.221 377.013 273.353C374.627 272.16 370.29 274.438 368.555 276.064C368.447 276.172 367.362 277.582 366.82 278.341C366.929 277.474 367.146 276.498 367.254 275.63C367.579 272.919 367.796 270.209 368.121 267.498C368.23 266.631 368.338 265.871 368.338 265.004C368.664 265.112 372.784 266.631 374.844 266.522C376.687 266.414 378.856 265.763 379.94 264.137C380.916 262.619 380.591 260.342 378.856 259.474C376.471 258.281 372.133 260.558 370.398 262.185C370.29 262.293 368.664 264.245 368.338 264.787C368.555 262.944 368.772 261.101 368.989 259.366C369.423 256.872 369.856 254.486 370.507 252.209C370.615 252.318 374.953 253.836 377.013 253.727C378.856 253.619 381.025 252.968 382.109 251.342C383.085 249.824 382.76 247.547 381.025 246.679C378.639 245.487 374.302 247.764 372.567 249.39C372.459 249.499 370.724 251.667 370.507 251.992C370.507 251.884 370.615 251.667 370.615 251.559C371.374 249.173 372.35 246.896 373.435 244.836C374.085 243.643 374.736 242.559 375.386 241.475C376.145 241.908 379.724 243.535 381.567 243.643C383.41 243.752 385.687 243.318 386.88 241.8C388.073 240.39 387.964 238.113 386.338 237.029C384.061 235.511 379.507 237.354 377.663 238.872C377.555 238.981 376.579 239.848 375.928 240.607C376.254 240.173 376.579 239.631 376.796 239.198C377.88 237.463 379.073 236.053 380.049 234.644C380.591 233.885 381.133 233.234 381.675 232.583C382.651 232.583 386.446 232.475 388.073 231.716C389.699 230.957 391.542 229.547 391.976 227.704C392.844 225.644 391.759 223.692 389.808 223.584ZM359.989 295.798C358.363 299.593 356.845 302.629 355.76 304.69C355.544 305.123 355.327 305.449 355.218 305.882H355.001C355.001 305.449 354.893 305.015 354.785 304.473C354.459 302.087 353.917 298.726 353.158 294.606C352.941 293.304 352.616 292.003 352.291 290.594C352.616 290.485 354.351 289.726 355.977 288.859C357.387 290.377 360.857 292.112 361.399 292.329C360.965 293.521 360.423 294.714 359.989 295.798Z"/>
</mask>
<path d="M389.808 223.584C387.097 223.258 383.952 226.945 382.976 229.222C382.868 229.439 381.892 232.583 382.001 232.583C382.001 232.583 382.001 232.583 382.109 232.583C381.567 233.126 381.025 233.776 380.483 234.535C379.398 235.836 378.205 237.246 377.121 238.981C375.928 240.716 374.736 242.559 373.543 244.619C372.459 246.679 371.374 248.956 370.507 251.45V251.559C370.507 250.8 370.507 248.523 370.507 248.414C370.182 246.029 368.23 241.583 365.519 241.041C363.567 240.716 361.941 242.234 361.832 244.077C361.724 246.029 363.025 247.872 364.435 249.065C365.953 250.366 370.182 251.776 370.507 251.884C369.748 254.269 369.206 256.655 368.772 259.257C368.555 260.667 368.338 262.185 368.121 263.594C368.121 262.944 368.121 262.293 368.121 262.185C367.796 259.799 365.844 255.354 363.134 254.812C361.182 254.486 359.555 256.004 359.447 257.848C359.339 259.799 360.64 261.643 362.049 262.835C363.459 264.028 367.037 265.221 367.905 265.546C367.796 266.088 367.796 266.631 367.688 267.281C367.362 269.992 367.037 272.703 366.712 275.305C366.603 276.281 366.387 277.148 366.278 278.016C366.278 277.365 366.278 276.931 366.278 276.823C365.953 274.438 364.001 269.992 361.29 269.45C359.339 269.124 357.712 270.642 357.604 272.486C357.495 274.438 358.796 276.281 360.206 277.474C361.507 278.666 364.76 279.751 365.953 280.184C365.736 281.16 365.519 282.028 365.302 282.895C365.085 283.546 364.977 284.088 364.76 284.738C364.543 285.389 364.326 285.931 364.218 286.473C363.784 287.558 363.35 288.75 363.025 289.835C362.7 290.594 362.483 291.353 362.158 292.003C362.266 291.027 362.591 289.292 362.591 289.076C362.591 287.449 362.049 284.847 360.965 283.004C360.965 282.787 360.965 282.57 360.965 282.244C360.64 280.401 358.905 278.992 357.062 279.534C354.459 280.184 352.833 284.847 352.616 287.232C352.616 287.341 352.724 288.967 352.724 289.943C352.616 289.401 352.507 288.859 352.291 288.208C351.965 287.015 351.748 285.931 351.423 284.63C351.206 284.088 351.098 283.437 350.881 282.895C350.664 282.244 350.447 281.702 350.23 281.052C349.688 279.642 349.146 278.233 348.496 276.823C349.471 276.606 353.05 275.63 354.568 274.546C355.977 273.462 357.495 271.618 357.495 269.775C357.495 267.932 355.977 266.305 354.025 266.522C351.315 266.847 349.038 271.076 348.496 273.462C348.496 273.57 348.279 275.305 348.279 276.281C347.845 275.413 347.52 274.546 347.086 273.787C345.893 271.401 344.592 268.908 343.291 266.522C342.857 265.763 342.532 265.004 342.098 264.353C342.423 264.245 346.761 263.269 348.387 262.076C349.797 260.992 351.315 259.149 351.315 257.306C351.315 255.462 349.797 253.836 347.845 254.053C345.134 254.378 342.857 258.607 342.315 260.992C342.315 261.209 342.098 263.703 341.99 264.353C341.122 262.727 340.363 261.101 339.604 259.474C338.52 257.197 337.652 254.92 337.002 252.643C337.219 252.643 341.664 251.559 343.291 250.366C344.7 249.282 346.218 247.438 346.218 245.595C346.218 243.752 344.7 242.125 342.749 242.342C340.038 242.667 337.761 246.896 337.219 249.282C337.219 249.499 336.893 252.209 336.893 252.643C336.893 252.535 336.785 252.426 336.785 252.209C336.026 249.824 335.701 247.33 335.375 245.053C335.267 243.752 335.159 242.451 335.159 241.149C336.026 241.041 339.93 240.499 341.556 239.523C343.074 238.547 344.809 236.921 345.026 235.077C345.243 233.234 343.941 231.391 341.99 231.391C339.279 231.391 336.46 235.403 335.701 237.68C335.701 237.788 335.375 239.089 335.159 240.065C335.159 239.523 335.159 238.872 335.159 238.33C335.159 236.27 335.267 234.427 335.375 232.8C335.484 231.824 335.592 230.957 335.592 230.198C336.351 229.656 339.496 227.487 340.472 225.861C341.448 224.343 342.207 222.066 341.448 220.331C340.797 218.596 338.737 217.62 337.002 218.487C334.616 219.68 333.966 224.56 334.4 226.945C334.4 227.162 335.375 230.306 335.375 230.306C335.267 231.065 335.159 231.933 335.05 232.8C334.833 234.427 334.725 236.378 334.616 238.439C334.616 240.499 334.616 242.667 334.725 245.053C334.942 247.438 335.267 249.824 335.918 252.426V252.535C335.484 251.884 334.291 250.041 334.074 249.932C332.448 248.089 328.327 245.487 325.834 246.571C323.99 247.33 323.557 249.499 324.424 251.125C325.291 252.751 327.568 253.619 329.303 253.836C331.364 254.161 335.592 252.86 335.918 252.751C336.568 255.137 337.436 257.522 338.52 259.908C339.062 261.209 339.713 262.619 340.363 263.92C339.93 263.378 339.604 262.835 339.604 262.835C337.978 260.992 333.857 258.39 331.364 259.474C329.52 260.233 329.086 262.402 329.954 264.028C330.821 265.655 333.098 266.522 334.833 266.739C336.677 266.956 340.255 265.98 341.231 265.763C341.448 266.305 341.773 266.739 341.99 267.281C343.182 269.775 344.484 272.16 345.568 274.546C346.002 275.413 346.327 276.281 346.652 277.148C346.327 276.606 346.002 276.172 346.002 276.172C344.375 274.329 340.255 271.727 337.761 272.811C335.918 273.57 335.484 275.739 336.351 277.365C337.219 278.992 339.496 279.859 341.231 280.076C342.966 280.293 346.327 279.425 347.411 279.1C347.737 279.967 348.062 280.835 348.387 281.702C348.604 282.353 348.821 282.895 348.929 283.437C349.146 284.088 349.255 284.63 349.471 285.281C349.797 286.473 350.014 287.666 350.23 288.75C350.447 289.509 350.556 290.268 350.664 291.027C350.23 290.16 349.471 288.533 349.363 288.425C348.062 286.365 344.375 283.22 341.773 283.871C339.93 284.305 339.062 286.365 339.713 288.1C340.363 289.943 342.423 291.027 344.158 291.57C346.11 292.112 350.23 291.57 350.773 291.57C350.989 292.871 351.206 294.063 351.423 295.256C352.182 299.268 352.616 302.629 352.833 305.015C352.833 305.449 352.941 305.774 352.941 306.208H344.809L347.411 357.278C347.628 361.182 350.773 364.218 354.676 364.218C358.58 364.218 361.724 361.182 361.941 357.278L364.543 306.208H356.953C357.062 306.099 357.062 305.991 357.17 305.882C358.254 303.714 359.664 300.569 361.182 296.774C361.724 295.581 362.158 294.28 362.7 292.979C363.242 293.088 367.362 293.955 369.314 293.521C371.049 293.088 373.218 292.112 373.977 290.377C374.736 288.642 374.085 286.582 372.242 285.931C369.639 285.064 365.736 287.991 364.326 289.943C364.218 290.051 363.459 291.353 363.025 292.22C363.242 291.678 363.459 291.136 363.676 290.594C364.11 289.509 364.435 288.317 364.869 287.124C365.085 286.582 365.194 285.931 365.411 285.281C365.628 284.738 365.736 284.088 365.844 283.437C366.17 281.919 366.495 280.51 366.712 278.992C367.688 279.317 371.158 280.51 373.001 280.401C374.844 280.293 377.013 279.642 378.097 278.016C379.073 276.498 378.748 274.221 377.013 273.353C374.627 272.16 370.29 274.438 368.555 276.064C368.447 276.172 367.362 277.582 366.82 278.341C366.929 277.474 367.146 276.498 367.254 275.63C367.579 272.919 367.796 270.209 368.121 267.498C368.23 266.631 368.338 265.871 368.338 265.004C368.664 265.112 372.784 266.631 374.844 266.522C376.687 266.414 378.856 265.763 379.94 264.137C380.916 262.619 380.591 260.342 378.856 259.474C376.471 258.281 372.133 260.558 370.398 262.185C370.29 262.293 368.664 264.245 368.338 264.787C368.555 262.944 368.772 261.101 368.989 259.366C369.423 256.872 369.856 254.486 370.507 252.209C370.615 252.318 374.953 253.836 377.013 253.727C378.856 253.619 381.025 252.968 382.109 251.342C383.085 249.824 382.76 247.547 381.025 246.679C378.639 245.487 374.302 247.764 372.567 249.39C372.459 249.499 370.724 251.667 370.507 251.992C370.507 251.884 370.615 251.667 370.615 251.559C371.374 249.173 372.35 246.896 373.435 244.836C374.085 243.643 374.736 242.559 375.386 241.475C376.145 241.908 379.724 243.535 381.567 243.643C383.41 243.752 385.687 243.318 386.88 241.8C388.073 240.39 387.964 238.113 386.338 237.029C384.061 235.511 379.507 237.354 377.663 238.872C377.555 238.981 376.579 239.848 375.928 240.607C376.254 240.173 376.579 239.631 376.796 239.198C377.88 237.463 379.073 236.053 380.049 234.644C380.591 233.885 381.133 233.234 381.675 232.583C382.651 232.583 386.446 232.475 388.073 231.716C389.699 230.957 391.542 229.547 391.976 227.704C392.844 225.644 391.759 223.692 389.808 223.584ZM359.989 295.798C358.363 299.593 356.845 302.629 355.76 304.69C355.544 305.123 355.327 305.449 355.218 305.882H355.001C355.001 305.449 354.893 305.015 354.785 304.473C354.459 302.087 353.917 298.726 353.158 294.606C352.941 293.304 352.616 292.003 352.291 290.594C352.616 290.485 354.351 289.726 355.977 288.859C357.387 290.377 360.857 292.112 361.399 292.329C360.965 293.521 360.423 294.714 359.989 295.798Z" fill="#263238" stroke="#263238" stroke-width="2" mask="url(#path-118-inside-1)"/>
<path d="M375.603 240.716C375.603 240.716 376.471 237.571 376.471 237.354C376.796 234.969 376.037 230.089 373.651 229.005C371.917 228.138 369.965 229.222 369.314 230.957C368.664 232.8 369.531 234.969 370.507 236.487C371.591 238.222 375.603 240.716 375.603 240.716Z" fill="#263238"/>
<circle cx="51" cy="194" r="17" fill="#136AFB" stroke="#263238"/>
<circle cx="51" cy="194" r="14.3158" fill="white" stroke="#263238"/>
<circle cx="51" cy="194" r="14.3158" fill="white" stroke="#263238"/>
<path fill-rule="evenodd" clip-rule="evenodd" d="M64.9851 197.073C65.2008 196.087 65.3148 195.063 65.3158 194.013V193.987C65.3131 191.006 64.3994 188.238 62.8379 185.947H39.162C37.5983 188.242 36.6842 191.014 36.6842 194C36.6842 195.055 36.7983 196.083 37.0149 197.073C43.3447 197.105 48.5289 201.981 49.0484 208.184C49.6865 208.271 50.338 208.316 51 208.316C51.662 208.316 52.3135 208.271 52.9516 208.184C53.4711 201.981 58.6553 197.105 64.9851 197.073Z" fill="#136AFB"/>
<path d="M65.3158 194.013L65.8158 194.013V194.013H65.3158ZM64.9851 197.073L64.9875 197.573L65.388 197.571L65.4735 197.18L64.9851 197.073ZM65.3158 193.987H65.8158V193.987L65.3158 193.987ZM62.8379 185.947L63.2511 185.666L63.1023 185.447H62.8379V185.947ZM39.162 185.947V185.447H38.8977L38.7489 185.666L39.162 185.947ZM37.0149 197.073L36.5265 197.18L36.612 197.571L37.0124 197.573L37.0149 197.073ZM49.0484 208.184L48.5501 208.226L48.5836 208.625L48.9809 208.679L49.0484 208.184ZM52.9516 208.184L53.0191 208.679L53.4164 208.625L53.4498 208.226L52.9516 208.184ZM64.8158 194.012C64.8149 195.027 64.7047 196.015 64.4966 196.967L65.4735 197.18C65.6968 196.16 65.8148 195.1 65.8158 194.013L64.8158 194.012ZM64.8158 193.987V194.013H65.8158V193.987H64.8158ZM62.4248 186.229C63.9315 188.44 64.8132 191.11 64.8158 193.988L65.8158 193.987C65.813 190.902 64.8672 188.037 63.2511 185.666L62.4248 186.229ZM39.162 186.447H62.8379V185.447H39.162V186.447ZM37.1842 194C37.1842 191.118 38.0663 188.443 39.5752 186.229L38.7489 185.666C37.1304 188.04 36.1842 190.91 36.1842 194H37.1842ZM37.5034 196.967C37.2944 196.011 37.1842 195.019 37.1842 194H36.1842C36.1842 195.091 36.3022 196.155 36.5265 197.18L37.5034 196.967ZM49.5467 208.142C49.0057 201.683 43.6082 196.606 37.0174 196.573L37.0124 197.573C43.0812 197.603 48.0521 202.279 48.5501 208.226L49.5467 208.142ZM51 207.816C50.3607 207.816 49.7317 207.772 49.1159 207.688L48.9809 208.679C49.6413 208.769 50.3154 208.816 51 208.816V207.816ZM52.884 207.688C52.2683 207.772 51.6393 207.816 51 207.816V208.816C51.6846 208.816 52.3587 208.769 53.0191 208.679L52.884 207.688ZM64.9826 196.573C58.3918 196.606 52.9943 201.683 52.4533 208.142L53.4498 208.226C53.9479 202.279 58.9188 197.603 64.9875 197.573L64.9826 196.573Z" fill="#263238"/>
<circle cx="51" cy="194" r="3.57895" fill="white" stroke="#263238"/>
</svg>
