<svg width="320" height="320" viewBox="0 0 320 320" fill="none" xmlns="http://www.w3.org/2000/svg">
<g clip-path="url(#clip0)">
<path d="M284.183 249.581C284.183 249.581 320 218.173 320 176.702C320 135.231 296.772 135.231 276.629 81.8293C256.487 28.4278 199.31 21.5295 164.711 38.4913C135.391 52.8561 127.025 96.2752 101.848 104.472C76.67 112.669 74.1523 92.542 33.9492 103.255C-6.25381 113.967 14.4568 172.319 14.4568 172.319L92.4264 148.459L284.183 249.581Z" fill="#136AFB"/>
<path opacity="0.9" d="M284.183 249.581C284.183 249.581 320 218.173 320 176.702C320 135.231 296.772 135.231 276.629 81.8293C256.487 28.4278 199.31 21.5295 164.711 38.4913C135.391 52.8561 127.025 96.2752 101.848 104.472C76.67 112.669 74.1523 92.542 33.9492 103.255C-6.25381 113.967 14.4568 172.319 14.4568 172.319L92.4264 148.459L284.183 249.581Z" fill="white"/>
<path d="M145.218 249.5L91.1269 271.169L28.264 208.353L69.4416 202.429L145.218 249.5Z" fill="#136AFB"/>
<path opacity="0.5" d="M145.218 249.5L91.1269 271.169L28.264 208.353L69.4416 202.429L145.218 249.5Z" fill="white"/>
<path d="M211.817 278.23C218.994 278.23 224.812 274.342 224.812 269.546C224.812 264.75 218.994 260.862 211.817 260.862C204.64 260.862 198.822 264.75 198.822 269.546C198.822 274.342 204.64 278.23 211.817 278.23Z" fill="#136AFB"/>
<path opacity="0.5" d="M211.817 278.23C218.994 278.23 224.812 274.342 224.812 269.546C224.812 264.75 218.994 260.862 211.817 260.862C204.64 260.862 198.822 264.75 198.822 269.546C198.822 274.342 204.64 278.23 211.817 278.23Z" fill="white"/>
<path d="M160.975 220.365L240.244 226.614L222.701 217.605L160.975 220.365Z" fill="#136AFB"/>
<path opacity="0.5" d="M160.975 220.365L240.244 226.614L222.701 217.605L160.975 220.365Z" fill="white"/>
<path d="M178.843 195.936L155.289 193.988L158.213 190.499H171.777L178.843 195.936Z" fill="#136AFB"/>
<path opacity="0.5" d="M178.843 195.936L155.289 193.988L158.213 190.499H171.777L178.843 195.936Z" fill="white"/>
<path d="M255.107 289.754C264.212 289.754 271.594 285.285 271.594 279.772C271.594 274.259 264.212 269.789 255.107 269.789C246.001 269.789 238.619 274.259 238.619 279.772C238.619 285.285 246.001 289.754 255.107 289.754Z" fill="#136AFB"/>
<path opacity="0.5" d="M255.107 289.754C264.212 289.754 271.594 285.285 271.594 279.772C271.594 274.259 264.212 269.789 255.107 269.789C246.001 269.789 238.619 274.259 238.619 279.772C238.619 285.285 246.001 289.754 255.107 289.754Z" fill="white"/>
<path d="M157.32 256.561L148.386 271.169L168.122 274.983L175.756 260.375L157.32 256.561Z" fill="white" stroke="#263238" stroke-miterlimit="10" stroke-linecap="round" stroke-linejoin="round"/>
<path d="M172.508 240.086L163.655 253.395L182.091 259.076L189.726 245.767L172.508 240.086Z" fill="#136AFB"/>
<path opacity="0.5" d="M172.508 240.086L163.655 253.395L182.091 259.076L189.726 245.767L172.508 240.086Z" fill="white" stroke="#263238" stroke-miterlimit="10"/>
<path d="M172.508 240.086L163.655 253.395L182.091 259.076L189.726 245.767L172.508 240.086Z" stroke="#263238" stroke-miterlimit="10" stroke-linecap="round" stroke-linejoin="round"/>
<path d="M192.244 265.488L176.325 269.87L182.741 280.096L201.096 275.633L192.244 265.488Z" fill="#136AFB" stroke="#263238" stroke-miterlimit="10" stroke-linecap="round" stroke-linejoin="round"/>
<path d="M237.563 262.891L239.269 275.227C239.269 280.34 245.523 284.479 253.157 284.479C260.792 284.479 267.046 280.34 267.046 275.227L268.751 262.891H237.563Z" fill="#136AFB" stroke="#263238" stroke-miterlimit="10" stroke-linecap="round" stroke-linejoin="round"/>
<path d="M253.076 273.279C261.688 273.279 268.67 268.628 268.67 262.891C268.67 257.154 261.688 252.503 253.076 252.503C244.464 252.503 237.482 257.154 237.482 262.891C237.482 268.628 244.464 273.279 253.076 273.279Z" fill="#136AFB" stroke="#263238" stroke-miterlimit="10" stroke-linecap="round" stroke-linejoin="round"/>
<path d="M253.076 271.737C260.388 271.737 266.315 267.777 266.315 262.891C266.315 258.005 260.388 254.045 253.076 254.045C245.765 254.045 239.838 258.005 239.838 262.891C239.838 267.777 245.765 271.737 253.076 271.737Z" fill="#136AFB" stroke="#263238" stroke-miterlimit="10" stroke-linecap="round" stroke-linejoin="round"/>
<path d="M253.076 271.656C260.253 271.656 266.071 268.422 266.071 264.433C266.071 260.444 260.253 257.21 253.076 257.21C245.899 257.21 240.081 260.444 240.081 264.433C240.081 268.422 245.899 271.656 253.076 271.656Z" fill="#263238" stroke="#263238" stroke-miterlimit="10" stroke-linecap="round" stroke-linejoin="round"/>
<path d="M257.787 239.193C255.513 237.732 252.102 237.895 250.721 240.573C248.69 244.468 250.152 251.772 249.421 252.746C248.69 253.801 246.497 254.045 245.523 251.854C244.467 249.662 244.467 246.741 243.167 246.659C241.868 246.497 240.081 247.065 239.838 250.393C239.513 253.72 240.162 257.535 242.437 259.239C244.792 260.943 247.391 260.375 248.122 261.105C248.772 261.755 248.122 262.972 248.122 263.702C248.122 266.949 252.345 268.572 255.025 267.76C258.924 266.624 258.518 262.647 259.086 261.105C259.655 259.482 262.822 259.401 264.041 256.885C265.178 254.451 266.964 249.5 264.447 247.633C262.01 245.767 260.061 246.578 259.817 248.688C259.492 250.717 258.193 253.314 258.193 253.314C259.98 249.906 261.685 241.709 257.787 239.193Z" fill="#136AFB"/>
<path opacity="0.2" d="M257.787 239.193C255.513 237.732 252.102 237.895 250.721 240.573C248.69 244.468 250.152 251.772 249.421 252.746C248.69 253.801 246.497 254.045 245.523 251.854C244.467 249.662 244.467 246.741 243.167 246.659C241.868 246.497 240.081 247.065 239.838 250.393C239.513 253.72 240.162 257.535 242.437 259.239C244.792 260.943 247.391 260.375 248.122 261.105C248.772 261.755 248.122 262.972 248.122 263.702C248.122 266.949 252.345 268.572 255.025 267.76C258.924 266.624 258.518 262.647 259.086 261.105C259.655 259.482 262.822 259.401 264.041 256.885C265.178 254.451 266.964 249.5 264.447 247.633C262.01 245.767 260.061 246.578 259.817 248.688C259.492 250.717 258.193 253.314 258.193 253.314C259.98 249.906 261.685 241.709 257.787 239.193Z" fill="#263238"/>
<path d="M257.787 239.193C255.513 237.732 252.102 237.895 250.721 240.573C248.69 244.468 250.152 251.772 249.421 252.746C248.69 253.801 246.497 254.045 245.523 251.854C244.467 249.662 244.467 246.741 243.167 246.659C241.868 246.497 240.081 247.065 239.838 250.393C239.513 253.72 240.162 257.535 242.437 259.239C244.792 260.943 247.391 260.375 248.122 261.105C248.772 261.755 248.122 262.972 248.122 263.702C248.122 266.949 252.345 268.572 255.025 267.76C258.924 266.624 258.518 262.647 259.086 261.105C259.655 259.482 262.822 259.401 264.041 256.885C265.178 254.451 266.964 249.5 264.447 247.633C262.01 245.767 260.061 246.578 259.817 248.688C259.492 250.717 258.193 253.314 258.193 253.314C259.98 249.906 261.685 241.709 257.787 239.193Z" stroke="#263238" stroke-miterlimit="10" stroke-linecap="round" stroke-linejoin="round"/>
<path d="M254.213 240.248C254.213 240.248 252.02 241.547 251.858 244.144C251.695 246.741 251.858 255.019 250.802 256.155C249.746 257.291 246.416 257.048 244.305 255.019C242.112 252.99 243.168 248.607 243.168 248.607" stroke="#263238" stroke-width="0.5" stroke-miterlimit="10" stroke-linecap="round" stroke-linejoin="round"/>
<path d="M243.817 257.616C244.467 258.103 245.36 258.59 246.335 258.833C248.934 259.401 250.802 258.103 251.289 259.401C251.695 260.7 250.883 265.326 250.883 265.326" stroke="#263238" stroke-width="0.5" stroke-miterlimit="10" stroke-linecap="round" stroke-linejoin="round"/>
<path d="M242.274 256.074C242.274 256.074 242.599 256.561 243.167 257.129" stroke="#263238" stroke-width="0.5" stroke-miterlimit="10" stroke-linecap="round" stroke-linejoin="round"/>
<path d="M254.132 262.972C254.213 260.943 254.294 258.346 254.213 256.48C253.97 253.233 255.432 247.228 255.838 244.468" stroke="#263238" stroke-width="0.5" stroke-miterlimit="10" stroke-linecap="round" stroke-linejoin="round"/>
<path d="M253.888 266.381C253.888 266.381 253.97 265.488 254.051 264.189" stroke="#263238" stroke-width="0.5" stroke-miterlimit="10" stroke-linecap="round" stroke-linejoin="round"/>
<path d="M263.959 251.853C264.041 251.123 264.041 250.717 264.041 250.717" stroke="#263238" stroke-width="0.5" stroke-miterlimit="10" stroke-linecap="round" stroke-linejoin="round"/>
<path d="M257.137 263.784C257.137 263.784 257.706 258.995 258.843 258.103C259.98 257.21 263.31 256.642 263.635 254.451C263.716 254.126 263.716 253.801 263.797 253.477" stroke="#263238" stroke-width="0.5" stroke-miterlimit="10" stroke-linecap="round" stroke-linejoin="round"/>
<path d="M262.01 248.851C262.01 248.851 261.117 249.256 261.117 250.717C261.117 252.178 260.711 254.045 258.761 255.1" stroke="#263238" stroke-width="0.5" stroke-miterlimit="10" stroke-linecap="round" stroke-linejoin="round"/>
<path d="M256 242.845C256.081 241.303 255.919 240.41 255.919 240.41" stroke="#263238" stroke-width="0.5" stroke-miterlimit="10" stroke-linecap="round" stroke-linejoin="round"/>
<path d="M200.69 239.68L202.883 262.323V264.757C202.883 268.004 207.431 270.601 213.117 270.601C218.721 270.601 223.35 268.004 223.35 264.757V262.323L225.299 239.436L200.69 239.68Z" fill="white" stroke="#263238" stroke-miterlimit="10" stroke-linecap="round" stroke-linejoin="round"/>
<path d="M223.35 261.024L224.487 247.877C222.944 250.23 218.396 251.935 213.036 251.935C207.431 251.935 202.64 250.068 201.421 247.471L202.721 260.943C204.832 262.647 208.65 263.865 213.036 263.865C217.421 263.946 221.239 262.81 223.35 261.024Z" fill="#136AFB" stroke="#263238" stroke-miterlimit="10" stroke-linecap="round" stroke-linejoin="round"/>
<path d="M201.096 243.9V243.738L201.015 242.845L201.096 243.9Z" fill="white" stroke="#263238" stroke-miterlimit="10" stroke-linecap="round" stroke-linejoin="round"/>
<path d="M225.543 236.271C223.35 233.512 218.558 231.645 212.954 231.645C207.35 231.645 202.558 233.512 200.365 236.271H199.147V239.518C199.147 243.9 205.32 247.39 212.954 247.39C220.589 247.39 226.761 243.9 226.761 239.518V236.271H225.543Z" fill="#136AFB" stroke="#263238" stroke-miterlimit="10" stroke-linecap="round" stroke-linejoin="round"/>
<path opacity="0.2" d="M225.543 236.271C223.35 233.512 218.558 231.645 212.954 231.645C207.35 231.645 202.558 233.512 200.365 236.271H199.147V239.518C199.147 243.9 205.32 247.39 212.954 247.39C220.589 247.39 226.761 243.9 226.761 239.518V236.271H225.543Z" fill="#263238"/>
<path d="M213.035 244.144C220.661 244.144 226.843 240.619 226.843 236.271C226.843 231.924 220.661 228.399 213.035 228.399C205.41 228.399 199.228 231.924 199.228 236.271C199.228 240.619 205.41 244.144 213.035 244.144Z" fill="white" stroke="#263238" stroke-miterlimit="10" stroke-linecap="round" stroke-linejoin="round"/>
<path d="M224 231.889C222.132 229.535 217.909 227.831 213.036 227.831C208.162 227.831 203.939 229.454 202.071 231.889H201.015V234.729C201.015 238.544 206.376 241.628 213.036 241.628C219.695 241.628 225.056 238.544 225.056 234.729V231.889H224Z" fill="#136AFB" stroke="#263238" stroke-miterlimit="10" stroke-linecap="round" stroke-linejoin="round"/>
<path d="M213.036 238.787C219.674 238.787 225.056 235.699 225.056 231.889C225.056 228.079 219.674 224.99 213.036 224.99C206.397 224.99 201.015 228.079 201.015 231.889C201.015 235.699 206.397 238.787 213.036 238.787Z" fill="white" stroke="#263238" stroke-miterlimit="10" stroke-linecap="round" stroke-linejoin="round"/>
<path d="M91.533 165.178C91.533 165.178 92.5076 164.528 98.4365 167.044C104.447 169.56 106.802 168.992 112.569 168.018C119.553 166.801 125.32 165.583 126.051 168.424C127.269 173.293 122.396 173.212 113.543 174.186C104.772 175.16 99.6548 172.482 96.8122 171.183C93.9695 169.966 93.0761 169.317 93.0761 169.317L91.533 165.178Z" fill="white" stroke="#263238" stroke-miterlimit="10" stroke-linecap="round" stroke-linejoin="round"/>
<path d="M78.0508 167.694C78.0508 167.694 85.9289 176.783 89.3401 174.267C92.8325 171.751 92.5076 163.555 89.3401 161.039C86.1726 158.523 77.401 163.23 78.0508 167.694Z" fill="white" stroke="#263238" stroke-miterlimit="10" stroke-linecap="round" stroke-linejoin="round"/>
<path d="M101.929 142.535C101.929 142.535 102.254 150.975 100.061 156.656C97.868 162.337 93.8071 166.07 93.1574 169.236C92.5076 172.401 92.8325 176.783 89.665 178.001C86.4975 179.218 86.4975 177.027 86.8223 174.511C87.1472 171.995 87.797 162.581 87.797 162.581L77.401 168.83C77.401 168.83 80.2437 176.702 74.2335 177.595C68.2234 178.487 61.0762 169.56 60.1015 162.662C59.1269 155.763 62.9442 140.344 69.5228 136.286C76.1015 132.228 84.6294 132.796 89.0152 132.796C93.401 132.796 100.061 135.961 101.929 142.535Z" fill="white" stroke="#263238" stroke-miterlimit="10" stroke-linecap="round" stroke-linejoin="round"/>
<path d="M76.8325 133.851C76.8325 133.851 75.2081 134.663 72.3655 139.126C69.5228 143.59 75.2081 147.404 78.2132 145.375C81.2183 143.346 78.6193 139.126 80.8122 137.097C83.0051 135.068 83.2487 132.877 83.2487 132.877L76.8325 133.851Z" fill="#263238"/>
<path d="M67.736 140.1C67.736 140.1 65.2995 141.723 65.1371 144.564C64.9746 147.404 70.0102 142.129 70.5787 139.694C71.2284 137.26 67.736 140.1 67.736 140.1Z" fill="#263238"/>
<path d="M85.8477 133.77C85.8477 133.77 83.3299 137.828 86.1726 142.21C89.0152 146.593 95.269 148.459 97.7868 145.375C100.305 142.291 101.279 140.668 100.305 139.126C99.4112 137.503 90.3147 131.254 85.8477 133.77Z" fill="#136AFB" stroke="#263238" stroke-miterlimit="10" stroke-linecap="round" stroke-linejoin="round"/>
<path d="M109.157 118.35C109.157 118.35 105.665 118.999 102.579 116.159C99.4112 113.318 96.5685 107.069 95.3503 107.394C94.132 107.718 89.665 116.808 89.665 116.808C89.665 116.808 82.1117 117.457 81.4619 119.649C80.8122 121.84 84.3046 132.228 87.1472 136.61C89.9899 140.993 95.3503 143.184 99.0863 143.184C102.822 143.184 114.193 144.158 115.736 140.344C117.279 136.61 116.061 125.248 116.061 125.248C116.061 125.248 121.096 120.217 118.904 119.243C116.711 118.35 109.157 118.35 109.157 118.35Z" fill="white" stroke="#263238" stroke-miterlimit="10" stroke-linecap="round" stroke-linejoin="round"/>
<path d="M107.614 134.094C107.208 133.608 106.883 133.121 106.477 132.552C105.909 131.66 104.447 130.361 101.766 131.173C97.9492 132.39 95.269 136.042 99.5736 139.045C103.635 141.967 111.675 139.37 107.614 134.094Z" fill="#263238"/>
<path d="M89.665 116.808C89.665 116.808 94.0508 119.324 96.5685 118.35C99.0863 117.376 97.5431 106.745 95.3502 107.394C93.1574 108.043 89.3401 112.669 89.665 116.808Z" fill="white" stroke="#263238" stroke-miterlimit="10" stroke-linecap="round" stroke-linejoin="round"/>
<path d="M118.904 119.324C118.904 119.324 114.843 118.999 112.325 121.84C109.807 124.68 111.35 127.521 114.843 128.089C118.254 128.738 120.122 119.324 118.904 119.324Z" fill="white" stroke="#263238" stroke-miterlimit="10" stroke-linecap="round" stroke-linejoin="round"/>
<path d="M94.3756 136.854C94.3756 136.854 90.3147 133.689 91.2081 136.205C92.1827 138.72 93.7259 139.045 95.269 138.396C96.8934 137.828 94.3756 136.854 94.3756 136.854Z" fill="#136AFB" stroke="#263238" stroke-miterlimit="10" stroke-linecap="round" stroke-linejoin="round"/>
<path d="M92.1015 128.982C91.8579 129.793 91.2081 130.361 90.6396 130.199C90.0711 130.037 89.7462 129.225 89.9899 128.414C90.2335 127.602 90.8833 127.034 91.4518 127.196C92.1015 127.358 92.3452 128.17 92.1015 128.982Z" fill="#263238"/>
<path d="M101.848 136.448C101.117 136.854 100.223 136.854 99.8985 136.286C99.5736 135.799 99.9797 134.987 100.711 134.581C101.442 134.176 102.335 134.176 102.66 134.744C102.904 135.231 102.579 135.961 101.848 136.448Z" fill="white"/>
<path d="M73.665 156.332C73.665 156.332 72.6904 163.23 73.9899 166.07C75.2081 168.911 76.5076 179.542 79.0254 179.867C81.5432 180.192 80.5685 174.186 80.5685 173.293C80.5685 172.401 80.8934 162.337 80.8934 162.337C80.8934 162.337 83.0863 157.63 84.3858 155.114" fill="white"/>
<path d="M73.665 156.332C73.665 156.332 72.6904 163.23 73.9899 166.07C75.2081 168.911 76.5076 179.542 79.0254 179.867C81.5432 180.192 80.5685 174.186 80.5685 173.293C80.5685 172.401 80.8934 162.337 80.8934 162.337C80.8934 162.337 83.0863 157.63 84.3858 155.114" stroke="#263238" stroke-miterlimit="10" stroke-linecap="round" stroke-linejoin="round"/>
<path d="M63.269 156.007C63.269 156.007 71.7157 153.491 72.6904 162.905" stroke="#263238" stroke-miterlimit="10" stroke-linecap="round" stroke-linejoin="round"/>
<path d="M87.797 162.662C87.797 162.662 95.0254 158.929 95.3503 150.732" stroke="#263238" stroke-miterlimit="10" stroke-linecap="round" stroke-linejoin="round"/>
<path d="M0.405792 175.485L5.7662 174.267" stroke="#263238" stroke-miterlimit="10" stroke-linecap="round" stroke-linejoin="round"/>
<path d="M288.65 251.935L281.665 248.283" stroke="#263238" stroke-miterlimit="10" stroke-linecap="round" stroke-linejoin="round"/>
<path d="M8.77158 173.618L29.6447 168.911" stroke="#263238" stroke-miterlimit="10" stroke-linecap="round" stroke-linejoin="round"/>
<path d="M277.36 246.01L106.883 156.981" stroke="#263238" stroke-miterlimit="10" stroke-linecap="round" stroke-linejoin="round"/>
<path d="M44.9949 207.055L88.1218 194.8C89.5026 194.638 90.8833 194.962 92.0203 195.774L162.274 240.654C163.655 241.547 163.168 243.657 161.543 243.819L102.497 262.161L44.9949 207.055Z" fill="#136AFB" stroke="#263238" stroke-miterlimit="10" stroke-linecap="round" stroke-linejoin="round"/>
<path d="M70.335 209.652L76.4264 213.872L83.4924 211.843L77.401 207.623L70.335 209.652Z" fill="#263238"/>
<path d="M74.1523 221.42L67.9797 217.199L60.9137 219.228L67.0863 223.449L74.1523 221.42Z" fill="#263238"/>
<path d="M85.6853 212.249L91.7767 216.469L98.8426 214.44L92.7513 210.22L85.6853 212.249Z" fill="#263238"/>
<path d="M92.8325 217.118L98.9239 221.339L105.99 219.31L99.8985 215.171L92.8325 217.118Z" fill="#263238"/>
<path d="M77.401 214.521L83.5736 218.741L90.6396 216.794L84.467 212.573L77.401 214.521Z" fill="#263238"/>
<path d="M62.0508 212.005L68.1421 216.226L75.2081 214.197L69.1168 209.977L62.0508 212.005Z" fill="#263238"/>
<path d="M110.863 238.706L104.69 234.486L97.6244 236.515L103.797 240.735L110.863 238.706Z" fill="#263238"/>
<path d="M102.579 241.06L96.4873 236.839L89.4213 238.787L95.5127 243.007L102.579 241.06Z" fill="#263238"/>
<path d="M81.2183 226.289L75.1269 222.15L68.0609 224.098L74.1523 228.318L81.2183 226.289Z" fill="#263238"/>
<path d="M117.929 243.576L111.838 239.437L104.772 241.384L110.863 245.604L117.929 243.576Z" fill="#263238"/>
<path d="M88.3655 231.24L82.2741 227.019L75.2081 229.048L81.2995 233.187L88.3655 231.24Z" fill="#263238"/>
<path d="M95.5127 236.109L89.3401 231.889L82.2741 233.918L88.4467 238.138L95.5127 236.109Z" fill="#263238"/>
<path d="M99.8985 222.069L105.99 226.208L113.056 224.26L106.964 220.04L99.8985 222.069Z" fill="#263238"/>
<path d="M69.198 216.875L75.2893 221.095L82.3553 219.066L76.264 214.927L69.198 216.875Z" fill="#263238"/>
<path d="M126.213 241.303L120.122 237.083L113.056 239.031L119.147 243.251L126.213 241.303Z" fill="#263238"/>
<path d="M104.853 226.614L98.7614 222.393L91.6954 224.341L97.7868 228.561L104.853 226.614Z" fill="#263238"/>
<path d="M89.5025 224.017L83.4112 219.796L76.3452 221.825L82.4366 225.964L89.5025 224.017Z" fill="#263238"/>
<path d="M59.8579 211.6L56.2843 209.165L51.4924 210.545L54.335 213.223L59.8579 211.6Z" fill="#263238"/>
<path d="M67.0051 216.55L60.9137 212.33L55.066 213.953L59.8579 218.498H59.9391L67.0051 216.55Z" fill="#263238"/>
<path d="M84.5482 219.472L90.6396 223.692L97.7056 221.663L91.6142 217.443L84.5482 219.472Z" fill="#263238"/>
<path d="M96.5685 228.886L90.4772 224.666L83.4112 226.695L89.5025 230.915L96.5685 228.886Z" fill="#263238"/>
<path d="M127.35 234.08L121.178 229.86L114.112 231.808L120.284 236.028L127.35 234.08Z" fill="#263238"/>
<path d="M107.046 226.938L113.137 231.158L120.203 229.13L114.112 224.909L107.046 226.938Z" fill="#263238"/>
<path d="M119.066 236.353L112.975 232.132L105.909 234.161L112 238.381L119.066 236.353Z" fill="#263238"/>
<path d="M112 231.483L105.827 227.263L98.7614 229.292L104.934 233.431L112 231.483Z" fill="#263238"/>
<path d="M103.716 233.837L97.6244 229.616L90.5584 231.564L96.6498 235.784L103.716 233.837Z" fill="#263238"/>
<path d="M73.0152 228.643L66.8427 224.422L66.3553 224.585L71.1472 229.211L73.0152 228.643Z" fill="#263238"/>
<path d="M127.188 241.952L120.122 243.981L127.431 249.013L134.335 246.903L127.188 241.952Z" fill="#263238"/>
<path d="M118.985 244.306L111.919 246.335L119.472 251.529L126.294 249.338L118.985 244.306Z" fill="#263238"/>
<path d="M87.2284 238.463L81.1371 234.242L77.5634 235.216L82.3553 239.842L87.2284 238.463Z" fill="#263238"/>
<path d="M134.416 238.95L128.325 234.729L121.259 236.758L127.35 240.978L134.416 238.95Z" fill="#263238"/>
<path d="M94.3756 243.332L88.203 239.193L83.1675 240.573L88.0406 245.117L94.3756 243.332Z" fill="#263238"/>
<path d="M101.442 248.283L95.3503 244.062L88.7716 245.929L93.6447 250.474L101.442 248.283Z" fill="#263238"/>
<path d="M109.726 245.929L103.635 241.709L96.5685 243.738L102.66 247.958L109.726 245.929Z" fill="#263238"/>
<path d="M149.604 239.355L145.543 236.839L136.609 239.355L143.513 244.144L148.873 242.52C150.497 242.196 150.985 240.167 149.604 239.355Z" fill="#263238"/>
<path d="M102.497 248.932L94.4569 251.204L100.792 257.21L110.213 254.288L102.497 248.932Z" fill="#263238"/>
<path d="M137.99 232.051L129.543 234.405L135.635 238.625L144.487 236.109L137.99 232.051Z" fill="#263238"/>
<path d="M135.472 239.68L128.406 241.628L135.472 246.578L142.376 244.387L135.472 239.68Z" fill="#263238"/>
<path d="M85.7665 204.295L91.6142 202.672L87.8782 200.319L82.2741 201.861L85.7665 204.295Z" fill="#263238"/>
<path d="M118.254 251.854L110.701 246.659L103.635 248.607L111.431 253.964L118.254 251.854Z" fill="#263238"/>
<path d="M86.8223 205.026L92.9137 209.246L99.1675 207.461L92.67 203.322L86.8223 205.026Z" fill="#263238"/>
<path d="M101.036 214.765L107.127 218.985L114.274 217.037L107.777 212.898L101.036 214.765Z" fill="#263238"/>
<path d="M93.8883 209.895L100.061 214.115L106.721 212.249L100.223 208.11L93.8883 209.895Z" fill="#263238"/>
<path d="M108.183 219.715L114.274 223.936L121.827 221.744L115.33 217.686L108.183 219.715Z" fill="#263238"/>
<path d="M115.249 224.585L121.421 228.805L129.381 226.533L122.883 222.475L115.249 224.585Z" fill="#263238"/>
<path d="M130.437 227.263L122.396 229.535L128.487 233.756L136.934 231.321L130.437 227.263Z" fill="#263238"/>
<path d="M78.5381 207.298L84.6295 211.518L91.6954 209.571L85.6041 205.351L78.5381 207.298Z" fill="#263238"/>
<path d="M64.3249 222.637L65.5432 223.854L65.868 223.773L64.3249 222.637Z" fill="#263238"/>
<path d="M61.0761 211.275L68.1421 209.327L64.5685 206.811L57.5025 208.84L61.0761 211.275Z" fill="#263238"/>
<path d="M69.2792 208.921L76.3452 206.974L72.8528 204.539L65.7868 206.487L69.2792 208.921Z" fill="#263238"/>
<path d="M73.9899 204.214L77.5635 206.649L84.6295 204.62L81.0559 202.185L73.9899 204.214Z" fill="#263238"/>
<path d="M80.0812 233.593L73.9899 229.373L71.9594 229.941L76.7513 234.486L80.0812 233.593Z" fill="#263238"/>
<path d="M102.579 262.161L83.8985 186.603C83.4924 184.899 82.5178 183.357 81.2995 182.14L30.9442 135.231C29.9696 134.338 28.3452 135.231 28.6701 136.529L45.0762 207.055L102.579 262.161Z" fill="#136AFB" stroke="#263238" stroke-miterlimit="10" stroke-linecap="round" stroke-linejoin="round"/>
<path d="M74.3147 179.056L80.0812 184.087C80.0812 184.087 81.868 184.412 83.6548 193.42" stroke="#263238" stroke-width="0.5" stroke-miterlimit="10" stroke-linecap="round" stroke-linejoin="round"/>
<path d="M84.7107 198.128L95.3503 244.062" stroke="#263238" stroke-width="0.5" stroke-miterlimit="10" stroke-linecap="round" stroke-linejoin="round"/>
<path d="M65.2922 194.077C66.5917 197.242 66.0232 200.407 64.0739 201.219C62.1247 202.03 59.5257 200.164 58.2262 196.999C56.9267 193.833 57.4952 190.668 59.4445 189.857C61.3937 189.045 63.9927 190.912 65.2922 194.077Z" fill="#263238"/>
<path d="M62.612 199.352C61.3937 199.352 60.0942 198.216 59.3633 196.512C58.9572 195.538 58.7947 194.564 58.9572 193.671C59.1196 192.697 59.6069 192.048 60.2567 191.805C61.6374 191.236 63.4242 192.454 64.2364 194.483C65.1298 196.593 64.7237 198.622 63.343 199.19C63.0993 199.271 62.8556 199.352 62.612 199.352ZM60.9876 192.454C60.8252 192.454 60.744 192.454 60.5815 192.535C60.1754 192.697 59.8506 193.184 59.7694 193.833C59.6881 194.564 59.7694 195.375 60.0942 196.187C60.744 197.81 62.1247 198.865 63.0181 198.459C63.9115 198.054 64.1551 196.431 63.5054 194.807C62.9369 193.428 61.7998 192.454 60.9876 192.454Z" fill="#136AFB"/>
<g opacity="0.5">
<path opacity="0.5" d="M62.612 199.352C61.3937 199.352 60.0942 198.216 59.3633 196.512C58.9572 195.538 58.7947 194.564 58.9572 193.671C59.1196 192.697 59.6069 192.048 60.2567 191.805C61.6374 191.236 63.4242 192.454 64.2364 194.483C65.1298 196.593 64.7237 198.622 63.343 199.19C63.0993 199.271 62.8556 199.352 62.612 199.352ZM60.9876 192.454C60.8252 192.454 60.744 192.454 60.5815 192.535C60.1754 192.697 59.8506 193.184 59.7694 193.833C59.6881 194.564 59.7694 195.375 60.0942 196.187C60.744 197.81 62.1247 198.865 63.0181 198.459C63.9115 198.054 64.1551 196.431 63.5054 194.807C62.9369 193.428 61.7998 192.454 60.9876 192.454Z" fill="white"/>
</g>
<path d="M31.5127 138.802L72.5279 176.864" stroke="#263238" stroke-width="0.5" stroke-miterlimit="10" stroke-linecap="round" stroke-linejoin="round"/>
<path d="M134.335 187.009L120.122 192.041" stroke="white" stroke-width="0.5" stroke-miterlimit="10" stroke-linecap="round" stroke-linejoin="round"/>
<path d="M258.924 82.8031C258.924 82.8031 279.472 86.0494 286.051 97.0056C292.629 107.962 287.919 125.248 285.726 131.254C283.695 136.691 289.624 141.155 293.198 144.158C301.32 150.732 305.462 160.065 301.239 170.128C298.64 176.458 286.944 179.218 288.487 186.847C290.03 194.394 296.934 205.026 288.162 212.898C278.904 221.176 264.934 216.875 256.812 209.165C247.635 200.481 244.467 185.305 249.178 173.618C254.863 159.497 257.949 150.407 252.67 144.401C247.31 138.396 240.406 134.663 240.406 126.222C240.406 117.782 247.959 115.266 251.127 106.744C254.294 98.3041 249.909 89.458 249.909 89.458L258.924 82.8031Z" fill="#263238" stroke="#263238" stroke-miterlimit="10" stroke-linecap="round" stroke-linejoin="round"/>
<path d="M278.173 97.4114C282.152 100.414 285.726 105.446 284.508 113.643C281.99 130.28 269.645 131.335 277.604 141.886C285.563 152.355 292.792 147.648 291.33 160.714C289.868 173.699 285.157 178.406 285.157 178.406" stroke="white" stroke-miterlimit="10"/>
<path d="M269.726 93.4347C269.726 93.4347 271.756 93.8405 274.355 95.0578" stroke="white" stroke-miterlimit="10"/>
<path d="M265.746 98.1418C265.746 98.1418 276.223 101.064 279.472 109.747C282.721 118.431 269.726 125.654 268.995 131.092" stroke="white" stroke-miterlimit="10"/>
<path d="M265.259 239.68C265.096 234.729 265.015 228.074 265.34 221.095C265.99 206.649 283.289 187.496 283.858 184.006C284.508 180.516 282.883 179.948 282.883 179.948L248.609 165.178C232.69 175.647 228.792 206 227.898 220.202L265.259 239.68Z" fill="#136AFB" stroke="#263238" stroke-miterlimit="10" stroke-linecap="round" stroke-linejoin="round"/>
<path d="M279.228 180.841C279.228 180.841 282.071 182.626 279.228 185.548C276.386 188.389 268.426 200.643 265.178 207.785" stroke="#263238" stroke-width="0.5" stroke-miterlimit="10" stroke-linecap="round" stroke-linejoin="round"/>
<path d="M263.797 211.356C263.797 211.356 261.279 217.118 261.604 222.88C261.929 228.643 261.929 233.999 261.929 233.999" stroke="#263238" stroke-width="0.5" stroke-miterlimit="10" stroke-linecap="round" stroke-linejoin="round"/>
<path d="M196.548 173.05C198.091 176.945 199.878 185.467 198.66 190.255C198.01 192.771 195.98 198.046 194.112 202.51L240.325 226.614C240.244 217.037 240.406 201.861 241.624 199.02C243.411 194.8 257.949 154.952 257.056 145.862C256.162 136.773 238.619 123.788 238.619 123.788L241.299 101.713L225.299 111.37C225.299 111.37 223.513 120.135 221.645 122.246C219.858 124.356 204.995 127.358 200.772 132.796C196.548 138.233 198.091 154.871 198.091 155.763C198.091 156.737 195.086 169.154 196.548 173.05Z" fill="white"/>
<path opacity="0.5" d="M256.975 145.862C256.081 136.773 238.538 123.788 238.538 123.788L241.218 101.713L225.218 111.37C225.218 111.37 224.731 113.886 223.919 116.565C224.975 116.483 226.112 116.321 227.411 116.078C233.503 115.023 236.751 112.831 236.751 112.831L233.503 126.466C233.503 126.466 250.071 136.205 254.376 148.054C254.944 149.677 255.594 151.219 256.244 152.679C256.893 149.839 257.137 147.404 256.975 145.862Z" fill="#136AFB"/>
<path d="M196.548 173.05C198.091 176.945 199.878 185.467 198.66 190.255C198.01 192.771 195.98 198.046 194.112 202.51L240.325 226.614C240.244 217.037 240.406 201.861 241.624 199.02C243.411 194.8 257.949 154.952 257.056 145.862C256.162 136.773 238.619 123.788 238.619 123.788L241.299 101.713L225.299 111.37C225.299 111.37 223.513 120.135 221.645 122.246C219.858 124.356 204.995 127.358 200.772 132.796C196.548 138.233 198.091 154.871 198.091 155.763C198.091 156.737 195.086 169.154 196.548 173.05Z" stroke="#263238" stroke-miterlimit="10" stroke-linecap="round" stroke-linejoin="round"/>
<path d="M196.548 173.05C198.091 176.945 199.878 185.467 198.66 190.255C198.01 192.771 195.98 198.046 194.112 202.51L240.325 226.614C240.244 217.037 240.406 201.861 241.624 199.02C243.411 194.8 257.949 154.952 257.056 145.862C256.487 140.262 249.502 133.039 244.305 128.495C239.188 133.932 228.061 144.077 219.939 139.532C212.629 135.474 213.117 129.306 214.173 125.654C209.218 127.44 203.289 129.793 200.934 132.877C196.711 138.315 198.254 154.952 198.254 155.845C198.091 156.737 195.086 169.154 196.548 173.05Z" fill="#263238" stroke="#263238" stroke-miterlimit="10" stroke-linecap="round" stroke-linejoin="round"/>
<path d="M223.513 162.337L213.442 157.63C213.442 157.63 210.599 152.923 209.056 152.923C207.513 152.923 206.538 159.497 206.538 159.497C206.538 159.497 201.178 164.528 203.046 169.56C204.914 174.592 211.817 182.139 220.345 179.299C228.792 176.458 226.355 167.694 226.355 167.694C226.355 167.694 229.848 161.688 229.848 160.471C229.848 159.172 223.513 162.337 223.513 162.337Z" fill="white" stroke="#263238" stroke-miterlimit="10" stroke-linecap="round" stroke-linejoin="round"/>
<path d="M201.99 64.9485C201.99 64.9485 204.102 75.8236 203.777 83.3712C203.452 90.9188 200.447 93.9216 201.34 97.2491C202.234 100.577 213.117 112.912 219.777 114.13C226.437 115.347 242.112 105.04 246.66 100.577C251.208 96.0317 251.777 89.3768 251.208 86.6987C250.64 84.0205 248.203 62.2704 239.107 53.5054C230.01 44.7404 206.213 45.6331 201.99 64.9485Z" fill="white"/>
<path opacity="0.5" d="M239.188 53.5054C235.777 50.2591 230.335 48.3113 224.65 48.2302L224.244 59.511C224.244 59.511 222.457 70.6295 228.954 79.638C235.452 88.6464 241.137 91.1623 241.868 94.7332C242.599 98.3041 239.35 101.956 231.066 108.043C226.599 111.37 223.025 113.318 220.751 114.373C227.817 114.617 242.437 105.04 246.741 100.739C251.289 96.194 251.858 89.5391 251.289 86.861C250.64 84.0205 248.203 62.2703 239.188 53.5054Z" fill="#136AFB"/>
<path d="M201.99 64.9485C201.99 64.9485 204.102 75.8236 203.777 83.3712C203.452 90.9188 200.447 93.9216 201.34 97.2491C202.234 100.577 213.117 112.912 219.777 114.13C226.437 115.347 242.112 105.04 246.66 100.577C251.208 96.0317 251.777 89.3768 251.208 86.6987C250.64 84.0205 248.203 62.2704 239.107 53.5054C230.01 44.7404 206.213 45.6331 201.99 64.9485Z" stroke="#263238" stroke-miterlimit="10" stroke-linecap="round" stroke-linejoin="round"/>
<path d="M213.442 87.2668C213.442 87.2668 212.548 93.0289 211.005 94.8144C211.005 94.8144 212.548 96.3564 215.228 96.5999" stroke="#263238" stroke-miterlimit="10" stroke-linecap="round" stroke-linejoin="round"/>
<path d="M214.091 101.794C214.091 101.794 219.858 104.797 226.518 101.226" stroke="#263238" stroke-miterlimit="10" stroke-linecap="round" stroke-linejoin="round"/>
<path d="M224.975 84.264C224.975 85.2379 224.487 86.0494 223.919 86.0494C223.35 86.0494 222.863 85.2379 222.863 84.264C222.863 83.2901 223.35 82.4785 223.919 82.4785C224.487 82.4785 224.975 83.2901 224.975 84.264Z" fill="#263238"/>
<path d="M210.03 81.8292C210.03 82.8031 209.543 83.6147 208.975 83.6147C208.406 83.6147 207.919 82.8031 207.919 81.8292C207.919 80.8553 208.406 80.0438 208.975 80.0438C209.543 80.0438 210.03 80.8553 210.03 81.8292Z" fill="#263238"/>
<path d="M205.888 74.0381C205.888 74.0381 208.569 72.2527 211.655 73.1454" stroke="#263238" stroke-miterlimit="10" stroke-linecap="round" stroke-linejoin="round"/>
<path d="M220.102 74.2816C220.102 74.2816 221.888 73.3889 225.868 75.8236" stroke="#263238" stroke-miterlimit="10" stroke-linecap="round" stroke-linejoin="round"/>
<path d="M221.97 56.8328C221.97 56.8328 213.523 63.8123 209.299 68.0325C205.076 72.2527 203.289 75.2555 196.873 72.5773C190.538 69.8991 185.99 60.4849 194.437 49.3664C202.883 38.0855 219.208 34.7581 235.208 39.3029C251.208 43.8477 257.868 54.0735 259.086 65.2732C260.305 76.4729 257.868 88.8087 252.102 92.1362C246.335 95.4636 233.665 81.9104 229.117 73.3889C224.65 64.9485 221.97 56.8328 221.97 56.8328Z" fill="#263238" stroke="#263238" stroke-miterlimit="10" stroke-linecap="round" stroke-linejoin="round"/>
<path d="M221.97 56.8328C221.97 56.8328 199.147 60.1603 198.091 65.2732C197.036 70.3049 203.858 68.9252 203.858 68.9252" stroke="white" stroke-miterlimit="10"/>
<path d="M195.086 60.1603C193.544 63.4877 194.761 65.5978 194.761 65.5978" stroke="white" stroke-miterlimit="10"/>
<path d="M244.711 46.039C244.711 46.039 222.619 42.3869 222.619 52.2069C222.619 52.2069 209.218 47.4998 200.528 53.9924C198.985 55.1286 197.848 56.1836 196.954 57.2386" stroke="white" stroke-miterlimit="10"/>
<path d="M223.756 54.3981C223.756 54.3981 229.36 72.5773 241.137 77.2033" stroke="white" stroke-miterlimit="10"/>
<path d="M235.452 59.2676C240 63.0008 246.416 66.6529 254.132 66.3283" stroke="white" stroke-miterlimit="10"/>
<path d="M228.467 51.8823C228.467 51.8823 229.685 53.6677 231.959 56.0213" stroke="white" stroke-miterlimit="10"/>
<path d="M199.878 75.499L235.208 81.5046C235.208 81.5046 235.208 86.861 233.665 89.6203C232.122 92.2985 230.335 92.3797 226.437 92.3797C222.538 92.3797 217.015 89.9449 216.772 89.0522C216.122 86.9421 216.609 79.8003 216.609 79.8003L213.767 79.3134C213.767 79.3134 214.091 87.5914 212.629 88.4841C211.086 89.3768 201.178 87.5914 199.31 85.1567C197.523 82.8843 198.66 75.2555 199.878 75.499Z" stroke="#263238" stroke-miterlimit="10" stroke-linecap="round" stroke-linejoin="round"/>
<path d="M235.208 81.5858L250.964 78.8264V80.9365L235.208 84.9132V81.5858Z" fill="#136AFB" stroke="#263238" stroke-miterlimit="10" stroke-linecap="round" stroke-linejoin="round"/>
<path d="M262.549 83.4519C263.773 75.8404 260.887 69.0477 256.105 68.28C251.322 67.5122 246.452 73.0601 245.229 80.6716C244.005 88.2831 246.891 95.0757 251.673 95.8435C256.456 96.6112 261.326 91.0633 262.549 83.4519Z" fill="#136AFB" stroke="#263238" stroke-miterlimit="10" stroke-linecap="round" stroke-linejoin="round"/>
<path d="M265.096 83.777C264.041 90.1884 260.467 94.9767 257.137 94.4086C253.726 93.8405 251.858 88.2406 252.914 81.8292C253.97 75.4178 257.543 70.6295 260.873 71.1976C264.203 71.6846 266.071 77.3656 265.096 83.777Z" fill="#136AFB" stroke="#263238" stroke-miterlimit="10" stroke-linecap="round" stroke-linejoin="round"/>
<path d="M260.305 56.8329C260.305 56.8329 261.523 69.2499 257.624 81.9104C257.624 81.9104 257.299 86.7799 261.848 84.5886C266.396 82.4785 265.746 64.0558 265.178 56.5082C264.528 48.9606 258.843 51.0707 260.305 56.8329Z" fill="white" stroke="#263238" stroke-miterlimit="10" stroke-linecap="round" stroke-linejoin="round"/>
<path d="M243.411 42.6303C243.411 42.6303 250.396 40.8449 253.97 47.1751C257.624 53.5054 256.975 59.2675 262.091 59.8356C267.208 60.4037 267.533 54.7227 264.772 47.4186C262.091 40.1956 256.325 34.7581 248.447 34.1088C240.569 33.5407 236.67 39.871 236.67 39.871C236.67 39.871 240.975 40.5202 243.411 42.6303Z" fill="#136AFB" stroke="#263238" stroke-miterlimit="10" stroke-linecap="round" stroke-linejoin="round"/>
<path d="M141.401 219.066C141.401 219.066 137.746 219.634 133.848 219.796C129.949 219.959 128.244 219.959 128.893 220.851C129.462 221.744 134.173 222.637 135.878 222.962C137.421 223.286 141.401 219.066 141.401 219.066Z" fill="white" stroke="#263238" stroke-miterlimit="10"/>
<path d="M242.761 155.52L221.888 202.916C221.888 202.916 165.117 213.466 159.919 213.466C154.721 213.466 144.487 217.118 142.376 218.336C140.264 219.553 119.716 228.967 123.695 229.616C126.132 229.941 132.467 226.532 132.467 226.532C132.467 226.532 122.477 231.402 123.371 232.863C124.264 234.405 136.365 228.318 136.365 228.318C136.365 228.318 125.32 234.81 127.594 235.216C129.624 235.541 132.142 234.405 134.254 232.863C136.366 231.321 140.183 230.266 140.183 230.266C140.183 230.266 135.31 233.512 134.741 234.973C134.173 236.515 135.959 235.541 137.746 234.973C139.533 234.405 146.355 230.753 147.574 229.86C148.792 228.967 152.447 227.182 154.802 224.99C157.239 222.88 159.675 220.77 159.675 220.77C159.675 220.77 192 221.663 206.782 221.095C221.563 220.527 228.873 218.985 234.315 213.547C239.756 208.11 255.188 173.699 258.761 164.366C262.416 155.033 259.98 149.595 256.325 143.265" fill="white"/>
<path opacity="0.5" d="M243.655 186.603C233.909 204.945 225.706 210.707 217.015 215.008C208.406 219.309 160.975 220.365 160.975 220.365C160.975 220.365 161.706 220.527 163.005 220.851C171.533 221.095 194.924 221.582 206.863 221.095C221.645 220.527 228.954 218.985 234.396 213.547C239.838 208.11 255.269 173.699 258.843 164.366C260.548 160.065 260.873 156.575 260.467 153.41L258.437 154.708C258.355 154.627 253.32 168.262 243.655 186.603Z" fill="#136AFB"/>
<path d="M242.761 155.52L221.888 202.916C221.888 202.916 165.117 213.466 159.919 213.466C154.721 213.466 144.487 217.118 142.376 218.336C140.264 219.553 119.716 228.967 123.695 229.616C126.132 229.941 132.467 226.532 132.467 226.532C132.467 226.532 122.477 231.402 123.371 232.863C124.264 234.405 136.365 228.318 136.365 228.318C136.365 228.318 125.32 234.81 127.594 235.216C129.624 235.541 132.142 234.405 134.254 232.863C136.366 231.321 140.183 230.266 140.183 230.266C140.183 230.266 135.31 233.512 134.741 234.973C134.173 236.515 135.959 235.541 137.746 234.973C139.533 234.405 146.355 230.753 147.574 229.86C148.792 228.967 152.447 227.182 154.802 224.99C157.239 222.88 159.675 220.77 159.675 220.77C159.675 220.77 192 221.663 206.782 221.095C221.563 220.527 228.873 218.985 234.315 213.547C239.756 208.11 255.188 173.699 258.761 164.366C262.416 155.033 259.98 149.595 256.325 143.265" stroke="#263238" stroke-miterlimit="10"/>
<path d="M242.437 154.303L236.102 170.696C240.731 168.18 249.503 164.853 256.487 169.885C257.462 167.612 258.274 165.665 258.843 164.204C262.497 154.871 260.061 149.433 256.406 143.103" fill="#263238"/>
<path d="M242.437 154.303L236.102 170.696C240.731 168.18 249.503 164.853 256.487 169.885C257.462 167.612 258.274 165.665 258.843 164.204C262.497 154.871 260.061 149.433 256.406 143.103" stroke="#263238" stroke-miterlimit="10" stroke-linecap="round" stroke-linejoin="round"/>
<path d="M197.523 176.134C191.431 177.919 167.147 184.98 164.954 185.548C162.355 186.116 160.731 186.278 160.731 186.278C160.731 186.278 152.284 182.626 150.01 181.003C147.736 179.38 145.056 180.435 143.675 181.003C142.294 181.571 141.239 185.873 143.838 185.873C146.437 185.873 146.843 185.71 149.766 188.145C152.609 190.58 152.609 191.797 154.721 192.69C156.832 193.583 160.325 193.015 162.112 192.69C163.736 192.446 191.838 190.58 198.741 190.174C199.635 186.36 198.741 180.435 197.523 176.134Z" fill="white"/>
<path opacity="0.5" d="M198.497 180.516L162.112 192.69C163.736 192.446 191.838 190.58 198.741 190.174C199.31 187.577 199.066 183.925 198.497 180.516Z" fill="#136AFB"/>
<path d="M197.523 176.134C191.431 177.919 167.147 184.98 164.954 185.548C162.355 186.116 160.731 186.278 160.731 186.278C160.731 186.278 152.284 182.626 150.01 181.003C147.736 179.38 145.056 180.435 143.675 181.003C142.294 181.571 141.239 185.873 143.838 185.873C146.437 185.873 146.843 185.71 149.766 188.145C152.609 190.58 152.609 191.797 154.721 192.69C156.832 193.583 160.325 193.015 162.112 192.69C163.736 192.446 191.838 190.58 198.741 190.174C199.635 186.36 198.741 180.435 197.523 176.134Z" stroke="#263238" stroke-miterlimit="10" stroke-linecap="round" stroke-linejoin="round"/>
<path d="M137.015 186.035C137.015 186.035 133.848 187.82 132.954 189.931C132.061 192.041 133.848 191.473 134.497 190.986C135.066 190.499 137.665 188.389 137.665 188.389L137.015 186.035Z" fill="white" stroke="#263238" stroke-miterlimit="10" stroke-linecap="round" stroke-linejoin="round"/>
<path d="M137.909 184.493C137.909 184.493 135.959 185.548 136.284 188.145C136.609 190.742 139.289 194.475 139.614 193.015C139.858 191.473 137.909 184.493 137.909 184.493Z" fill="white" stroke="#263238" stroke-miterlimit="10" stroke-linecap="round" stroke-linejoin="round"/>
<path d="M141.645 182.221C141.645 182.221 138.802 182.951 137.827 184.493C136.934 186.035 138.396 192.528 139.452 192.933C140.508 193.42 141.401 192.771 141.726 191.716C142.132 190.661 141.645 182.221 141.645 182.221Z" fill="white" stroke="#263238" stroke-miterlimit="10" stroke-linecap="round" stroke-linejoin="round"/>
<path d="M145.3 180.76C145.3 180.76 141.482 180.76 141.076 182.545C140.589 184.331 139.858 192.203 140.589 193.42C141.32 194.638 142.538 194.151 143.188 192.69C143.756 191.148 145.3 180.76 145.3 180.76Z" fill="white" stroke="#263238" stroke-miterlimit="10" stroke-linecap="round" stroke-linejoin="round"/>
<path d="M154.802 189.444C154.802 189.444 151.31 190.823 148.629 192.041C145.949 193.258 143.188 193.826 143.513 195.53C143.838 197.154 145.056 196.585 147.005 196.017C148.954 195.449 151.553 194.475 155.289 194.07C159.107 193.583 162.112 190.174 162.112 190.174" fill="white"/>
<path d="M154.802 189.444C154.802 189.444 151.31 190.823 148.629 192.041C145.949 193.258 143.188 193.826 143.513 195.53C143.838 197.154 145.056 196.585 147.005 196.017C148.954 195.449 151.553 194.475 155.289 194.07C159.107 193.583 162.112 190.174 162.112 190.174" stroke="#263238" stroke-miterlimit="10" stroke-linecap="round" stroke-linejoin="round"/>
</g>
<defs>
<clipPath id="clip0">
<rect width="320" height="320" fill="white"/>
</clipPath>
</defs>
</svg>
