<svg width="320" height="320" viewBox="0 0 320 320" fill="none" xmlns="http://www.w3.org/2000/svg">
<g clip-path="url(#clip0)">
<path d="M297.755 253.206C299.677 248.92 308.176 228.227 310.688 192.901C313.497 152.994 303.002 113.973 279.871 89.3632C256.739 64.7535 237.155 70.6657 214.023 76.6518C201.533 79.8297 190.965 75.6911 179.436 71.3308C146.919 58.9151 114.476 66.8967 96.0739 97.7142C90.0877 107.765 88.0924 117.299 87.6489 128.827C87.2055 140.356 87.1316 152.624 78.7067 161.566C67.4734 173.465 52.1016 171.765 42.2725 191.275C32.4434 210.786 31.0393 230.296 25.4226 234.509C19.806 238.721 15.5935 237.908 11.3811 243.008C8.72054 246.259 7.7598 250.546 7.39029 253.206H297.755Z" fill="#136AFB"/>
<path opacity="0.9" d="M297.755 253.206C299.677 248.92 308.176 228.227 310.688 192.901C313.497 152.994 303.002 113.973 279.871 89.3632C256.739 64.7535 237.155 70.6657 214.023 76.6518C201.533 79.8297 190.965 75.6911 179.436 71.3308C146.919 58.9151 114.476 66.8967 96.0739 97.7142C90.0877 107.765 88.0924 117.299 87.6489 128.827C87.2055 140.356 87.1316 152.624 78.7067 161.566C67.4734 173.465 52.1016 171.765 42.2725 191.275C32.4434 210.786 31.0393 230.296 25.4226 234.509C19.806 238.721 15.5935 237.908 11.3811 243.008C8.72054 246.259 7.7598 250.546 7.39029 253.206H297.755Z" fill="white"/>
<path d="M228.139 104.661C228.804 104.439 225.995 96.2362 225.774 95.4971C224.074 90.1761 219.714 85.0029 213.727 85.0768C207.594 85.2246 200.794 93.5757 194.734 90.1761C189.783 87.3678 187.122 81.899 181.654 79.6819C171.381 75.5433 171.381 86.481 163.769 88.2546C158.005 89.5849 156.231 84.7073 150.91 88.6981C145.589 92.6888 149.136 94.4625 143.372 95.3493C137.607 96.2362 136.721 94.9059 133.173 96.2362C129.626 97.5664 123.418 104.218 123.418 104.218C123.418 104.218 118.54 102.444 114.106 104.218C109.672 105.991 107.898 108.652 107.898 108.652H233.533C233.46 108.726 232.129 103.774 228.139 104.661Z" fill="white"/>
<path d="M288 123.58C288.37 123.432 286.891 119.072 286.744 118.703C285.783 115.894 283.492 113.086 280.314 113.16C277.062 113.234 273.367 117.668 270.189 115.894C267.529 114.416 266.125 111.46 263.242 110.278C257.774 108.061 257.774 113.899 253.709 114.86C250.605 115.599 249.718 112.938 246.836 115.081C244.028 117.225 245.875 118.185 242.845 118.629C239.741 119.072 239.298 118.407 237.376 119.072C235.455 119.811 232.203 123.359 232.203 123.359C232.203 123.359 229.617 122.398 227.252 123.359C224.887 124.319 223.926 125.723 223.926 125.723H290.882C290.808 125.723 290.143 123.137 288 123.58Z" fill="white"/>
<path d="M293.469 245.077H145.367V140.652C145.367 138.878 146.771 137.474 148.545 137.474H290.365C292.139 137.474 293.543 138.878 293.543 140.652V245.077H293.469Z" fill="#136AFB" stroke="#263238" stroke-miterlimit="10" stroke-linecap="round" stroke-linejoin="round"/>
<path d="M284.822 246.555H154.014V148.781C154.014 147.008 155.418 145.603 157.192 145.603H281.57C283.344 145.603 284.748 147.008 284.748 148.781V246.555H284.822Z" fill="white" stroke="#263238" stroke-miterlimit="10" stroke-linecap="round" stroke-linejoin="round"/>
<path d="M292.065 253.797H139.233C131.252 253.797 124.748 248.92 124.748 243.008H306.55C306.55 248.92 300.046 253.797 292.065 253.797Z" fill="#136AFB" stroke="#263238" stroke-miterlimit="10" stroke-linecap="round" stroke-linejoin="round"/>
<path d="M251.344 197.705H180.028C177.958 197.705 176.333 196.079 176.333 194.01V188.245C176.333 186.176 177.958 184.55 180.028 184.55H251.344C253.413 184.55 255.039 186.176 255.039 188.245V194.01C255.039 196.079 253.34 197.705 251.344 197.705Z" fill="white" stroke="#263238" stroke-miterlimit="10" stroke-linecap="round" stroke-linejoin="round"/>
<path d="M219.048 186.915H212.323V195.34H219.048V186.915Z" fill="#136AFB" stroke="#263238" stroke-miterlimit="10" stroke-linecap="round" stroke-linejoin="round"/>
<path d="M210.919 186.915H204.194V195.34H210.919V186.915Z" fill="#136AFB" stroke="#263238" stroke-miterlimit="10" stroke-linecap="round" stroke-linejoin="round"/>
<path d="M202.79 186.915H196.065V195.34H202.79V186.915Z" fill="#136AFB" stroke="#263238" stroke-miterlimit="10" stroke-linecap="round" stroke-linejoin="round"/>
<path d="M194.734 186.915H188.009V195.34H194.734V186.915Z" fill="#136AFB" stroke="#263238" stroke-miterlimit="10" stroke-linecap="round" stroke-linejoin="round"/>
<path d="M186.605 186.915H183.279C180.988 186.915 179.067 188.763 179.067 191.128C179.067 193.419 180.915 195.34 183.279 195.34H186.605V186.915Z" fill="#136AFB" stroke="#263238" stroke-miterlimit="10" stroke-linecap="round" stroke-linejoin="round"/>
<path d="M227.104 186.915H220.379V195.34H227.104V186.915Z" fill="#136AFB" stroke="#263238" stroke-miterlimit="10" stroke-linecap="round" stroke-linejoin="round"/>
<path d="M148.988 144.79H109.155" stroke="#263238" stroke-miterlimit="10" stroke-linecap="round" stroke-linejoin="round"/>
<path d="M148.988 185.807H127.335" stroke="#263238" stroke-miterlimit="10" stroke-linecap="round" stroke-linejoin="round"/>
<path d="M123.048 185.807H114.18" stroke="#263238" stroke-miterlimit="10" stroke-linecap="round" stroke-linejoin="round"/>
<path d="M148.988 170.583H104.499" stroke="#263238" stroke-miterlimit="10" stroke-linecap="round" stroke-linejoin="round"/>
<path d="M148.988 163.192H136.573" stroke="#263238" stroke-miterlimit="10" stroke-linecap="round" stroke-linejoin="round"/>
<path d="M148.988 204.135H104.499" stroke="#263238" stroke-miterlimit="10" stroke-linecap="round" stroke-linejoin="round"/>
<path d="M148.988 220.319H136.573" stroke="#263238" stroke-miterlimit="10" stroke-linecap="round" stroke-linejoin="round"/>
<path d="M121.866 151.737H82.0323" stroke="#263238" stroke-miterlimit="10" stroke-linecap="round" stroke-linejoin="round"/>
<path d="M75.8245 151.737H67.3256" stroke="#263238" stroke-miterlimit="10" stroke-linecap="round" stroke-linejoin="round"/>
<path d="M105.09 226.232C105.09 226.232 103.908 220.91 109.672 219.58C115.436 218.25 116.323 225.197 116.471 226.971L105.09 226.232Z" fill="#136AFB" stroke="#263238" stroke-miterlimit="10" stroke-linecap="round" stroke-linejoin="round"/>
<path d="M116.028 222.832H110.707V224.31L116.471 227.044C116.471 226.97 116.915 224.975 116.028 222.832Z" fill="#263238" stroke="#263238" stroke-miterlimit="10"/>
<path d="M27.3441 211.525V238.056C27.3441 238.056 37.1732 241.234 44.7852 244.412C52.3972 247.589 60.6743 252.171 60.6743 252.171H146.919C146.919 252.171 138.568 252.467 137.09 251.137C135.612 249.807 135.908 246.924 138.568 245.225C141.155 243.525 156.009 242.934 156.009 242.934C156.009 242.934 208.776 240.051 209.072 239.165C209.367 238.278 209.367 237.613 208.037 237.169C206.707 236.726 185.127 230.37 168.942 228.227C152.757 226.084 138.494 226.897 135.169 227.931C131.843 228.966 123.048 227.636 116.988 226.453C110.928 225.271 105.755 224.975 105.755 224.975V219.654H100.508V218.102H102.651V210.638C102.651 210.638 96.1478 209.603 88.8314 211.968C81.4411 214.259 73.6813 222.093 67.9168 225.345C62.1524 228.67 55.6489 230.37 52.4711 230.37C49.2933 230.37 47.1501 229.483 47.1501 229.483V223.719L49.8845 220.837V210.047H36.2863C36.2863 210.047 36.1385 212.633 33.8475 212.781C31.5566 213.003 27.3441 211.525 27.3441 211.525Z" fill="white" stroke="#263238" stroke-miterlimit="10"/>
<path d="M47.1501 224.014V223.793L49.8845 220.911V210.121H36.2863C36.2863 210.121 36.1385 212.707 33.8475 212.855C31.5566 213.003 27.3441 211.525 27.3441 211.525V236.43C30.448 232.735 36.2863 227.857 47.1501 224.014Z" fill="#136AFB" stroke="#263238" stroke-miterlimit="10" stroke-linecap="round" stroke-linejoin="round"/>
<path d="M74.4203 240.938H67.2517L76.4157 252.245H84.3233L74.4203 240.938Z" fill="#136AFB" stroke="#263238" stroke-miterlimit="10" stroke-linecap="round" stroke-linejoin="round"/>
<path d="M86.2448 240.938H79.1501L88.3141 252.245H96.1478L86.2448 240.938Z" fill="#136AFB" stroke="#263238" stroke-miterlimit="10" stroke-linecap="round" stroke-linejoin="round"/>
<path d="M122.753 247.959C116.397 246.333 112.776 241.16 109.968 235.987C107.159 230.814 100.582 225.64 98.3649 225.788C96.1478 225.936 91.1963 226.749 91.1963 226.749C91.1963 226.749 89.4226 225.936 82.4018 221.797C80.3325 220.541 78.3372 219.728 76.4896 219.211C73.4596 221.502 70.6513 223.719 68.1385 225.197C69.4688 225.197 71.0947 225.271 72.8683 225.419C79.4457 225.788 81.4411 229.409 81.4411 229.409C81.4411 229.409 83.4365 229.04 85.8014 229.04C88.1663 229.04 95.5566 235.248 97.4041 241.603C98.5866 245.668 102.356 249.807 104.942 252.245H140.12C133.912 250.693 126.226 248.846 122.753 247.959Z" fill="#136AFB" stroke="#263238" stroke-miterlimit="10" stroke-linecap="round" stroke-linejoin="round"/>
<path d="M146.919 252.245H143.076C145.145 252.245 146.919 252.245 146.919 252.245Z" fill="#263238" stroke="#263238" stroke-miterlimit="10"/>
<path d="M138.568 245.298C141.155 243.599 156.009 243.007 156.009 243.007C156.009 243.007 174.928 241.973 190.152 240.938C180.471 240.421 151.871 239.017 145.293 240.125C137.386 241.456 121.94 244.707 113.293 248.476C104.647 252.245 93.709 248.624 72.7945 246.185C58.0138 244.486 45.4503 243.007 39.3903 242.342C41.2379 243.007 43.0854 243.747 44.8591 244.486C52.4711 247.663 60.7483 252.245 60.7483 252.245H143.15C140.711 252.171 137.977 251.95 137.164 251.211C135.686 249.88 135.982 246.998 138.568 245.298Z" fill="#263238" stroke="#263238" stroke-miterlimit="10"/>
<path d="M170.272 253.797C178.191 253.797 184.61 247.378 184.61 239.46C184.61 231.542 178.191 225.123 170.272 225.123C162.354 225.123 155.935 231.542 155.935 239.46C155.935 247.378 162.354 253.797 170.272 253.797Z" fill="#263238"/>
<g opacity="0.31">
<path opacity="0.31" d="M182.171 231.479L170.051 239.165L184.314 236.652C183.945 234.73 183.206 233.031 182.171 231.479Z" fill="white"/>
<path opacity="0.31" d="M157.857 246.703L170.272 239.46L156.083 241.382C156.305 243.303 156.896 245.077 157.857 246.703Z" fill="white"/>
</g>
<path d="M157.118 245.225L164.434 241.456L156.379 242.934C156.527 243.747 156.748 244.486 157.118 245.225Z" fill="white"/>
<path d="M175.815 236.874L183.945 235.174C183.649 234.361 183.353 233.548 182.91 232.735L175.815 236.874Z" fill="white"/>
<path d="M170.272 247.885C174.925 247.885 178.697 244.113 178.697 239.46C178.697 234.807 174.925 231.035 170.272 231.035C165.62 231.035 161.848 234.807 161.848 239.46C161.848 244.113 165.62 247.885 170.272 247.885Z" fill="#136AFB" stroke="#263238" stroke-miterlimit="10" stroke-linecap="round" stroke-linejoin="round"/>
<path d="M170.272 241.677C171.497 241.677 172.49 240.685 172.49 239.46C172.49 238.236 171.497 237.243 170.272 237.243C169.048 237.243 168.055 238.236 168.055 239.46C168.055 240.685 169.048 241.677 170.272 241.677Z" fill="#263238"/>
<path d="M189.709 241.086L193.035 245.003H202.125L199.981 240.125L189.709 241.086Z" fill="#263238" stroke="#263238" stroke-miterlimit="10"/>
<path d="M188.6 244.707V251.802H211.806V245.742C211.806 245.742 206.042 245.298 200.277 244.264C194.513 243.303 189.857 243.673 188.6 244.707Z" fill="white" stroke="#263238" stroke-miterlimit="10"/>
<path d="M137.977 243.451V250.693H121.423V248.698C121.423 248.698 126.448 247.811 129.035 246.111C131.621 244.264 133.395 243.303 137.977 243.451Z" fill="white" stroke="#263238" stroke-miterlimit="10"/>
<path d="M132.212 231.479H125.709C125.709 231.479 122.975 232.07 123.27 234.509C123.566 236.947 125.561 239.682 126.744 239.682C127.926 239.682 137.238 239.682 137.238 239.682" stroke="#263238" stroke-miterlimit="10" stroke-linecap="round" stroke-linejoin="round"/>
<path d="M125.709 234.213C126.448 230.887 128.887 231.774 128.887 231.774L128.443 231.479H125.709C125.709 231.479 122.975 232.07 123.27 234.509C123.566 236.947 125.561 239.682 126.744 239.682C126.744 239.682 124.97 237.539 125.709 234.213Z" fill="#263238" stroke="#263238" stroke-miterlimit="10" stroke-linecap="round" stroke-linejoin="round"/>
<path d="M58.679 236.208C66.8822 234.878 82.3279 229.409 82.3279 229.409C92.9699 224.975 105.829 225.049 105.829 225.049" stroke="#263238" stroke-miterlimit="10"/>
<path d="M52.6189 239.534C52.6189 239.534 77.5981 234.804 97.1824 231.479C116.767 228.153 127.778 229.927 131.917 229.188C136.129 228.449 138.42 227.34 142.189 227.192" stroke="#263238" stroke-miterlimit="10"/>
<path d="M101.469 210.564L99.9907 208.273C99.9907 208.273 101.691 207.238 99.5473 207.091C97.4041 206.943 94.8175 207.091 94.5219 207.682C94.2263 208.273 96.3695 208.125 96.3695 208.125V210.564H101.469Z" fill="#263238" stroke="#263238" stroke-miterlimit="10"/>
<path d="M49.6628 253.797C57.581 253.797 64 247.378 64 239.46C64 231.542 57.581 225.123 49.6628 225.123C41.7446 225.123 35.3256 231.542 35.3256 239.46C35.3256 247.378 41.7446 253.797 49.6628 253.797Z" fill="#263238"/>
<g opacity="0.31">
<path opacity="0.31" d="M61.5612 231.479L49.4411 239.165L63.7044 236.652C63.3349 234.73 62.5958 233.031 61.5612 231.479Z" fill="white"/>
<path opacity="0.31" d="M37.2471 246.703L49.6628 239.46L35.4734 241.382C35.6951 243.303 36.3603 245.077 37.2471 246.703Z" fill="white"/>
</g>
<path d="M36.5081 245.225L43.8245 241.456L35.769 242.934C35.9168 243.747 36.2125 244.486 36.5081 245.225Z" fill="white"/>
<path d="M55.2055 236.874L63.3349 235.174C63.0392 234.361 62.7436 233.548 62.3002 232.735L55.2055 236.874Z" fill="white"/>
<path d="M49.6628 247.885C54.3158 247.885 58.0877 244.113 58.0877 239.46C58.0877 234.807 54.3158 231.035 49.6628 231.035C45.0098 231.035 41.2379 234.807 41.2379 239.46C41.2379 244.113 45.0098 247.885 49.6628 247.885Z" fill="#136AFB" stroke="#263238" stroke-miterlimit="10" stroke-linecap="round" stroke-linejoin="round"/>
<path d="M49.6628 241.677C50.8873 241.677 51.8799 240.685 51.8799 239.46C51.8799 238.236 50.8873 237.243 49.6628 237.243C48.4383 237.243 47.4457 238.236 47.4457 239.46C47.4457 240.685 48.4383 241.677 49.6628 241.677Z" fill="#263238"/>
<path d="M94.5219 214.111H72.8683" stroke="#263238" stroke-miterlimit="10" stroke-linecap="round" stroke-linejoin="round"/>
<path d="M30.2263 220.615H8.57272" stroke="#263238" stroke-miterlimit="10" stroke-linecap="round" stroke-linejoin="round"/>
<path d="M30.2263 229.705H17.9584" stroke="#263238" stroke-miterlimit="10" stroke-linecap="round" stroke-linejoin="round"/>
<path d="M75.5288 221.502H63.3348" stroke="#263238" stroke-miterlimit="10" stroke-linecap="round" stroke-linejoin="round"/>
<path d="M68.6558 214.111H59.7136" stroke="#263238" stroke-miterlimit="10" stroke-linecap="round" stroke-linejoin="round"/>
<path d="M1.10855 253.797H318.891" stroke="#263238" stroke-width="3" stroke-miterlimit="10" stroke-linecap="round" stroke-linejoin="round"/>
</g>
<defs>
<clipPath id="clip0">
<rect width="320" height="320" fill="white"/>
</clipPath>
</defs>
</svg>
