<svg width="320" height="320" viewBox="0 0 320 320" fill="none" xmlns="http://www.w3.org/2000/svg">
<g clip-path="url(#clip0)">
<path d="M273.484 107.047C272.303 104.979 271.343 102.764 270.457 100.623C261.154 78.2513 250.448 58.9804 226.377 50.0464C186.211 35.1318 173.881 57.2822 147.153 64.961C120.425 72.7137 111.121 53.6643 87.4942 53.6643C63.7933 53.6643 49.9123 69.6126 49.3955 84.0104C48.8786 98.4082 53.0134 108.671 23.701 127.204C-5.61145 145.736 -3.02723 171.948 6.71896 189.963C16.4652 208.053 39.1324 216.765 67.928 222.967C96.7236 229.17 155.422 279.082 219.732 263.65C284.042 248.219 271.195 208.57 288.694 194.689C306.193 180.808 330.854 162.792 314.905 136.064C310.697 129.05 305.233 122.7 297.554 119.525C290.688 116.719 281.901 117.236 276.659 111.477C275.404 110.148 274.37 108.597 273.484 107.047Z" fill="#136AFB"/>
<path opacity="0.9" d="M273.484 107.047C272.303 104.979 271.343 102.764 270.457 100.623C261.154 78.2513 250.448 58.9804 226.377 50.0464C186.211 35.1318 173.881 57.2822 147.153 64.961C120.425 72.7137 111.121 53.6643 87.4942 53.6643C63.7933 53.6643 49.9123 69.6126 49.3955 84.0104C48.8786 98.4082 53.0134 108.671 23.701 127.204C-5.61145 145.736 -3.02723 171.948 6.71896 189.963C16.4652 208.053 39.1324 216.765 67.928 222.967C96.7236 229.17 155.422 279.082 219.732 263.65C284.042 248.219 271.195 208.57 288.694 194.689C306.193 180.808 330.854 162.792 314.905 136.064C310.697 129.05 305.233 122.7 297.554 119.525C290.688 116.719 281.901 117.236 276.659 111.477C275.404 110.148 274.37 108.597 273.484 107.047Z" fill="white"/>
<path d="M57.3696 202.072L42.898 259.073L79.1509 266.678L86.239 196.756L57.8126 203.549" fill="#263238"/>
<path d="M275.035 202.072L289.432 259.073L253.253 266.678L246.091 196.756L274.518 203.549" fill="#263238"/>
<path d="M280.868 117.679L233.392 156.738L95.0992 155.925L47.9926 115.981L14.3978 221.934L79.1509 266.678H252.589L311.214 226.881L280.868 117.679Z" fill="white" stroke="#263238" stroke-width="1.0453" stroke-miterlimit="10"/>
<path d="M140.951 249.769L117.766 234.19L93.844 261.878L235.459 261.214L231.177 253.83L173.512 254.716L175.505 240.983L140.951 249.769Z" fill="#136AFB"/>
<path d="M169.82 176.082L136.447 175.639L137.997 181.768C139.548 187.97 137.85 194.393 133.419 198.971L112.672 220.531C111.86 221.343 111.491 222.451 111.638 223.632C111.786 224.739 112.377 225.773 113.336 226.438L141.689 245.487L214.269 227.176C219.363 225.847 224.901 226.364 229.7 228.505L240.628 233.452C242.03 234.117 243.655 234.043 244.984 233.23C246.313 232.418 247.199 231.089 247.347 229.539L249.562 206.798C249.931 203.327 247.863 199.931 244.541 198.676L239.668 196.756L206.737 186.715C204.818 186.124 203.563 184.5 203.489 182.506C203.415 180.512 204.596 178.74 206.442 178.076L235.164 166.927L261.154 148.837C263.147 147.434 265.731 146.918 268.094 147.508C270.457 148.025 272.524 149.576 273.779 151.717L275.625 155.039L283.895 140.494L279.391 123.66L234.425 160.208L183.922 160.06L169.82 176.082Z" fill="#136AFB"/>
<path d="M215.228 230.942L179.566 239.949L178.016 250.729L229.036 249.991L217.813 230.499C216.927 230.646 216.041 230.794 215.228 230.942Z" fill="#136AFB"/>
<path d="M280.498 206.428C278.653 210.194 279.834 214.698 283.304 216.987L300.655 228.431L306.414 224.666L285.224 145.81L277.693 158.953L288.546 178.297C290.54 181.768 290.614 186.05 288.842 189.594L280.498 206.428Z" fill="#136AFB"/>
<path d="M281.237 220.236C276.142 216.839 274.296 210.194 277.028 204.656L285.445 187.822C286.627 185.385 286.627 182.506 285.224 180.143L270.309 153.563C269.645 152.381 268.537 151.495 267.134 151.2C265.805 150.905 264.402 151.126 263.295 151.938L237.01 170.397L207.845 181.694C207.402 181.841 207.402 182.211 207.402 182.358C207.402 182.58 207.476 182.875 207.919 183.023L241.071 193.138L246.018 195.058C250.891 196.978 253.992 201.924 253.475 207.167L251.26 229.908C250.964 232.714 249.414 235.15 246.977 236.553C244.541 237.956 241.661 238.104 239.077 236.922L228.15 231.975C226.304 231.163 224.31 230.572 222.243 230.351L239.963 261.066L250.817 260.992L297.185 230.572L281.237 220.236Z" fill="#136AFB"/>
<path d="M41.1998 204.287L23.6271 210.859L20.8952 219.866L53.8994 243.567L41.1998 204.287Z" fill="#136AFB"/>
<path d="M37.3604 179.848L54.7854 168.034C57.4435 166.188 58.994 163.235 58.9202 159.986L58.0341 129.197L62.0212 132.52L62.8334 159.765C62.9811 164.343 60.766 168.551 57.0005 171.135L38.6156 183.613L43.6364 199.119L49.1001 197.051C52.7919 195.649 57.0005 196.387 59.9538 199.045L64.8269 203.401C65.8606 204.287 67.1158 204.656 68.4449 204.361C69.7739 204.14 70.8814 203.254 71.4721 202.072L84.1717 177.116L90.9645 177.633L132.976 161.758L135.487 171.726L168.122 172.095L178.828 159.913L94.6562 159.691L50.3553 122.478L35.1454 172.686L37.3604 179.848Z" fill="#136AFB"/>
<path d="M114.518 231.975L111.195 229.76C109.276 228.505 108.094 226.438 107.799 224.149C107.577 221.86 108.316 219.645 109.94 217.947L130.688 196.387C134.158 192.769 135.487 187.674 134.305 182.801L130.318 167.001L91.4813 181.62L86.3867 181.251L74.8685 203.918C73.6871 206.207 71.6198 207.757 69.1094 208.2C66.599 208.643 64.0886 207.979 62.1689 206.281L57.2958 201.924C55.3761 200.226 52.7919 199.783 50.3553 200.669L44.7439 202.81L59.1417 247.333L79.2986 261.805L88.6756 261.731L114.518 231.975Z" fill="#136AFB"/>
<path d="M25.03 206.207L40.0185 200.595L33.1518 179.405L25.03 206.207Z" fill="#136AFB"/>
<path d="M247.79 85.1179H141.172C141.172 85.1179 144.126 82.9767 146.636 81.3524C149.146 79.6542 153.355 81.3524 155.496 81.3524C157.637 81.3524 157.637 78.842 162.215 75.8886C166.867 72.9352 171.887 77.5868 175.727 76.7008C179.492 75.8886 177.425 69.9818 182.077 67.0284C186.728 64.075 187.983 68.7266 192.635 65.7732C197.287 62.8198 192.635 50.6371 209.912 51.0063C227.19 51.4493 228.002 63.189 228.002 63.189C240.628 68.6528 234.352 74.1166 235.976 76.2578C237.674 78.399 239.742 76.2578 244.393 78.7681C249.045 81.3524 247.79 85.1179 247.79 85.1179Z" fill="white"/>
<path d="M107.725 88.6619H60.323C60.323 88.6619 61.6521 87.7021 62.7596 86.9637C63.8671 86.2254 65.7868 86.9637 66.6728 86.9637C67.6327 86.9637 67.6327 85.8562 69.7001 84.5272C71.7674 83.1981 73.9825 85.2655 75.6807 84.8963C77.3789 84.5272 76.419 81.8691 78.4864 80.6139C80.5538 79.2849 81.1444 81.3523 83.138 80.0232C85.2054 78.6942 83.138 73.3043 90.8168 73.452C98.4956 73.6735 98.8648 78.9157 98.8648 78.9157C104.476 81.3523 101.671 83.7888 102.409 84.7487C103.147 85.7085 104.107 84.7487 106.174 85.8562C108.316 86.9637 107.725 88.6619 107.725 88.6619Z" fill="white"/>
<path d="M126.331 129.419H78.9294C78.9294 129.419 80.2584 128.459 81.3659 127.721C82.4735 126.982 84.3932 127.721 85.2792 127.721C86.239 127.721 86.239 126.613 88.3064 125.284C90.3738 123.955 92.5888 126.022 94.287 125.653C95.9852 125.284 95.0254 122.626 97.0928 121.371C99.1601 120.042 99.7508 122.109 101.744 120.78C103.812 119.451 101.744 114.061 109.423 114.209C117.102 114.43 117.471 119.673 117.471 119.673C123.083 122.109 120.277 124.546 121.015 125.506C121.754 126.465 122.713 125.506 124.781 126.613C126.848 127.721 126.331 129.419 126.331 129.419Z" fill="white"/>
<path d="M158.006 205.616L151.878 209.013L155.053 209.234L158.745 207.536L158.006 205.616Z" fill="#263238" stroke="#263238" stroke-width="1.0453" stroke-miterlimit="10" stroke-linecap="round" stroke-linejoin="round"/>
<path d="M161.181 222.229L174.841 216.618V207.315L161.403 212.188L161.181 222.229Z" fill="white" stroke="#263238" stroke-width="1.0453" stroke-miterlimit="10" stroke-linecap="round" stroke-linejoin="round"/>
<path d="M155.053 209.234V216.839L161.181 222.229L161.403 212.188L158.745 207.536L155.053 209.234Z" fill="white" stroke="#263238" stroke-width="1.0453" stroke-miterlimit="10" stroke-linecap="round" stroke-linejoin="round"/>
<path d="M172.404 200.669L158.006 205.616L162.658 214.624L177.573 208.865L172.404 200.669Z" fill="#263238" stroke="#263238" stroke-width="1.0453" stroke-miterlimit="10" stroke-linecap="round" stroke-linejoin="round"/>
<path d="M163.913 212.261L164.356 212.926" stroke="white" stroke-width="0.5226" stroke-miterlimit="10" stroke-linecap="round" stroke-linejoin="round"/>
<path d="M160.221 205.838L163.396 211.376" stroke="white" stroke-width="0.5226" stroke-miterlimit="10" stroke-linecap="round" stroke-linejoin="round"/>
<path d="M162.289 205.099L166.497 212.188" stroke="white" stroke-width="0.5226" stroke-miterlimit="10" stroke-linecap="round" stroke-linejoin="round"/>
<path d="M164.43 204.287L168.565 211.376" stroke="white" stroke-width="0.5226" stroke-miterlimit="10" stroke-linecap="round" stroke-linejoin="round"/>
<path d="M167.753 205.542L170.706 210.637" stroke="white" stroke-width="0.5226" stroke-miterlimit="10" stroke-linecap="round" stroke-linejoin="round"/>
<path d="M166.571 203.549L167.383 204.878" stroke="white" stroke-width="0.5226" stroke-miterlimit="10" stroke-linecap="round" stroke-linejoin="round"/>
<path d="M168.713 202.737L172.847 209.825" stroke="white" stroke-width="0.5226" stroke-miterlimit="10" stroke-linecap="round" stroke-linejoin="round"/>
<path d="M174.398 208.127L174.988 209.087" stroke="white" stroke-width="0.5226" stroke-miterlimit="10" stroke-linecap="round" stroke-linejoin="round"/>
<path d="M171.961 203.918L173.881 207.241" stroke="white" stroke-width="0.5226" stroke-miterlimit="10" stroke-linecap="round" stroke-linejoin="round"/>
<path d="M170.78 201.998L171.592 203.327" stroke="white" stroke-width="0.5226" stroke-miterlimit="10" stroke-linecap="round" stroke-linejoin="round"/>
<path d="M156.53 218.021V212.852L158.597 214.698V219.866L156.53 218.021Z" fill="#263238" stroke="#263238" stroke-width="1.0453" stroke-miterlimit="10" stroke-linecap="round" stroke-linejoin="round"/>
<path d="M157.563 221.786L151.509 225.256L154.684 225.478L158.302 223.78L157.563 221.786Z" fill="#263238" stroke="#263238" stroke-width="1.0453" stroke-miterlimit="10" stroke-linecap="round" stroke-linejoin="round"/>
<path d="M160.812 238.473L174.472 232.788V223.484L161.034 228.431L160.812 238.473Z" fill="white" stroke="#263238" stroke-width="1.0453" stroke-miterlimit="10" stroke-linecap="round" stroke-linejoin="round"/>
<path d="M154.684 225.478V233.083L160.812 238.473L161.034 228.431L158.302 223.78L154.684 225.478Z" fill="white" stroke="#263238" stroke-width="1.0453" stroke-miterlimit="10" stroke-linecap="round" stroke-linejoin="round"/>
<path d="M172.035 216.913L157.563 221.786L162.215 230.868L177.203 225.109L172.035 216.913Z" fill="#263238" stroke="#263238" stroke-width="1.0453" stroke-miterlimit="10" stroke-linecap="round" stroke-linejoin="round"/>
<path d="M163.544 228.431L163.987 229.17" stroke="white" stroke-width="0.5226" stroke-miterlimit="10" stroke-linecap="round" stroke-linejoin="round"/>
<path d="M159.778 222.082L163.027 227.545" stroke="white" stroke-width="0.5226" stroke-miterlimit="10" stroke-linecap="round" stroke-linejoin="round"/>
<path d="M161.92 221.269L166.054 228.357" stroke="white" stroke-width="0.5226" stroke-miterlimit="10" stroke-linecap="round" stroke-linejoin="round"/>
<path d="M164.061 220.531L168.196 227.619" stroke="white" stroke-width="0.5226" stroke-miterlimit="10" stroke-linecap="round" stroke-linejoin="round"/>
<path d="M167.31 221.712L170.337 226.807" stroke="white" stroke-width="0.5226" stroke-miterlimit="10" stroke-linecap="round" stroke-linejoin="round"/>
<path d="M166.202 219.719L166.94 221.122" stroke="white" stroke-width="0.5226" stroke-miterlimit="10" stroke-linecap="round" stroke-linejoin="round"/>
<path d="M168.269 218.98L172.478 226.069" stroke="white" stroke-width="0.5226" stroke-miterlimit="10" stroke-linecap="round" stroke-linejoin="round"/>
<path d="M174.029 224.297L174.545 225.256" stroke="white" stroke-width="0.5226" stroke-miterlimit="10" stroke-linecap="round" stroke-linejoin="round"/>
<path d="M171.518 220.088L173.512 223.484" stroke="white" stroke-width="0.5226" stroke-miterlimit="10" stroke-linecap="round" stroke-linejoin="round"/>
<path d="M170.411 218.168L171.223 219.497" stroke="white" stroke-width="0.5226" stroke-miterlimit="10" stroke-linecap="round" stroke-linejoin="round"/>
<path d="M156.161 234.264V229.022L158.228 230.868V236.11L156.161 234.264Z" fill="#263238" stroke="#263238" stroke-width="1.0453" stroke-miterlimit="10" stroke-linecap="round" stroke-linejoin="round"/>
<path d="M134.675 214.329L128.546 217.725L131.721 217.947L135.339 216.249L134.675 214.329Z" fill="#263238" stroke="#263238" stroke-width="1.0453" stroke-miterlimit="10" stroke-linecap="round" stroke-linejoin="round"/>
<path d="M137.85 230.942L151.509 225.33V216.027L138.071 220.9L137.85 230.942Z" fill="white" stroke="#263238" stroke-width="1.0453" stroke-miterlimit="10" stroke-linecap="round" stroke-linejoin="round"/>
<path d="M131.721 217.947V225.552L137.85 230.942L138.071 220.9L135.339 216.249L131.721 217.947Z" fill="white" stroke="#263238" stroke-width="1.0453" stroke-miterlimit="10" stroke-linecap="round" stroke-linejoin="round"/>
<path d="M149.072 209.382L134.675 214.329L139.326 223.337L154.241 217.578L149.072 209.382Z" fill="#263238" stroke="#263238" stroke-width="1.0453" stroke-miterlimit="10" stroke-linecap="round" stroke-linejoin="round"/>
<path d="M140.581 220.9L141.024 221.638" stroke="white" stroke-width="0.5226" stroke-miterlimit="10" stroke-linecap="round" stroke-linejoin="round"/>
<path d="M136.816 214.55L140.065 220.014" stroke="white" stroke-width="0.5226" stroke-miterlimit="10" stroke-linecap="round" stroke-linejoin="round"/>
<path d="M138.957 213.738L143.092 220.9" stroke="white" stroke-width="0.5226" stroke-miterlimit="10" stroke-linecap="round" stroke-linejoin="round"/>
<path d="M141.098 213L145.233 220.088" stroke="white" stroke-width="0.5226" stroke-miterlimit="10" stroke-linecap="round" stroke-linejoin="round"/>
<path d="M144.421 214.255L147.374 219.35" stroke="white" stroke-width="0.5226" stroke-miterlimit="10" stroke-linecap="round" stroke-linejoin="round"/>
<path d="M143.24 212.188L144.052 213.591" stroke="white" stroke-width="0.5226" stroke-miterlimit="10" stroke-linecap="round" stroke-linejoin="round"/>
<path d="M145.307 211.449L149.515 218.537" stroke="white" stroke-width="0.5226" stroke-miterlimit="10" stroke-linecap="round" stroke-linejoin="round"/>
<path d="M151.066 216.765L151.657 217.799" stroke="white" stroke-width="0.5226" stroke-miterlimit="10" stroke-linecap="round" stroke-linejoin="round"/>
<path d="M148.556 212.631L150.549 215.953" stroke="white" stroke-width="0.5226" stroke-miterlimit="10" stroke-linecap="round" stroke-linejoin="round"/>
<path d="M147.448 210.711L148.26 212.04" stroke="white" stroke-width="0.5226" stroke-miterlimit="10" stroke-linecap="round" stroke-linejoin="round"/>
<path d="M133.198 226.733V221.565L135.265 223.411V228.579L133.198 226.733Z" fill="#263238" stroke="#263238" stroke-width="1.0453" stroke-miterlimit="10" stroke-linecap="round" stroke-linejoin="round"/>
<path d="M171.149 175.935L181.855 167.961V180.512L171.001 188.191L171.149 175.935Z" fill="white" stroke="#263238" stroke-width="1.0453" stroke-miterlimit="10" stroke-linecap="round" stroke-linejoin="round"/>
<path d="M181.855 167.961L170.854 161.389L171.149 175.935L181.855 167.961Z" fill="white" stroke="#263238" stroke-width="1.0453" stroke-miterlimit="10" stroke-linecap="round" stroke-linejoin="round"/>
<path d="M173.881 186.124V182.506L179.492 178.371V182.285L173.881 186.124Z" fill="white" stroke="#263238" stroke-width="1.0453" stroke-miterlimit="10" stroke-linecap="round" stroke-linejoin="round"/>
<path d="M154.167 128.902L140.581 139.903L156.899 159.617L171.001 138.205L154.167 128.902Z" fill="white" stroke="#263238" stroke-width="1.0453" stroke-miterlimit="10" stroke-linecap="round" stroke-linejoin="round"/>
<path d="M156.899 148.911L171.001 138.205V188.191L156.899 197.125V148.911Z" fill="white" stroke="#263238" stroke-width="1.0453" stroke-miterlimit="10" stroke-linecap="round" stroke-linejoin="round"/>
<path d="M156.899 197.125L141.172 187.822L140.581 139.903L156.899 148.911V197.125Z" fill="white" stroke="#263238" stroke-width="1.0453" stroke-miterlimit="10" stroke-linecap="round" stroke-linejoin="round"/>
<path d="M154.462 131.412L144.347 139.756L156.825 146.475L167.31 138.205L154.462 131.412Z" fill="#263238" stroke="#263238" stroke-width="1.0453" stroke-miterlimit="10" stroke-linecap="round" stroke-linejoin="round"/>
<path d="M145.824 140.568L156.825 146.475L165.759 139.46L154.462 133.48L145.824 140.568Z" fill="white" stroke="#263238" stroke-width="1.0453" stroke-miterlimit="10" stroke-linecap="round" stroke-linejoin="round"/>
<path d="M151.583 166.189L148.851 164.786V168.33L151.583 169.733V166.189Z" fill="#263238"/>
<path d="M151.583 161.758L148.851 160.356V163.9L151.583 165.303V161.758Z" fill="#263238"/>
<path d="M151.583 175.049L148.851 173.646V177.19L151.583 178.593V175.049Z" fill="#263238"/>
<path d="M151.583 170.619L148.851 169.216V172.76L151.583 174.163V170.619Z" fill="#263238"/>
<path d="M145.381 184.204L148.113 185.607V182.063L145.381 180.66V184.204Z" fill="#263238"/>
<path d="M148.113 173.203L145.381 171.8V175.418L148.113 176.821V173.203Z" fill="#263238"/>
<path d="M148.113 177.633L145.381 176.23V179.848L148.113 181.177V177.633Z" fill="#263238"/>
<path d="M151.583 157.328L148.851 155.926V159.47L151.583 160.872V157.328Z" fill="#263238"/>
<path d="M151.583 152.898L148.851 151.495V155.039L151.583 156.442V152.898Z" fill="#263238"/>
<path d="M144.569 149.28L142.649 148.247V151.865L144.569 152.824V149.28Z" fill="#263238"/>
<path d="M144.569 162.571L142.649 161.537V165.081L144.569 166.115V162.571Z" fill="#263238"/>
<path d="M144.569 167.001L142.649 165.967V169.511L144.569 170.545V167.001Z" fill="#263238"/>
<path d="M144.569 171.431L142.649 170.397V173.941L144.569 174.975V171.431Z" fill="#263238"/>
<path d="M144.569 175.861L142.649 174.827V178.371L144.569 179.405V175.861Z" fill="#263238"/>
<path d="M144.569 153.71L142.649 152.677V156.295L144.569 157.255V153.71Z" fill="#263238"/>
<path d="M151.583 179.479L148.851 178.076V181.62L151.583 183.023V179.479Z" fill="#263238"/>
<path d="M148.113 168.773L145.381 167.37V170.988L148.113 172.391V168.773Z" fill="#263238"/>
<path d="M148.851 186.05L151.583 187.453V183.909L148.851 182.506V186.05Z" fill="#263238"/>
<path d="M144.569 158.141L142.649 157.107V160.725L144.569 161.685V158.141Z" fill="#263238"/>
<path d="M144.569 180.291L142.649 179.257V182.801L144.569 183.835V180.291Z" fill="#263238"/>
<path d="M155.127 185.755L152.321 184.278V187.822L155.127 189.299V185.755Z" fill="#263238"/>
<path d="M152.321 156.885L155.127 158.288V154.744L152.321 153.267V156.885Z" fill="#263238"/>
<path d="M152.321 183.392L155.127 184.869V181.325L152.321 179.848V183.392Z" fill="#263238"/>
<path d="M152.321 178.962L155.127 180.439V176.895L152.321 175.418V178.962Z" fill="#263238"/>
<path d="M152.321 174.532L155.127 176.009V172.464L152.321 170.988V174.532Z" fill="#263238"/>
<path d="M144.569 148.394V145.146L142.649 144.112V147.435L144.569 148.394Z" fill="#263238"/>
<path d="M144.569 184.721L142.649 183.687V186.641L144.569 187.748V184.721Z" fill="#263238"/>
<path d="M152.321 152.455L155.127 153.858V150.683L152.321 149.207V152.455Z" fill="#263238"/>
<path d="M152.321 188.708V192.031L155.127 193.581V190.185L152.321 188.708Z" fill="#263238"/>
<path d="M152.321 170.102L155.127 171.578V168.034L152.321 166.558V170.102Z" fill="#263238"/>
<path d="M148.113 146.991L145.381 145.589V148.837L148.113 150.24V146.991Z" fill="#263238"/>
<path d="M148.113 151.126L145.381 149.723V153.267L148.113 154.67V151.126Z" fill="#263238"/>
<path d="M148.113 155.556L145.381 154.153V157.698L148.113 159.1V155.556Z" fill="#263238"/>
<path d="M148.113 164.343L145.381 162.94V166.558L148.113 167.961V164.343Z" fill="#263238"/>
<path d="M152.321 165.672L155.127 167.148V163.604L152.321 162.128V165.672Z" fill="#263238"/>
<path d="M148.113 159.986L145.381 158.584V162.128L148.113 163.531V159.986Z" fill="#263238"/>
<path d="M148.113 189.668V186.493L145.381 185.09V188.191L148.113 189.668Z" fill="#263238"/>
<path d="M152.321 161.315L155.127 162.718V159.174L152.321 157.698V161.315Z" fill="#263238"/>
<path d="M148.851 147.435V150.683L151.583 152.086V149.133C151.583 149.059 151.657 148.911 151.657 148.911L148.851 147.435Z" fill="#263238"/>
<path d="M151.583 188.339L148.851 186.936V190.111L151.583 191.588V188.339Z" fill="#263238"/>
<path d="M158.966 150.979V192.991L169.082 186.124V143.226L158.966 150.979Z" fill="white" stroke="#263238" stroke-width="1.0453" stroke-miterlimit="10" stroke-linecap="round" stroke-linejoin="round"/>
<path d="M161.329 149.576V191.145" stroke="#263238" stroke-width="1.0453" stroke-miterlimit="10" stroke-linecap="round" stroke-linejoin="round"/>
<path d="M163.839 147.656V189.225" stroke="#263238" stroke-width="1.0453" stroke-miterlimit="10" stroke-linecap="round" stroke-linejoin="round"/>
<path d="M166.35 145.736V187.305" stroke="#263238" stroke-width="1.0453" stroke-miterlimit="10" stroke-linecap="round" stroke-linejoin="round"/>
<path d="M159.262 154.818L169.082 147.361" stroke="#263238" stroke-width="1.0453" stroke-miterlimit="10" stroke-linecap="round" stroke-linejoin="round"/>
<path d="M159.262 159.544L169.082 152.086" stroke="#263238" stroke-width="1.0453" stroke-miterlimit="10" stroke-linecap="round" stroke-linejoin="round"/>
<path d="M159.262 164.343L169.082 156.885" stroke="#263238" stroke-width="1.0453" stroke-miterlimit="10" stroke-linecap="round" stroke-linejoin="round"/>
<path d="M159.262 169.068L169.082 161.611" stroke="#263238" stroke-width="1.0453" stroke-miterlimit="10" stroke-linecap="round" stroke-linejoin="round"/>
<path d="M159.262 173.794L169.082 166.41" stroke="#263238" stroke-width="1.0453" stroke-miterlimit="10" stroke-linecap="round" stroke-linejoin="round"/>
<path d="M159.262 178.593L169.082 171.135" stroke="#263238" stroke-width="1.0453" stroke-miterlimit="10" stroke-linecap="round" stroke-linejoin="round"/>
<path d="M159.262 183.318L169.082 175.861" stroke="#263238" stroke-width="1.0453" stroke-miterlimit="10" stroke-linecap="round" stroke-linejoin="round"/>
<path d="M159.262 188.117L169.082 180.66" stroke="#263238" stroke-width="1.0453" stroke-miterlimit="10" stroke-linecap="round" stroke-linejoin="round"/>
<path d="M106.396 201.703L93.6225 195.206V182.432L106.101 187.896L106.396 201.703Z" fill="white" stroke="#263238" stroke-width="1.0453" stroke-miterlimit="10" stroke-linecap="round" stroke-linejoin="round"/>
<path d="M112.598 197.125L106.396 201.703V185.459L113.41 174.31L112.598 197.125Z" fill="white" stroke="#263238" stroke-width="1.0453" stroke-miterlimit="10" stroke-linecap="round" stroke-linejoin="round"/>
<path d="M112.598 177.854L105.584 190.037L91.4075 183.244L104.181 166.41L116.659 171.874L112.598 177.854Z" fill="#263238" stroke="#263238" stroke-width="1.0453" stroke-miterlimit="10" stroke-linecap="round" stroke-linejoin="round"/>
<path d="M122.935 172.907L130.54 177.559H127.808L122.64 174.827L122.935 172.907Z" fill="#263238" stroke="#263238" stroke-width="1.0453" stroke-miterlimit="10" stroke-linecap="round" stroke-linejoin="round"/>
<path d="M123.747 191.145L127.808 188.117V177.559L122.64 174.827L123.747 191.145Z" fill="white" stroke="#263238" stroke-width="1.0453" stroke-miterlimit="10" stroke-linecap="round" stroke-linejoin="round"/>
<path d="M116.142 198.75V159.1L120.498 153.415L123.747 156.885V194.393L116.142 198.75Z" fill="white" stroke="#263238" stroke-width="1.0453" stroke-miterlimit="10" stroke-linecap="round" stroke-linejoin="round"/>
<path d="M116.142 198.75L112.598 197.125V177.854L109.054 176.23V157.181L116.142 159.1V198.75Z" fill="white" stroke="#263238" stroke-width="1.0453" stroke-miterlimit="10" stroke-linecap="round" stroke-linejoin="round"/>
<path d="M109.054 157.181L112.893 151.791L120.498 153.415L116.142 159.1L109.054 157.181Z" fill="#263238" stroke="#263238" stroke-width="1.0453" stroke-miterlimit="10" stroke-linecap="round" stroke-linejoin="round"/>
<path d="M119.243 145.736C119.022 145.367 118.579 145.219 118.209 145.367L117.176 145.884V144.703C117.176 144.26 116.807 143.964 116.437 143.964C115.994 143.964 115.699 144.333 115.699 144.703V146.696L113.41 147.877C113.041 148.099 112.893 148.542 113.041 148.911C113.189 149.207 113.484 149.354 113.706 149.354C113.853 149.354 113.927 149.354 114.075 149.28L115.699 148.468V152.898C115.699 153.341 116.068 153.637 116.437 153.637C116.88 153.637 117.176 153.267 117.176 152.898V147.656L118.948 146.77C119.317 146.548 119.465 146.105 119.243 145.736Z" fill="#263238"/>
<path d="M216.927 224.518C229.078 224.518 238.929 217.94 238.929 209.825C238.929 201.71 229.078 195.132 216.927 195.132C204.775 195.132 194.924 201.71 194.924 209.825C194.924 217.94 204.775 224.518 216.927 224.518Z" fill="white" stroke="#263238" stroke-width="1.0453" stroke-miterlimit="10"/>
<path d="M216.927 220.974C229.078 220.974 238.929 214.396 238.929 206.281C238.929 198.166 229.078 191.588 216.927 191.588C204.775 191.588 194.924 198.166 194.924 206.281C194.924 214.396 204.775 220.974 216.927 220.974Z" fill="white" stroke="#263238" stroke-width="1.0453" stroke-miterlimit="10"/>
<path d="M216.927 219.054C227.447 219.054 235.976 213.336 235.976 206.281C235.976 199.226 227.447 193.508 216.927 193.508C206.406 193.508 197.877 199.226 197.877 206.281C197.877 213.336 206.406 219.054 216.927 219.054Z" fill="white" stroke="#263238" stroke-width="1.0453" stroke-miterlimit="10"/>
<path d="M216.927 219.054C227.366 219.054 235.828 214.129 235.828 208.053C235.828 201.977 227.366 197.052 216.927 197.052C206.487 197.052 198.025 201.977 198.025 208.053C198.025 214.129 206.487 219.054 216.927 219.054Z" fill="#263238" stroke="#263238" stroke-width="1.0453" stroke-miterlimit="10" stroke-linecap="round" stroke-linejoin="round"/>
<path d="M198.246 201.334C198.025 201.334 197.877 201.186 197.877 200.965V194.837C197.877 194.615 198.025 194.467 198.246 194.467C198.468 194.467 198.616 194.615 198.616 194.837V200.965C198.616 201.186 198.468 201.334 198.246 201.334Z" fill="#263238"/>
<path d="M197.877 194.837L194.555 197.568L198.025 198.454L197.877 194.837Z" fill="#263238"/>
<path d="M203.563 196.018C203.341 196.018 203.193 195.87 203.193 195.649V189.52C203.193 189.299 203.341 189.151 203.563 189.151C203.784 189.151 203.932 189.299 203.932 189.52V195.649C203.932 195.87 203.784 196.018 203.563 196.018Z" fill="#263238"/>
<path d="M203.267 189.52L199.945 192.252L203.341 193.064L203.267 189.52Z" fill="#263238"/>
<path d="M209.986 193.065C209.765 193.065 209.617 192.917 209.617 192.695V186.567C209.617 186.346 209.765 186.198 209.986 186.198C210.208 186.198 210.355 186.346 210.355 186.567V192.695C210.281 192.917 210.134 193.065 209.986 193.065Z" fill="#263238"/>
<path d="M209.617 186.567L206.294 189.299L209.765 190.111L209.617 186.567Z" fill="#263238"/>
<path d="M217.296 192.474C217.074 192.474 216.927 192.326 216.927 192.105V185.976C216.927 185.755 217.074 185.607 217.296 185.607C217.517 185.607 217.665 185.755 217.665 185.976V192.105C217.665 192.326 217.517 192.474 217.296 192.474Z" fill="#263238"/>
<path d="M216.927 185.976L213.604 188.708L217.074 189.52L216.927 185.976Z" fill="#263238"/>
<path d="M224.753 193.581C224.532 193.581 224.384 193.434 224.384 193.212V187.084C224.384 186.862 224.532 186.715 224.753 186.715C224.975 186.715 225.122 186.862 225.122 187.084V193.212C225.122 193.434 224.975 193.581 224.753 193.581Z" fill="#263238"/>
<path d="M224.384 187.084L221.061 189.816L224.532 190.628L224.384 187.084Z" fill="#263238"/>
<path d="M231.029 196.166C230.808 196.166 230.66 196.018 230.66 195.796V189.668C230.66 189.447 230.808 189.299 231.029 189.299C231.251 189.299 231.398 189.447 231.398 189.668V195.796C231.398 196.018 231.251 196.166 231.029 196.166Z" fill="#263238"/>
<path d="M230.66 189.668L227.337 192.4L230.808 193.212L230.66 189.668Z" fill="#263238"/>
<path d="M192.635 122.405L182.003 130.969L194.776 146.475L205.925 129.64L192.635 122.405Z" fill="white" stroke="#263238" stroke-width="1.0453" stroke-miterlimit="10" stroke-linecap="round" stroke-linejoin="round"/>
<path d="M194.776 138.058L205.925 129.64V168.994L194.776 176.009V138.058Z" fill="white" stroke="#263238" stroke-width="1.0453" stroke-miterlimit="10" stroke-linecap="round" stroke-linejoin="round"/>
<path d="M194.776 176.009L182.372 168.699L182.003 130.969L194.776 138.057V176.009Z" fill="#263238" stroke="#263238" stroke-width="1.0453" stroke-miterlimit="10" stroke-linecap="round" stroke-linejoin="round"/>
<path d="M192.93 124.324L184.882 130.822L194.702 136.212L202.972 129.714L192.93 124.324Z" fill="#263238" stroke="#263238" stroke-width="1.0453" stroke-miterlimit="10" stroke-linecap="round" stroke-linejoin="round"/>
<path d="M186.138 131.486L194.702 136.212L201.717 130.674L192.93 125.949L186.138 131.486Z" fill="white" stroke="#263238" stroke-width="1.0453" stroke-miterlimit="10" stroke-linecap="round" stroke-linejoin="round"/>
<path d="M191.158 130.969L195.219 133.184L198.542 130.6L194.407 128.385L191.158 130.969Z" fill="white" stroke="#263238" stroke-width="1.0453" stroke-miterlimit="10" stroke-linecap="round" stroke-linejoin="round"/>
<path d="M196.401 139.682V172.76L204.375 167.37V133.627L196.401 139.682Z" fill="white" stroke="#263238" stroke-width="1.0453" stroke-miterlimit="10" stroke-linecap="round" stroke-linejoin="round"/>
<path d="M198.246 138.574V171.283" stroke="#263238" stroke-width="1.0453" stroke-miterlimit="10" stroke-linecap="round" stroke-linejoin="round"/>
<path d="M200.24 137.098V169.806" stroke="#263238" stroke-width="1.0453" stroke-miterlimit="10" stroke-linecap="round" stroke-linejoin="round"/>
<path d="M202.234 135.621V168.256" stroke="#263238" stroke-width="1.0453" stroke-miterlimit="10" stroke-linecap="round" stroke-linejoin="round"/>
<path d="M183.701 134.735V168.034" stroke="white" stroke-width="1.0453" stroke-miterlimit="10" stroke-linecap="round" stroke-linejoin="round"/>
<path d="M185.842 135.99V169.216" stroke="white" stroke-width="1.0453" stroke-miterlimit="10" stroke-linecap="round" stroke-linejoin="round"/>
<path d="M187.983 137.172V170.397" stroke="white" stroke-width="1.0453" stroke-miterlimit="10" stroke-linecap="round" stroke-linejoin="round"/>
<path d="M190.125 138.353V171.579" stroke="white" stroke-width="1.0453" stroke-miterlimit="10" stroke-linecap="round" stroke-linejoin="round"/>
<path d="M192.192 139.534V172.834" stroke="white" stroke-width="1.0453" stroke-miterlimit="10" stroke-linecap="round" stroke-linejoin="round"/>
<path d="M117.471 248.145H89.6354L92.7365 231.606H118.579L117.471 248.145Z" fill="white" stroke="#263238" stroke-width="1.0453" stroke-miterlimit="10" stroke-linecap="round" stroke-linejoin="round"/>
<path d="M117.471 228.136H89.6354L92.7365 211.523H118.579L117.471 228.136Z" fill="white" stroke="#263238" stroke-width="1.0453" stroke-miterlimit="10" stroke-linecap="round" stroke-linejoin="round"/>
<path d="M115.625 226.955H91.7028L94.3609 212.631H116.585L115.625 226.955Z" fill="#263238" stroke="#263238" stroke-width="1.0453" stroke-miterlimit="10" stroke-linecap="round" stroke-linejoin="round"/>
<path d="M91.9243 226.955H115.625L116.511 214.181H94.3609L91.9243 226.955Z" fill="white" stroke="#263238" stroke-width="1.0453" stroke-miterlimit="10" stroke-linecap="round" stroke-linejoin="round"/>
<path d="M117.397 228.136H89.6354V248.219H117.397V228.136Z" fill="white" stroke="#263238" stroke-width="1.0453" stroke-miterlimit="10" stroke-linecap="round" stroke-linejoin="round"/>
<path d="M118.579 211.523L118.505 232.714L117.471 248.145V228.136L118.579 211.523Z" fill="white" stroke="#263238" stroke-width="1.0453" stroke-miterlimit="10" stroke-linecap="round" stroke-linejoin="round"/>
<path d="M90.9645 232.344H115.847" stroke="#263238" stroke-width="1.0453" stroke-miterlimit="10" stroke-linecap="round" stroke-linejoin="round"/>
<path d="M90.9645 235.962H115.847" stroke="#263238" stroke-width="1.0453" stroke-miterlimit="10" stroke-linecap="round" stroke-linejoin="round"/>
<path d="M90.9645 239.654H115.847" stroke="#263238" stroke-width="1.0453" stroke-miterlimit="10" stroke-linecap="round" stroke-linejoin="round"/>
<path d="M90.9645 243.272H115.847" stroke="#263238" stroke-width="1.0453" stroke-miterlimit="10" stroke-linecap="round" stroke-linejoin="round"/>
<path d="M118.874 220.752H125.814L126.627 229.834H117.914L118.874 220.752Z" fill="white" stroke="#263238" stroke-width="1.0453" stroke-miterlimit="10" stroke-linecap="round" stroke-linejoin="round"/>
<path d="M126.627 229.834V244.601H118.136L117.914 229.834H126.627Z" fill="white" stroke="#263238" stroke-width="1.0453" stroke-miterlimit="10" stroke-linecap="round" stroke-linejoin="round"/>
<path d="M109.275 222.967C112.293 222.967 114.739 221.315 114.739 219.276C114.739 217.237 112.293 215.584 109.275 215.584C106.258 215.584 103.812 217.237 103.812 219.276C103.812 221.315 106.258 222.967 109.275 222.967Z" fill="#263238" stroke="#263238" stroke-width="1.0453" stroke-miterlimit="10" stroke-linecap="round" stroke-linejoin="round"/>
<path d="M114.739 217.947C114.739 220.014 112.303 221.638 109.275 221.638C106.248 221.638 103.812 220.014 103.812 217.947C103.812 215.879 106.248 214.255 109.275 214.255C112.303 214.255 114.739 215.879 114.739 217.947Z" fill="white" stroke="#263238" stroke-width="1.0453" stroke-miterlimit="10" stroke-linecap="round" stroke-linejoin="round"/>
<path d="M96.1329 245.708H91.3336V248.145H96.1329V245.708Z" fill="#263238" stroke="#263238" stroke-width="1.0453" stroke-miterlimit="10" stroke-linecap="round" stroke-linejoin="round"/>
<path d="M102.704 245.708H97.9049V248.145H102.704V245.708Z" fill="#263238" stroke="#263238" stroke-width="1.0453" stroke-miterlimit="10" stroke-linecap="round" stroke-linejoin="round"/>
<path d="M109.202 245.708H104.402V248.145H109.202V245.708Z" fill="#263238" stroke="#263238" stroke-width="1.0453" stroke-miterlimit="10" stroke-linecap="round" stroke-linejoin="round"/>
<path d="M115.699 245.708H110.9V248.145H115.699V245.708Z" fill="#263238" stroke="#263238" stroke-width="1.0453" stroke-miterlimit="10" stroke-linecap="round" stroke-linejoin="round"/>
<path d="M213.235 182.137C213.235 182.137 211.611 168.551 213.235 170.028C214.859 171.505 214.859 175.123 214.859 175.123C214.859 175.123 214.195 156.516 217 158.288C219.806 160.06 218.477 176.599 218.477 176.599C218.477 176.599 220.914 170.692 221.061 174.015C221.209 177.264 219.289 184.5 219.289 184.5L217.96 183.392H216.484L215.524 182.063L213.899 182.728L213.235 182.137Z" fill="#263238" stroke="#263238" stroke-width="1.0453" stroke-miterlimit="10" stroke-linecap="round" stroke-linejoin="round"/>
<path d="M222.095 182.506C222.095 182.506 221.504 176.452 222.317 175.639C223.129 174.827 223.867 177.116 223.867 177.116C223.867 177.116 222.833 164.343 225.122 164.564C227.411 164.712 227.116 178.593 227.116 178.593C227.116 178.593 229.479 172.021 230.069 173.867C230.66 175.639 229.7 179.774 229.7 179.774C229.7 179.774 231.767 175.492 231.915 176.968C232.063 178.445 231.694 178.593 231.694 179.11C231.694 179.626 230.808 181.398 230.808 181.398L229.036 181.103L227.854 182.58L225.713 182.063L224.162 183.392L222.095 182.506Z" fill="#263238" stroke="#263238" stroke-width="1.0453" stroke-miterlimit="10" stroke-linecap="round" stroke-linejoin="round"/>
<path d="M226.968 184.943C226.968 184.943 226.008 179.257 227.264 180.069C228.593 180.882 229.257 183.171 229.257 183.171C229.257 183.171 229.922 172.391 230.365 172.391C230.881 172.391 231.029 176.821 231.029 177.264C231.029 177.781 230.365 167.813 231.989 168.256C233.613 168.773 233.096 180.808 233.096 180.808C233.096 180.808 234.721 177.042 234.721 179.036C234.721 181.029 233.244 185.607 233.244 185.607C233.244 185.607 235.681 182.358 235.681 183.835C235.681 185.312 234.721 189.225 234.721 189.225L232.284 187.601H230.143L229.331 186.641L227.559 186.493L226.968 184.943Z" fill="#263238" stroke="#263238" stroke-width="1.0453" stroke-miterlimit="10" stroke-linecap="round" stroke-linejoin="round"/>
<path d="M243.876 114.947L238.413 113.101H236.714L237.305 114.947H243.876Z" fill="white" stroke="#263238" stroke-width="1.0453" stroke-miterlimit="10" stroke-linecap="round" stroke-linejoin="round"/>
<path d="M250.521 114.652L223.867 116.055C223.867 116.055 219.216 109.483 218.403 109.483C217.591 109.483 213.752 109.188 213.752 109.188L220.102 123.734C220.102 123.734 255.247 123.438 256.65 122.626C258.053 121.814 259.677 119.082 256.945 116.867C254.139 114.652 250.521 114.652 250.521 114.652Z" fill="white" stroke="#263238" stroke-width="1.0453" stroke-miterlimit="10" stroke-linecap="round" stroke-linejoin="round"/>
<path d="M213.752 109.188L217.443 117.753L219.806 117.679L215.745 109.336C214.712 109.262 213.752 109.188 213.752 109.188Z" fill="white" stroke="#263238" stroke-width="1.0453" stroke-miterlimit="10" stroke-linecap="round" stroke-linejoin="round"/>
<path d="M243.138 121.814C243.138 121.814 238.782 121.076 235.976 121.297C232.58 121.519 231.841 121.814 231.841 121.814L223.572 126.244L227.411 126.096L243.138 121.814Z" fill="white" stroke="#263238" stroke-width="1.0453" stroke-miterlimit="10" stroke-linecap="round" stroke-linejoin="round"/>
<path d="M256.354 119.968C256.354 120.78 256.871 121.518 257.61 121.666C258.274 120.78 258.643 119.451 257.979 118.196C257.093 118.196 256.354 119.008 256.354 119.968Z" fill="#263238"/>
<path d="M251.26 118.196H254.139L253.918 116.645H251.26V118.196Z" fill="#263238"/>
<path d="M254.952 118.196H257.979C257.757 117.753 257.388 117.31 256.871 116.867C256.797 116.793 256.65 116.719 256.576 116.645H254.73L254.952 118.196Z" fill="#263238"/>
<path d="M250.448 116.645H248.38C247.937 116.645 247.642 117.015 247.642 117.384C247.642 117.827 248.011 118.122 248.38 118.122H250.448V116.645Z" fill="#263238"/>
<path d="M226.525 119.008C226.525 119.525 226.082 119.968 225.565 119.968C225.048 119.968 224.605 119.525 224.605 119.008C224.605 118.491 225.048 118.048 225.565 118.048C226.082 118.048 226.525 118.491 226.525 119.008Z" fill="#263238"/>
<path d="M230.66 118.86C230.66 119.377 230.217 119.82 229.7 119.82C229.183 119.82 228.74 119.377 228.74 118.86C228.74 118.344 229.183 117.901 229.7 117.901C230.217 117.901 230.66 118.344 230.66 118.86Z" fill="#263238"/>
<path d="M234.721 118.713C234.721 119.23 234.278 119.673 233.761 119.673C233.244 119.673 232.801 119.23 232.801 118.713C232.801 118.196 233.244 117.753 233.761 117.753C234.352 117.753 234.721 118.196 234.721 118.713Z" fill="#263238"/>
<path d="M238.856 118.565C238.856 119.082 238.413 119.525 237.896 119.525C237.379 119.525 236.936 119.082 236.936 118.565C236.936 118.048 237.379 117.605 237.896 117.605C238.486 117.679 238.856 118.048 238.856 118.565Z" fill="#263238"/>
<path d="M242.104 119.377C242.634 119.377 243.064 118.948 243.064 118.417C243.064 117.887 242.634 117.458 242.104 117.458C241.574 117.458 241.144 117.887 241.144 118.417C241.144 118.948 241.574 119.377 242.104 119.377Z" fill="#263238"/>
<path d="M218.846 112.584C218.846 112.584 215.598 112.732 214.785 112.806C213.899 112.954 212.275 113.766 212.275 113.766C212.275 113.766 214.269 114.135 215.598 114.135C217 114.209 220.175 114.578 218.846 112.584Z" fill="white" stroke="#263238" stroke-width="1.0453" stroke-miterlimit="10" stroke-linecap="round" stroke-linejoin="round"/>
</g>
<defs>
<clipPath id="clip0">
<rect width="320" height="320" fill="white"/>
</clipPath>
</defs>
</svg>
