<svg width="320" height="320" viewBox="0 0 320 320" fill="none" xmlns="http://www.w3.org/2000/svg">
<g clip-path="url(#clip0)">
<path d="M299.763 100.398C299.763 100.398 279.25 61.8662 233.961 56.1548C188.672 50.4434 157.058 78.2765 123.755 92.5148C106.299 99.996 86.3494 97.1 67.8477 100.72C8.80291 112.304 -13.5601 184.782 11.1357 225.969C32.453 261.605 70.1 280.187 127.295 284.45C184.489 288.714 224.63 293.701 275.872 258.789C327.114 223.797 323.735 151.077 299.763 100.398Z" fill="#136AFB"/>
<path opacity="0.9" d="M299.763 100.398C299.763 100.398 279.25 61.8662 233.961 56.1548C188.672 50.4434 157.058 78.2765 123.755 92.5148C106.299 99.996 86.3494 97.1 67.8477 100.72C8.80291 112.304 -13.5601 184.782 11.1357 225.969C32.453 261.605 70.1 280.187 127.295 284.45C184.489 288.714 224.63 293.701 275.872 258.789C327.114 223.797 323.735 151.077 299.763 100.398Z" fill="white"/>
<path opacity="0.3" d="M10.2509 232.485V212.857H40.095V123.324H69.9392V143.033H86.6712V200.871H127.295V169.176H146.359V186.632H160.437H166.711L167.194 193.229H183.685V167.005H196.877V85.1946H229.054V116.808H252.946V28.4022H279.17V174.647H306.681V210.685H312.151" stroke="#263238" stroke-miterlimit="10"/>
<path opacity="0.3" d="M51.8396 142.711H45.4042V149.709H51.8396V142.711Z" fill="#263238"/>
<path opacity="0.3" d="M65.2735 142.711H58.8381V149.709H65.2735V142.711Z" fill="#263238"/>
<path opacity="0.3" d="M51.8396 157.351H45.4042V164.35H51.8396V157.351Z" fill="#263238"/>
<path opacity="0.3" d="M65.2735 157.351H58.8381V164.35H65.2735V157.351Z" fill="#263238"/>
<path opacity="0.3" d="M79.8336 157.351H73.3982V164.35H79.8336V157.351Z" fill="#263238"/>
<path opacity="0.3" d="M79.8336 171.911H73.3982V178.91H79.8336V171.911Z" fill="#263238"/>
<path opacity="0.3" d="M79.8336 186.472H73.3982V193.47H79.8336V186.472Z" fill="#263238"/>
<path opacity="0.3" d="M79.8336 201.032H73.3982V208.03H79.8336V201.032Z" fill="#263238"/>
<path opacity="0.3" d="M79.8336 215.592H73.3982V222.59H79.8336V215.592Z" fill="#263238"/>
<path opacity="0.3" d="M79.8336 230.152H73.3982V237.15H79.8336V230.152Z" fill="#263238"/>
<path opacity="0.3" d="M51.8396 171.911H45.4042V178.91H51.8396V171.911Z" fill="#263238"/>
<path opacity="0.3" d="M65.2735 171.911H58.8381V178.91H65.2735V171.911Z" fill="#263238"/>
<path opacity="0.3" d="M51.8396 186.472H45.4042V193.47H51.8396V186.472Z" fill="#263238"/>
<path opacity="0.3" d="M65.2735 186.472H58.8381V193.47H65.2735V186.472Z" fill="#263238"/>
<path opacity="0.3" d="M51.8396 201.032H45.4042V208.03H51.8396V201.032Z" fill="#263238"/>
<path opacity="0.3" d="M65.2735 201.032H58.8381V208.03H65.2735V201.032Z" fill="#263238"/>
<path opacity="0.3" d="M51.8396 215.592H45.4042V222.59H51.8396V215.592Z" fill="#263238"/>
<path opacity="0.3" d="M22.2368 223.797H15.8014V230.795H22.2368V223.797Z" fill="#263238"/>
<path opacity="0.3" d="M115.309 208.03H108.873V215.029H115.309V208.03Z" fill="#263238"/>
<path opacity="0.3" d="M128.179 208.03H121.744V215.029H128.179V208.03Z" fill="#263238"/>
<path opacity="0.3" d="M263.645 36.6877H257.209V43.6862H263.645V36.6877Z" fill="#263238"/>
<path opacity="0.3" d="M271.769 36.6877H265.334V43.6862H271.769V36.6877Z" fill="#263238"/>
<path opacity="0.3" d="M263.645 51.2479H257.209V58.2464H263.645V51.2479Z" fill="#263238"/>
<path opacity="0.3" d="M271.769 51.2479H265.334V58.2464H271.769V51.2479Z" fill="#263238"/>
<path opacity="0.3" d="M263.645 65.808H257.209V72.8065H263.645V65.808Z" fill="#263238"/>
<path opacity="0.3" d="M271.769 65.808H265.334V72.8065H271.769V65.808Z" fill="#263238"/>
<path opacity="0.3" d="M263.645 80.368H257.209V87.3665H263.645V80.368Z" fill="#263238"/>
<path opacity="0.3" d="M271.769 80.368H265.334V87.3665H271.769V80.368Z" fill="#263238"/>
<path opacity="0.3" d="M263.645 94.9281H257.209V101.927H263.645V94.9281Z" fill="#263238"/>
<path opacity="0.3" d="M271.769 94.9281H265.334V101.927H271.769V94.9281Z" fill="#263238"/>
<path opacity="0.3" d="M263.645 109.488H257.209V116.487H263.645V109.488Z" fill="#263238"/>
<path opacity="0.3" d="M271.769 109.488H265.334V116.487H271.769V109.488Z" fill="#263238"/>
<path opacity="0.3" d="M263.645 124.129H257.209V131.127H263.645V124.129Z" fill="#263238"/>
<path opacity="0.3" d="M271.769 124.129H265.334V131.127H271.769V124.129Z" fill="#263238"/>
<path opacity="0.3" d="M263.645 138.689H257.209V145.687H263.645V138.689Z" fill="#263238"/>
<path opacity="0.3" d="M271.769 138.689H265.334V145.687H271.769V138.689Z" fill="#263238"/>
<path opacity="0.3" d="M263.645 153.249H257.209V160.247H263.645V153.249Z" fill="#263238"/>
<path opacity="0.3" d="M271.769 153.249H265.334V160.247H271.769V153.249Z" fill="#263238"/>
<path opacity="0.3" d="M208.783 153.249H202.347V160.247H208.783V153.249Z" fill="#263238"/>
<path opacity="0.3" d="M222.78 153.249H216.344V160.247H222.78V153.249Z" fill="#263238"/>
<path opacity="0.3" d="M236.777 153.249H230.341V160.247H236.777V153.249Z" fill="#263238"/>
<path opacity="0.3" d="M208.783 184.702H202.347V191.7H208.783V184.702Z" fill="#263238"/>
<path opacity="0.3" d="M222.78 184.702H216.344V191.7H222.78V184.702Z" fill="#263238"/>
<path opacity="0.3" d="M236.777 184.702H230.341V191.7H236.777V184.702Z" fill="#263238"/>
<path opacity="0.3" d="M208.783 216.155H202.347V223.153H208.783V216.155Z" fill="#263238"/>
<path opacity="0.3" d="M222.78 216.155H216.344V223.153H222.78V216.155Z" fill="#263238"/>
<path opacity="0.3" d="M236.777 216.155H230.341V223.153H236.777V216.155Z" fill="#263238"/>
<path opacity="0.3" d="M263.645 167.809H257.209V174.807H263.645V167.809Z" fill="#263238"/>
<path opacity="0.3" d="M271.769 167.809H265.334V174.807H271.769V167.809Z" fill="#263238"/>
<path opacity="0.3" d="M263.645 182.369H257.209V189.368H263.645V182.369Z" fill="#263238"/>
<path opacity="0.3" d="M271.769 182.369H265.334V189.368H271.769V182.369Z" fill="#263238"/>
<path opacity="0.3" d="M263.645 196.929H257.209V203.928H263.645V196.929Z" fill="#263238"/>
<path opacity="0.3" d="M271.769 196.929H265.334V203.928H271.769V196.929Z" fill="#263238"/>
<path opacity="0.3" d="M285.203 182.369H278.768V189.368H285.203V182.369Z" fill="#263238"/>
<path opacity="0.3" d="M300.246 182.369H293.81V189.368H300.246V182.369Z" fill="#263238"/>
<path opacity="0.3" d="M285.203 196.366H278.768V203.364H285.203V196.366Z" fill="#263238"/>
<path opacity="0.3" d="M300.246 196.366H293.81V203.364H300.246V196.366Z" fill="#263238"/>
<path opacity="0.3" d="M285.203 210.363H278.768V217.362H285.203V210.363Z" fill="#263238"/>
<path opacity="0.3" d="M300.246 210.363H293.81V217.362H300.246V210.363Z" fill="#263238"/>
<path opacity="0.3" d="M285.203 224.36H278.768V231.358H285.203V224.36Z" fill="#263238"/>
<path opacity="0.3" d="M300.246 224.36H293.81V231.358H300.246V224.36Z" fill="#263238"/>
<path opacity="0.3" d="M263.645 211.489H257.209V218.488H263.645V211.489Z" fill="#263238"/>
<path opacity="0.3" d="M271.769 211.489H265.334V218.488H271.769V211.489Z" fill="#263238"/>
<path opacity="0.3" d="M263.645 226.13H257.209V233.128H263.645V226.13Z" fill="#263238"/>
<path opacity="0.3" d="M271.769 226.13H265.334V233.128H271.769V226.13Z" fill="#263238"/>
<path opacity="0.3" d="M65.2735 215.592H58.8381V222.59H65.2735V215.592Z" fill="#263238"/>
<path opacity="0.3" d="M51.8396 230.152H45.4042V237.15H51.8396V230.152Z" fill="#263238"/>
<path opacity="0.3" d="M65.2735 230.152H58.8381V237.15H65.2735V230.152Z" fill="#263238"/>
<path opacity="0.3" d="M51.8396 244.792H45.4042V251.791H51.8396V244.792Z" fill="#263238"/>
<path opacity="0.3" d="M65.2735 244.792H58.8381V251.791H65.2735V244.792Z" fill="#263238"/>
<path opacity="0.3" d="M51.8396 259.353H45.4042V266.351H51.8396V259.353Z" fill="#263238"/>
<path opacity="0.3" d="M65.2735 259.353H58.8381V266.351H65.2735V259.353Z" fill="#263238"/>
<path opacity="0.3" d="M243.293 263.696V292.575H189.477V235.22H243.293V258.548" stroke="#263238" stroke-miterlimit="10"/>
<path opacity="0.3" d="M297.993 292.575H288.421V262.248H299.522" stroke="#263238" stroke-miterlimit="10"/>
<path opacity="0.3" d="M107.747 262.248H145.957V292.575H92.2217V262.248H102.679" stroke="#263238" stroke-miterlimit="10"/>
<path opacity="0.3" d="M23.6043 262.248H28.7526V292.575H8.80292V262.248H19.5822" stroke="#263238" stroke-miterlimit="10"/>
<path opacity="0.3" d="M220.688 235.22H212.081V292.575H220.688V235.22Z" stroke="#263238" stroke-miterlimit="10"/>
<path opacity="0.3" d="M153.841 243.023H145.394V227.819H173.871V243.023H161.483" stroke="#263238" stroke-miterlimit="10"/>
<path d="M276.918 274.234H167.194C163.815 274.234 161 271.499 161 268.04V49.7999C161 46.4213 163.735 43.6058 167.194 43.6058H276.918C280.296 43.6058 283.112 46.3409 283.112 49.7999V268.04C283.031 271.419 280.296 274.234 276.918 274.234Z" fill="#263238" stroke="#263238" stroke-miterlimit="10" stroke-linecap="round" stroke-linejoin="round"/>
<path d="M277.642 68.9452H166.39V248.895H277.642V68.9452Z" fill="#136AFB"/>
<path d="M277.642 105.144L224.871 118.256L216.586 99.5938L260.507 68.9452H255.52L191.97 113.349C191.89 113.43 191.809 113.51 191.729 113.591L166.39 141.424V145.687L193.66 115.682L214.172 101.283L222.056 118.98L199.13 124.692C199.049 124.692 198.888 124.772 198.808 124.853C198.808 124.853 198.728 124.853 198.728 124.933H198.647C198.567 125.014 198.486 125.094 198.406 125.094L166.47 160.328V164.591L199.291 128.392C201.865 132.495 205.887 140.459 203.956 145.044C202.83 147.537 200.015 150.594 197.038 153.812C191.89 159.282 186.661 164.993 187.868 170.383C189.235 176.095 189.798 179.795 189.959 181.162L189.235 181.323C183.443 182.932 179.582 188.402 179.984 194.355L180.789 206.421L166.47 207.708V210.604L181.03 209.317L182.156 226.291C182.156 226.371 182.156 226.451 182.156 226.532C182.156 226.612 182.156 226.693 182.156 226.773L183.604 249.056H186.5L185.133 227.739L209.346 225.808L212.966 249.056H215.862L212.242 225.567L232.513 223.958L239.673 249.056H242.649L235.409 223.716L249.969 222.59C260.186 230.635 266.782 238.035 272.735 249.056H275.952C269.678 236.989 262.599 228.945 251.82 220.418C251.659 220.097 251.337 219.855 250.935 219.775C247.476 217.04 243.695 214.305 239.351 211.328L253.911 209.076C262.116 207.789 267.828 200.308 266.782 192.103L264.449 172.475C263.484 164.189 268.873 156.627 276.998 154.777L277.722 154.616V151.72L276.354 152.042C266.782 154.134 260.427 163.063 261.553 172.796L263.886 192.424C264.69 199.182 260.105 205.215 253.348 206.26L235.811 208.995C234.524 208.111 233.157 207.145 231.709 206.26C219.401 197.975 215.942 186.793 215.218 178.83C214.414 169.74 216.827 160.167 221.654 152.525C221.814 152.364 221.975 152.203 222.056 151.962C222.056 151.962 222.056 151.962 222.056 151.881C223.504 149.629 225.193 147.618 227.043 145.768C237.42 135.712 263.242 125.416 277.642 120.267V117.211C263.323 122.279 236.214 132.897 225.032 143.676C223.182 145.446 221.573 147.457 220.125 149.629L207.013 144.722C208.461 138.608 203.956 130.484 201.784 126.944L277.722 108.121V105.144H277.642ZM230.1 208.352C231.548 209.317 232.835 210.202 234.203 211.087C234.364 211.328 234.685 211.57 235.007 211.65C239.27 214.546 243.051 217.201 246.51 219.775L184.891 224.682L182.88 194.033C182.559 189.448 185.615 185.185 190.04 183.978L212.403 177.864C212.403 178.186 212.403 178.508 212.483 178.91C213.207 187.437 216.827 199.423 230.1 208.352ZM218.516 152.042C214.575 158.799 212.242 166.924 212.242 174.888L192.694 180.278C192.453 178.669 191.89 175.049 190.603 169.659C189.718 165.798 194.705 160.408 199.049 155.743C201.784 152.847 204.358 150.031 205.887 147.377L218.516 152.042Z" fill="white"/>
<path d="M199.13 90.182L166.47 124.692V128.875L201.865 91.5495C202.267 91.1473 202.347 90.5842 202.187 90.1016L194.303 69.0256H191.246L199.13 90.182Z" fill="white"/>
<path d="M222.378 182.369C222.378 190.976 229.376 197.975 237.983 197.975C246.591 197.975 253.589 190.976 253.589 182.369C253.589 173.762 246.591 166.763 237.983 166.763C229.376 166.763 222.378 173.762 222.378 182.369ZM250.774 182.369C250.774 189.367 245.062 195.159 237.983 195.159C230.985 195.159 225.193 189.448 225.193 182.369C225.193 175.29 230.904 169.579 237.983 169.579C245.062 169.579 250.774 175.29 250.774 182.369Z" fill="white"/>
<path d="M244.177 98.2262C245.465 101.524 248.682 103.535 252.061 103.535C252.785 103.535 253.428 103.455 254.152 103.294L277.642 97.3414V94.365L253.428 100.479C250.693 101.203 247.878 99.7546 246.832 97.1C245.867 94.6063 246.752 91.7908 248.924 90.2624L277.642 71.1976V68.8647H276.033L247.395 87.8492C244.017 90.182 242.649 94.4454 244.177 98.2262Z" fill="white"/>
<path d="M234.927 91.8713C230.422 91.8713 226.721 95.5717 226.721 100.076C226.721 104.581 234.927 116.245 234.927 116.245C234.927 116.245 243.132 104.581 243.132 100.076C243.132 95.4912 239.431 91.8713 234.927 91.8713ZM234.927 103.053C233.076 103.053 231.628 101.605 231.628 99.7547C231.628 97.9045 233.076 96.4566 234.927 96.4566C236.777 96.4566 238.225 97.9045 238.225 99.7547C238.225 101.605 236.777 103.053 234.927 103.053Z" fill="#263238" stroke="#263238" stroke-miterlimit="10"/>
<path d="M233.479 116.969L232.272 117.291" stroke="#263238" stroke-width="2" stroke-linecap="round" stroke-linejoin="round"/>
<path d="M229.859 117.935L202.106 125.738" stroke="#263238" stroke-width="2" stroke-linecap="round" stroke-linejoin="round" stroke-dasharray="3.11 3.11"/>
<path d="M200.899 126.14L199.773 126.462C199.773 126.462 200.015 126.864 200.336 127.507" stroke="#263238" stroke-width="2" stroke-linecap="round" stroke-linejoin="round"/>
<path d="M201.463 129.599C202.75 132.093 204.439 135.712 205.002 138.528C205.967 143.435 205.324 146.009 201.382 150.273C197.44 154.536 190.603 162.661 189.316 165.959C188.35 168.372 190.04 176.014 191.005 179.956" stroke="#263238" stroke-width="2" stroke-linecap="round" stroke-linejoin="round" stroke-dasharray="3 3"/>
<path d="M191.327 181.162C191.488 181.886 191.649 182.289 191.649 182.289" stroke="#263238" stroke-width="2" stroke-linecap="round" stroke-linejoin="round"/>
<path d="M191.568 184.461C192.723 184.461 193.66 183.524 193.66 182.369C193.66 181.214 192.723 180.278 191.568 180.278C190.413 180.278 189.477 181.214 189.477 182.369C189.477 183.524 190.413 184.461 191.568 184.461Z" fill="#136AFB" stroke="#263238" stroke-miterlimit="10"/>
<path d="M212.564 137.16V141.746L208.22 143.918L212.564 146.25V150.433H242.73V137.16H212.564Z" fill="white" stroke="#263238" stroke-miterlimit="10" stroke-linecap="round" stroke-linejoin="round"/>
<path d="M217.953 139.895C218.355 139.895 218.758 139.574 218.758 139.091C218.758 138.689 218.436 138.287 217.953 138.287C217.551 138.287 217.149 138.608 217.149 139.091C217.229 139.574 217.551 139.895 217.953 139.895Z" fill="#263238"/>
<path d="M220.688 141.987L219.723 142.067C219.723 142.067 218.436 140.298 218.275 140.217C218.275 140.217 216.907 140.056 216.827 140.137L214.736 141.102C214.494 141.183 214.414 141.424 214.494 141.665L214.896 143.113C214.977 143.274 215.138 143.354 215.299 143.354C215.379 143.354 215.379 143.354 215.46 143.354C215.701 143.274 215.781 143.033 215.781 142.791L215.46 141.746L216.666 141.183L216.103 144.32L215.54 148.181C215.54 148.422 215.701 148.583 215.942 148.664C216.184 148.664 216.344 148.503 216.425 148.261L216.908 144.561L218.034 146.17L217.873 148.181C217.873 148.422 218.034 148.583 218.275 148.583C218.516 148.583 218.758 148.422 218.758 148.181L218.919 146.009C218.919 145.929 218.919 145.848 218.838 145.768L217.792 144.239L218.195 141.746L219.079 142.872C219.16 142.952 219.24 143.033 219.401 143.033L220.527 142.952C220.769 142.952 220.93 142.711 220.93 142.47C221.091 142.148 220.93 141.907 220.688 141.987Z" fill="#263238"/>
<path d="M223.423 143.435C223.343 143.355 223.262 143.274 223.262 143.194C223.262 143.113 223.262 143.033 223.343 142.952C223.423 142.872 223.423 142.872 223.504 142.872H223.584C223.665 142.872 223.745 142.952 223.745 142.952C223.826 142.952 223.826 142.952 223.986 143.033C224.067 143.033 224.147 143.033 224.228 143.033C224.469 143.033 224.63 142.952 224.71 142.872C224.791 142.791 224.871 142.631 224.871 142.47C224.871 142.309 224.791 142.148 224.63 141.987C224.469 141.907 224.308 141.826 224.067 141.826H223.826C223.745 141.826 223.665 141.826 223.665 141.746C223.665 141.665 223.584 141.665 223.584 141.585C223.584 141.504 223.584 141.424 223.665 141.424C223.665 141.343 223.745 141.343 223.826 141.343H223.986C224.228 141.343 224.389 141.263 224.469 141.183C224.63 141.102 224.63 140.941 224.63 140.78C224.63 140.7 224.63 140.539 224.55 140.539C224.469 140.539 224.389 140.378 224.308 140.378C224.228 140.378 224.147 140.298 223.986 140.298C223.745 140.298 223.504 140.378 223.343 140.459H223.262C223.182 140.459 223.102 140.459 223.102 140.378C223.021 140.298 223.021 140.217 223.021 140.137C223.021 140.056 223.021 139.976 223.102 139.976C223.182 139.896 223.343 139.896 223.504 139.815C223.665 139.735 223.826 139.735 224.067 139.735C224.469 139.735 224.71 139.815 224.952 139.976C225.193 140.137 225.274 140.378 225.274 140.7C225.274 140.941 225.193 141.102 225.113 141.183C225.032 141.343 224.871 141.424 224.71 141.504C224.952 141.585 225.113 141.665 225.193 141.826C225.274 141.987 225.354 142.148 225.354 142.389C225.354 142.55 225.354 142.711 225.274 142.872C225.193 143.033 225.113 143.113 224.952 143.194C224.871 143.274 224.71 143.355 224.55 143.355C224.389 143.435 224.228 143.435 224.067 143.435C223.986 143.676 223.665 143.596 223.423 143.435Z" fill="#263238"/>
<path d="M226.963 143.596C226.802 143.515 226.641 143.435 226.561 143.355C226.48 143.274 226.4 143.113 226.319 142.952C226.239 142.791 226.239 142.631 226.158 142.47C226.158 142.309 226.078 142.067 226.078 141.907C226.078 141.665 226.078 141.504 226.158 141.343C226.158 141.183 226.239 141.022 226.319 140.861C226.4 140.7 226.48 140.539 226.561 140.459C226.641 140.378 226.802 140.217 226.963 140.217C227.124 140.137 227.285 140.137 227.526 140.137C227.687 140.137 227.928 140.137 228.089 140.217C228.25 140.298 228.411 140.378 228.491 140.459C228.572 140.539 228.652 140.7 228.733 140.861C228.813 141.022 228.813 141.183 228.893 141.343C228.893 141.504 228.974 141.746 228.974 141.907C228.974 142.148 228.974 142.309 228.974 142.47C228.974 142.631 228.893 142.791 228.813 142.952C228.733 143.113 228.652 143.274 228.572 143.355C228.491 143.435 228.33 143.596 228.169 143.596C228.009 143.676 227.848 143.676 227.606 143.676C227.285 143.676 227.124 143.676 226.963 143.596ZM227.767 143.033C227.848 143.033 227.928 142.952 227.928 142.872C228.009 142.791 228.009 142.711 228.009 142.631C228.009 142.55 228.089 142.47 228.089 142.389C228.089 142.309 228.089 142.148 228.089 142.067C228.089 141.987 228.089 141.826 228.089 141.746C228.089 141.585 228.089 141.504 228.089 141.424C228.089 141.343 228.089 141.183 228.089 141.102C228.089 141.022 228.089 140.941 228.009 140.861C228.009 140.78 227.928 140.7 227.928 140.62C227.848 140.539 227.848 140.539 227.767 140.459C227.687 140.459 227.606 140.378 227.526 140.378C227.445 140.378 227.365 140.378 227.285 140.459C227.204 140.459 227.124 140.539 227.124 140.62C227.043 140.7 227.043 140.78 227.043 140.861C227.043 140.941 226.963 141.022 226.963 141.102C226.963 141.183 226.963 141.343 226.963 141.424C226.963 141.504 226.963 141.665 226.963 141.746C226.963 141.907 226.963 141.987 226.963 142.067C226.963 142.148 226.963 142.309 226.963 142.389C226.963 142.47 226.963 142.631 227.043 142.631C227.043 142.711 227.124 142.791 227.124 142.872C227.204 142.952 227.204 142.952 227.285 143.033C227.365 143.033 227.445 143.113 227.526 143.113C227.606 143.113 227.687 143.113 227.767 143.033Z" fill="#263238"/>
<path d="M230.985 143.515C230.905 143.435 230.904 143.355 230.904 143.274V141.424C230.904 141.343 230.905 141.263 230.985 141.183C231.065 141.102 231.146 141.102 231.226 141.102C231.307 141.102 231.387 141.102 231.468 141.183C231.548 141.263 231.548 141.343 231.548 141.424V141.585C231.709 141.263 231.95 141.102 232.352 141.102C232.594 141.102 232.755 141.183 232.916 141.263C233.076 141.343 233.157 141.504 233.237 141.665C233.398 141.263 233.72 141.102 234.122 141.102C234.364 141.102 234.605 141.183 234.766 141.343C234.927 141.504 235.007 141.746 235.007 142.067V143.355C235.007 143.435 235.007 143.515 234.927 143.596C234.846 143.676 234.766 143.676 234.685 143.676C234.605 143.676 234.524 143.676 234.444 143.596C234.364 143.515 234.364 143.435 234.364 143.355V142.067C234.364 141.907 234.283 141.746 234.203 141.665C234.122 141.585 234.042 141.504 233.881 141.504C233.72 141.504 233.559 141.585 233.398 141.665C233.318 141.826 233.237 141.987 233.237 142.228V143.274C233.237 143.355 233.237 143.435 233.157 143.515C233.076 143.596 232.996 143.596 232.916 143.596C232.835 143.596 232.755 143.596 232.674 143.515C232.594 143.435 232.594 143.355 232.594 143.274V142.067C232.594 141.907 232.513 141.746 232.433 141.665C232.352 141.585 232.272 141.504 232.111 141.504C231.95 141.504 231.789 141.585 231.628 141.665C231.548 141.826 231.468 141.987 231.468 142.148V143.274C231.468 143.355 231.468 143.435 231.387 143.515C231.307 143.596 231.226 143.596 231.146 143.596C231.065 143.596 230.985 143.596 230.985 143.515Z" fill="#263238"/>
<path d="M235.651 140.459C235.57 140.378 235.57 140.298 235.57 140.217C235.57 140.137 235.57 140.056 235.651 139.976C235.731 139.896 235.811 139.896 235.892 139.896C235.972 139.896 236.053 139.896 236.133 139.976C236.214 140.056 236.214 140.137 236.214 140.217C236.214 140.298 236.214 140.378 236.133 140.459C236.053 140.539 235.972 140.539 235.892 140.539C235.811 140.619 235.731 140.539 235.651 140.459ZM235.731 143.515C235.651 143.435 235.651 143.355 235.651 143.274V141.424C235.651 141.343 235.651 141.263 235.731 141.183C235.811 141.102 235.892 141.102 235.972 141.102C236.053 141.102 236.133 141.102 236.214 141.183C236.294 141.263 236.294 141.343 236.294 141.424V143.274C236.294 143.355 236.294 143.435 236.214 143.515C236.133 143.596 236.053 143.596 235.972 143.596C235.811 143.596 235.731 143.596 235.731 143.515Z" fill="#263238"/>
<path d="M236.938 143.515C236.857 143.435 236.857 143.355 236.857 143.274V141.424C236.857 141.343 236.857 141.263 236.938 141.183C237.018 141.102 237.099 141.102 237.179 141.102C237.259 141.102 237.34 141.102 237.42 141.183C237.501 141.263 237.501 141.343 237.501 141.424V141.504C237.581 141.344 237.662 141.263 237.823 141.183C237.983 141.102 238.144 141.102 238.305 141.102C238.466 141.102 238.547 141.102 238.627 141.183C238.707 141.183 238.868 141.263 238.949 141.343C239.029 141.424 239.11 141.504 239.11 141.665C239.11 141.826 239.19 141.907 239.19 142.067V143.355C239.19 143.435 239.19 143.515 239.11 143.596C239.029 143.676 238.949 143.676 238.868 143.676C238.788 143.676 238.707 143.676 238.627 143.596C238.547 143.515 238.547 143.435 238.547 143.355V142.067C238.547 141.907 238.466 141.746 238.386 141.665C238.305 141.585 238.144 141.504 238.064 141.504C237.903 141.504 237.742 141.585 237.662 141.665C237.501 141.826 237.501 141.987 237.501 142.148V143.194C237.501 143.274 237.501 143.355 237.42 143.435C237.34 143.515 237.259 143.515 237.179 143.515C237.099 143.596 237.018 143.596 236.938 143.515Z" fill="#263238"/>
<path d="M240.075 143.515C239.994 143.435 239.994 143.354 239.994 143.274C239.994 143.194 239.994 143.113 240.075 143.033C240.155 142.952 240.236 142.952 240.316 142.952C240.397 142.952 240.477 142.952 240.558 143.033C240.638 143.113 240.638 143.194 240.638 143.274C240.638 143.354 240.638 143.435 240.558 143.515C240.477 143.596 240.397 143.596 240.316 143.596C240.236 143.596 240.155 143.596 240.075 143.515Z" fill="#263238"/>
<g opacity="0.47">
<path opacity="0.47" d="M224.952 147.618L223.906 148.583H225.274C225.354 148.583 225.434 148.583 225.434 148.664C225.434 148.744 225.515 148.744 225.515 148.825C225.515 148.905 225.515 148.985 225.434 148.985C225.434 149.066 225.354 149.066 225.274 149.066H223.504C223.423 149.066 223.343 149.066 223.262 148.985C223.182 148.905 223.182 148.825 223.182 148.744C223.182 148.583 223.262 148.503 223.343 148.422L224.63 147.135C224.871 146.894 224.952 146.733 224.952 146.572C224.952 146.411 224.871 146.25 224.791 146.17C224.71 146.089 224.55 146.009 224.389 146.009C224.308 146.009 224.228 146.009 224.147 146.009C224.067 146.009 223.986 146.009 223.986 146.089C223.986 146.089 223.906 146.17 223.826 146.17C223.745 146.25 223.665 146.25 223.665 146.25H223.584C223.504 146.25 223.423 146.25 223.423 146.17C223.343 146.089 223.343 146.009 223.343 145.929C223.343 145.848 223.423 145.768 223.504 145.687C223.665 145.607 223.826 145.526 223.986 145.446C224.147 145.365 224.308 145.365 224.55 145.365C224.871 145.365 225.193 145.446 225.354 145.687C225.595 145.929 225.676 146.17 225.676 146.411C225.595 146.894 225.354 147.216 224.952 147.618Z" fill="#263238"/>
<path opacity="0.47" d="M227.848 148.985C227.767 148.905 227.767 148.825 227.767 148.744V145.848C227.767 145.768 227.767 145.687 227.848 145.607C227.928 145.526 228.009 145.526 228.089 145.526C228.169 145.526 228.25 145.526 228.33 145.607C228.411 145.687 228.411 145.768 228.411 145.848V147.698L229.457 146.653C229.537 146.572 229.537 146.572 229.617 146.572C229.698 146.572 229.778 146.572 229.778 146.653C229.859 146.733 229.859 146.813 229.859 146.894C229.859 146.974 229.859 147.055 229.778 147.055L229.054 147.779L229.939 148.664C230.02 148.744 230.02 148.744 230.02 148.824C230.02 148.905 230.02 148.985 229.939 148.985C229.859 149.066 229.778 149.066 229.698 149.066C229.617 149.066 229.537 149.066 229.457 148.985L228.33 147.779V148.664C228.33 148.744 228.33 148.825 228.25 148.905C228.169 148.985 228.089 148.985 228.009 148.985C228.009 149.066 227.928 149.066 227.848 148.985Z" fill="#263238"/>
<path opacity="0.47" d="M230.502 148.985C230.422 148.905 230.422 148.825 230.422 148.744V146.894C230.422 146.813 230.422 146.733 230.502 146.653C230.583 146.572 230.663 146.572 230.744 146.572C230.824 146.572 230.904 146.572 230.985 146.653C231.065 146.733 231.065 146.813 231.065 146.894V147.055C231.226 146.733 231.468 146.572 231.87 146.572C232.111 146.572 232.272 146.653 232.433 146.733C232.594 146.813 232.674 146.974 232.755 147.135C232.916 146.733 233.237 146.572 233.64 146.572C233.881 146.572 234.122 146.653 234.283 146.813C234.444 146.974 234.524 147.216 234.524 147.537V148.825C234.524 148.905 234.524 148.985 234.444 149.066C234.364 149.146 234.283 149.146 234.203 149.146C234.122 149.146 234.042 149.146 233.961 149.066C233.881 148.985 233.881 148.905 233.881 148.825V147.537C233.881 147.377 233.8 147.216 233.72 147.135C233.64 147.055 233.559 146.974 233.398 146.974C233.237 146.974 233.076 147.055 232.916 147.135C232.835 147.296 232.755 147.457 232.755 147.698V148.744C232.755 148.825 232.755 148.905 232.674 148.985C232.594 149.066 232.513 149.066 232.433 149.066C232.352 149.066 232.272 149.066 232.192 148.985C232.111 148.905 232.111 148.825 232.111 148.744V147.537C232.111 147.377 232.031 147.216 231.95 147.135C231.87 147.055 231.789 146.974 231.628 146.974C231.468 146.974 231.307 147.055 231.146 147.135C231.065 147.296 230.985 147.457 230.985 147.618V148.744C230.985 148.825 230.985 148.905 230.904 148.985C230.824 149.066 230.744 149.066 230.663 149.066C230.663 149.066 230.583 149.066 230.502 148.985Z" fill="#263238"/>
</g>
<path d="M277.642 68.9452H166.39V248.895H277.642V68.9452Z" stroke="#263238" stroke-miterlimit="10" stroke-linecap="round" stroke-linejoin="round"/>
<path d="M234.122 56.3157H209.909C209.024 56.3157 208.3 55.5917 208.3 54.7069C208.3 53.822 209.024 53.098 209.909 53.098H234.122C235.007 53.098 235.731 53.822 235.731 54.7069C235.731 55.5917 235.007 56.3157 234.122 56.3157Z" fill="white"/>
<path d="M228.652 259.031C228.652 255.411 225.676 252.434 222.056 252.434C218.436 252.434 215.46 255.411 215.46 259.031C215.46 262.651 218.436 265.627 222.056 265.627C225.676 265.627 228.652 262.731 228.652 259.031Z" fill="#263238" stroke="white" stroke-width="0.7043" stroke-miterlimit="10" stroke-linecap="round" stroke-linejoin="round"/>
<path d="M225.354 255.733H218.677V262.409H225.354V255.733Z" fill="white"/>
<path d="M48.7024 169.176L68.813 106.834L72.1916 105.064L51.9201 169.498L48.7024 169.176Z" fill="#263238" stroke="#263238" stroke-miterlimit="10" stroke-linecap="round" stroke-linejoin="round"/>
<path d="M114.987 282.359C114.987 282.359 120.779 283.887 123.514 284.048C126.249 284.29 130.351 283.646 130.754 284.933C131.156 286.22 126.088 289.197 122.629 290.484C119.25 291.771 115.63 291.529 112.413 292.173C109.195 292.817 106.621 292.575 105.977 292.173C105.334 291.771 105.977 286.22 105.977 286.22L114.987 282.359Z" fill="white"/>
<path opacity="0.2" d="M130.834 285.014C130.351 285.094 129.708 285.255 129.145 285.657C127.214 286.944 127.536 288.312 118.607 288.312C109.678 288.312 111.608 287.91 111.608 286.703C111.608 285.898 113.137 283.968 114.102 282.761L106.058 286.22C106.058 286.22 105.414 291.771 106.058 292.173C106.701 292.575 109.276 292.817 112.493 292.173C115.711 291.529 119.331 291.771 122.709 290.484C126.008 289.197 130.915 286.301 130.834 285.014Z" fill="#263238"/>
<path d="M105.736 290.564C105.736 290.564 110 291.288 115.791 290.242C121.583 289.197 128.34 284.853 130.271 284.531" stroke="#263238" stroke-miterlimit="10" stroke-linecap="round" stroke-linejoin="round"/>
<path d="M114.987 282.359C114.987 282.359 120.779 283.887 123.514 284.048C126.249 284.29 130.351 283.646 130.754 284.933C131.156 286.22 126.088 289.197 122.629 290.484C119.25 291.771 115.63 291.529 112.413 292.173C109.195 292.817 106.621 292.575 105.977 292.173C105.334 291.771 105.977 286.22 105.977 286.22L114.987 282.359Z" stroke="#263238" stroke-miterlimit="10" stroke-linecap="round" stroke-linejoin="round"/>
<path d="M56.3444 279.544C56.3444 279.544 54.0116 283.163 52.7245 284.048C51.4374 284.933 48.2197 287.427 47.5762 289.599C46.9327 291.771 49.909 292.575 52.4832 292.334C55.0573 292.093 58.0337 292.334 59.4817 290.001C61.0101 287.668 63.7451 280.428 63.7451 280.428C63.7451 280.428 58.275 278.498 56.3444 279.544Z" fill="white"/>
<path opacity="0.2" d="M60.6079 287.99C60.2057 288.151 59.8034 288.231 59.4012 288.392C55.6204 289.84 54.4138 288.07 53.8507 287.346C53.368 286.783 59.4817 281.796 61.8949 279.785C60.1252 279.302 57.4706 278.82 56.264 279.463C56.264 279.463 53.9311 283.083 52.6441 283.968C51.357 284.853 48.1393 287.346 47.4958 289.518C46.8522 291.69 49.8286 292.495 52.4027 292.253C54.9769 292.012 57.9533 292.253 59.4012 289.921C59.8839 289.518 60.2861 288.794 60.6079 287.99Z" fill="#263238"/>
<path d="M47.6566 289.599C47.6566 289.599 50.8743 291.61 55.54 290.725C60.2057 289.84 60.7688 287.507 60.7688 287.507" stroke="#263238" stroke-miterlimit="10" stroke-linecap="round" stroke-linejoin="round"/>
<path d="M56.3444 279.544C56.3444 279.544 54.0116 283.163 52.7245 284.048C51.4374 284.933 48.2197 287.427 47.5762 289.599C46.9327 291.771 49.909 292.575 52.4832 292.334C55.0573 292.093 58.0337 292.334 59.4817 290.001C61.0101 287.668 63.7451 280.428 63.7451 280.428C63.7451 280.428 58.275 278.498 56.3444 279.544Z" stroke="#263238" stroke-miterlimit="10" stroke-linecap="round" stroke-linejoin="round"/>
<path d="M65.5148 189.77C65.5148 189.77 66.1584 215.753 65.9171 216.638C65.6757 217.522 63.5842 226.049 62.9407 229.026C62.2972 232.002 59.9643 240.368 60.2057 249.056C60.447 257.824 57.6315 271.258 57.6315 271.258C57.6315 271.258 55.9422 274.878 56.1031 275.763C56.3444 276.648 56.3444 279.624 56.3444 279.624C56.3444 279.624 59.9643 280.026 62.2972 280.509C64.63 280.911 64.63 278.82 64.63 278.82C64.63 278.82 66.8019 276.085 66.9628 273.913C67.2041 271.741 69.3761 265.627 69.3761 265.627C69.3761 265.627 77.179 241.736 78.4661 238.759C79.7532 235.783 82.086 225.728 83.3731 221.947C84.6602 218.086 89.3258 197.653 89.3258 197.653C89.3258 197.653 96.807 231.117 96.807 234.094C96.807 237.07 95.5199 246.643 97.0483 252.837C98.5767 259.031 104.047 276.085 104.047 276.085C104.047 276.085 103.001 280.75 103.001 281.635C103.001 282.52 105.977 286.301 105.977 286.301L114.907 282.44C114.907 282.44 114.665 275.843 114.665 274.315C114.665 272.786 115.711 268.121 115.309 266.19C114.907 264.26 111.689 261.927 111.689 259.996C111.689 258.065 114.263 235.863 114.022 227.819C113.78 219.694 110.402 187.517 108.873 183.656C107.345 179.795 98.0136 169.82 94.1524 169.337C90.452 168.855 65.5148 189.77 65.5148 189.77Z" fill="#263238" stroke="#263238" stroke-miterlimit="10" stroke-linecap="round" stroke-linejoin="round"/>
<path d="M98.4962 232.002C98.4962 232.002 102.357 224.601 105.897 218.488" stroke="white" stroke-miterlimit="10" stroke-linecap="round" stroke-linejoin="round"/>
<path d="M108.471 215.833L109.436 213.581" stroke="white" stroke-miterlimit="10" stroke-linecap="round" stroke-linejoin="round"/>
<path d="M73.72 249.378C73.72 249.378 69.2152 257.261 61.171 261.605" stroke="white" stroke-miterlimit="10" stroke-linecap="round" stroke-linejoin="round"/>
<path d="M69.8587 262.892C69.8587 262.892 65.354 265.788 63.1016 266.753" stroke="white" stroke-miterlimit="10" stroke-linecap="round" stroke-linejoin="round"/>
<path d="M148.371 111.178L140.729 126.301L146.279 129.679L155.771 110.534C156.013 110.051 155.61 109.488 155.047 109.488L149.899 110.051C149.336 110.212 148.692 110.614 148.371 111.178Z" fill="#263238" stroke="#263238" stroke-miterlimit="10" stroke-linecap="round" stroke-linejoin="round"/>
<path d="M140.568 141.585C140.568 141.585 149.658 131.61 150.542 130.645C151.347 129.679 151.91 123.003 151.91 122.359C151.91 121.715 148.21 115.843 148.21 115.843L147.003 116.487L150.784 123.163L144.348 117.613L143.544 118.578L149.014 124.692L148.371 127.266L142.498 120.348L141.372 121.474L146.44 128.794L141.292 125.255L140.729 126.381L144.107 131.127C144.107 131.127 141.131 131.771 140.568 133.46C140.005 135.069 140.407 136.195 140.407 136.195L138.074 138.206L140.568 141.585Z" fill="white"/>
<path opacity="0.1" d="M140.568 141.585C140.568 141.585 149.658 131.61 150.542 130.645C151.347 129.679 151.91 123.003 151.91 122.359C151.91 121.715 148.21 115.843 148.21 115.843L147.003 116.487L150.784 123.163L144.348 117.613L143.544 118.578L149.014 124.692L148.371 127.266L142.498 120.348L141.372 121.474L146.44 128.794L141.292 125.255L140.729 126.381L144.107 131.127C144.107 131.127 141.131 131.771 140.568 133.46C140.005 135.069 140.407 136.195 140.407 136.195L138.074 138.206L140.568 141.585Z" fill="#263238"/>
<path opacity="0.2" d="M144.107 131.047C144.027 131.047 141.131 131.771 140.568 133.38C140.005 134.988 140.407 136.115 140.407 136.115L138.074 138.126L140.487 141.504C140.487 141.504 149.577 131.529 150.462 130.564C150.623 130.323 150.864 129.76 151.025 129.036C149.979 129.599 145.716 131.61 145.233 131.61C144.992 131.69 144.509 131.368 144.107 131.047Z" fill="#263238"/>
<path d="M140.568 141.585C140.568 141.585 149.658 131.61 150.542 130.645C151.347 129.679 151.91 123.003 151.91 122.359C151.91 121.715 148.21 115.843 148.21 115.843L147.003 116.487L150.784 123.163L144.348 117.613L143.544 118.578L149.014 124.692L148.371 127.266L142.498 120.348L141.372 121.474L146.44 128.794L141.292 125.255L140.729 126.381L144.107 131.127C144.107 131.127 141.131 131.771 140.568 133.46C140.005 135.069 140.407 136.195 140.407 136.195L138.074 138.206L140.568 141.585Z" stroke="#263238" stroke-miterlimit="10" stroke-linecap="round" stroke-linejoin="round"/>
<path d="M148.371 127.266L148.451 129.438" stroke="#263238" stroke-miterlimit="10" stroke-linecap="round" stroke-linejoin="round"/>
<path d="M150.784 123.163L150.945 125.577" stroke="#263238" stroke-miterlimit="10" stroke-linecap="round" stroke-linejoin="round"/>
<path d="M146.44 128.714L146.279 129.679" stroke="#263238" stroke-miterlimit="10" stroke-linecap="round" stroke-linejoin="round"/>
<path d="M141.694 142.55L143.464 140.056L140.487 136.115L138.235 137.482L141.694 142.55Z" fill="white" stroke="#263238" stroke-miterlimit="10" stroke-linecap="round" stroke-linejoin="round"/>
<path d="M138.717 136.919L143.383 143.596C143.383 143.596 126.892 156.949 123.916 158.639C120.94 160.247 119.813 160.971 119.411 161.052C119.009 161.213 109.597 144.159 107.425 139.252C105.253 134.345 114.424 111.741 114.424 111.741C114.424 111.741 120.457 127.99 122.066 133.058C123.675 138.126 126.41 142.711 126.41 142.711L138.717 136.919Z" fill="#136AFB"/>
<path opacity="0.3" d="M141.292 145.205C136.465 145.526 127.536 146.009 125.364 146.009C122.549 146.009 118.366 149.146 118.366 149.146C118.366 149.146 116.837 149.709 116.113 148.261C115.389 146.733 117.159 143.596 117.159 143.596C117.159 143.596 114.746 143.033 113.861 142.067C112.976 141.183 111.608 121.233 111.608 121.233L110.723 121.474C108.391 128.231 106.058 136.436 107.345 139.252C109.517 144.159 118.929 161.213 119.331 161.052C119.733 160.891 120.859 160.247 123.836 158.639C126.168 157.351 136.787 148.825 141.292 145.205Z" fill="black"/>
<path d="M138.717 136.919L143.383 143.596C143.383 143.596 126.892 156.949 123.916 158.639C120.94 160.247 119.813 160.971 119.411 161.052C119.009 161.213 109.597 144.159 107.425 139.252C105.253 134.345 114.424 111.741 114.424 111.741C114.424 111.741 120.457 127.99 122.066 133.058C123.675 138.126 126.41 142.711 126.41 142.711L138.717 136.919Z" stroke="#263238" stroke-miterlimit="10" stroke-linecap="round" stroke-linejoin="round"/>
<path d="M126.651 142.47C126.651 142.47 120.135 145.205 119.009 146.813C117.883 148.422 117.802 150.916 117.802 150.916" stroke="#263238" stroke-miterlimit="10" stroke-linecap="round" stroke-linejoin="round"/>
<path d="M107.908 143.033C107.908 143.033 108.391 139.896 109.436 137.804C110.482 135.632 113.298 117.291 114.343 114.315C114.585 113.591 114.665 112.947 114.585 112.384C114.424 111.902 114.263 111.419 113.941 110.936C112.735 109.166 105.816 103.696 103.403 102.007C100.99 100.237 96.9678 98.6285 94.5546 98.6285C92.1413 98.6285 87.0734 98.7894 87.0734 98.7894C87.0734 98.7894 81.4424 101.444 78.7878 102.248C76.1332 103.053 64.3082 108.282 64.3082 109.166C64.3082 110.132 66.7215 158.88 66.7215 158.88L64.5495 192.103C64.5495 192.103 74.2831 188.483 80.5576 185.185C86.8321 181.886 94.7154 173.038 94.7154 173.038C94.7154 173.038 100.588 178.669 103.162 180.519C105.736 182.369 112.091 189.609 112.091 189.609L106.862 152.686L107.908 143.033Z" fill="#136AFB"/>
<path d="M82.3273 101.605C82.3273 101.605 78.4661 115.602 79.9945 121.555C81.5229 127.507 88.5214 137.321 88.5214 137.321" stroke="#263238" stroke-miterlimit="10" stroke-linecap="round" stroke-linejoin="round"/>
<path d="M100.749 100.881C100.749 100.881 110.08 116.889 109.276 123.646C108.471 130.403 101.794 137.884 101.794 137.884" stroke="#263238" stroke-miterlimit="10" stroke-linecap="round" stroke-linejoin="round"/>
<path opacity="0.3" d="M110.08 136.437C110.08 136.437 92.5435 147.94 91.8195 148.422C91.0955 148.905 72.6742 143.355 74.7657 144.561C76.8572 145.768 93.911 154.777 93.911 154.777L104.69 151.64L107.667 156.708L106.943 150.997L110.08 136.437Z" fill="black"/>
<path opacity="0.2" d="M69.537 173.36C70.7436 172.475 71.9502 165.154 71.7893 163.304C71.6285 161.535 71.7893 138.126 72.1111 135.149C72.4329 132.173 68.4912 143.274 68.4912 143.274L69.6978 129.76L65.7562 138.287C66.3193 149.146 66.8019 158.88 66.8019 158.88L65.8366 174.244C67.5259 174.084 69.0543 173.762 69.537 173.36Z" fill="#263238"/>
<path d="M107.908 143.033C107.908 143.033 108.391 139.896 109.436 137.804C110.482 135.632 113.298 117.291 114.343 114.315C114.585 113.591 114.665 112.947 114.585 112.384C114.424 111.902 114.263 111.419 113.941 110.936C112.735 109.166 105.816 103.696 103.403 102.007C100.99 100.237 96.9678 98.6285 94.5546 98.6285C92.1413 98.6285 87.0734 98.7894 87.0734 98.7894C87.0734 98.7894 81.4424 101.444 78.7878 102.248C76.1332 103.053 64.3082 108.282 64.3082 109.166C64.3082 110.132 66.7215 158.88 66.7215 158.88L64.5495 192.103C64.5495 192.103 74.2831 188.483 80.5576 185.185C86.8321 181.886 94.7154 173.038 94.7154 173.038C94.7154 173.038 100.588 178.669 103.162 180.519C105.736 182.369 112.091 189.609 112.091 189.609L106.862 152.686L107.908 143.033Z" stroke="#263238" stroke-miterlimit="10" stroke-linecap="round" stroke-linejoin="round"/>
<path d="M93.5892 150.594C93.5892 150.594 94.0719 162.5 94.3132 169.337" stroke="#263238" stroke-miterlimit="10" stroke-linecap="round" stroke-linejoin="round"/>
<path d="M95.9221 152.364C95.9221 152.766 95.6807 153.169 95.359 153.169C95.0372 153.169 94.7959 152.847 94.7959 152.364C94.7959 151.881 95.0372 151.56 95.359 151.56C95.6807 151.56 95.9221 151.962 95.9221 152.364Z" fill="#263238"/>
<path d="M96.2439 159.604C96.2439 160.006 96.0025 160.408 95.6807 160.408C95.359 160.408 95.1176 160.087 95.1176 159.604C95.1176 159.121 95.359 158.799 95.6807 158.799C95.9221 158.799 96.2439 159.121 96.2439 159.604Z" fill="#263238"/>
<path d="M96.9678 167.809C96.9678 168.211 96.7265 168.613 96.4047 168.613C96.0829 168.613 95.8416 168.292 95.8416 167.809C95.8416 167.326 96.0829 167.005 96.4047 167.005C96.7265 167.005 96.9678 167.407 96.9678 167.809Z" fill="#263238"/>
<path d="M84.5797 81.3334C84.5797 81.3334 83.1317 79.4833 82.3273 81.1725C81.5229 82.9423 81.5229 86.16 82.086 87.4471C82.6491 88.8146 84.2579 89.6994 84.3384 88.895C84.4188 88.171 84.5797 81.3334 84.5797 81.3334Z" fill="white"/>
<path opacity="0.2" d="M84.5797 81.3334C84.5797 81.3334 83.1317 79.4833 82.3273 81.1725C81.5229 82.9423 81.5229 86.16 82.086 87.4471C82.6491 88.8146 84.2579 89.6994 84.3384 88.895C84.4188 88.171 84.5797 81.3334 84.5797 81.3334Z" fill="#263238"/>
<path d="M84.5797 81.3334C84.5797 81.3334 83.1317 79.4833 82.3273 81.1725C81.5229 82.9423 81.5229 86.16 82.086 87.4471C82.6491 88.8146 84.2579 89.6994 84.3384 88.895C84.4188 88.171 84.5797 81.3334 84.5797 81.3334Z" stroke="#263238" stroke-miterlimit="10" stroke-linecap="round" stroke-linejoin="round"/>
<path d="M85.8668 99.272C85.8668 99.272 85.7059 108.362 86.1081 115.682C86.5103 123.003 85.4646 128.553 87.3147 132.414C89.1649 136.276 93.5893 148.744 94.1523 147.94C94.7154 147.135 103.081 133.058 104.208 128.312C105.253 123.485 102.84 108.684 101.553 105.547C100.186 102.49 99.7833 99.8351 98.1745 99.0307C96.5656 98.2263 89.1649 94.6868 85.8668 99.272Z" fill="white" stroke="#263238" stroke-miterlimit="10" stroke-linecap="round" stroke-linejoin="round"/>
<path d="M85.545 98.4676C85.545 98.4676 85.7059 101.283 87.1538 103.536C88.6018 105.788 93.2675 112.867 94.3937 112.465C95.4394 112.062 98.2549 103.777 99.0593 100.8C99.8637 97.8241 100.829 92.7562 100.829 92.7562C100.829 92.7562 97.2091 96.9392 94.7154 97.8241C92.1413 98.8699 85.545 98.4676 85.545 98.4676Z" fill="white" stroke="#263238" stroke-miterlimit="10" stroke-linecap="round" stroke-linejoin="round"/>
<path opacity="0.1" d="M85.545 98.4676C85.545 98.4676 85.7059 101.283 87.1538 103.536C88.6018 105.788 93.2675 112.867 94.3937 112.465C95.4394 112.062 98.2549 103.777 99.0593 100.8C99.8637 97.8241 100.829 92.7562 100.829 92.7562C100.829 92.7562 97.2091 96.9392 94.7154 97.8241C92.1413 98.8699 85.545 98.4676 85.545 98.4676Z" fill="#263238"/>
<path opacity="0.2" d="M95.1177 102.651C97.9332 99.6743 100.266 94.6064 100.266 94.6064L99.542 94.2847C98.2549 95.5717 96.2439 97.4219 94.7155 97.985C92.1413 98.9503 85.6255 98.5481 85.6255 98.5481C85.6255 98.5481 85.7863 101.364 87.2343 103.616C87.7974 104.501 88.7627 106.029 89.8889 107.558C91.2564 106.351 93.4284 104.501 95.1177 102.651Z" fill="#263238"/>
<path d="M104.047 84.7924C105.253 81.5747 106.701 77.2308 106.701 75.3002C106.701 72.0825 102.921 67.0146 97.6114 66.4515C92.3022 65.8884 87.5561 69.8301 86.1081 72.8869C84.6601 75.9437 82.7295 90.2625 82.7295 93.078C82.7295 95.8935 84.7406 100.961 89.8085 101.122C94.8763 101.283 97.8527 98.1458 98.4962 97.1001C99.1398 96.0543 101.312 92.5149 101.312 92.5149C102.277 92.354 104.771 91.3082 104.771 91.3082C106.782 90.3429 106.54 87.447 106.54 85.2751C106.54 83.1835 104.047 84.7924 104.047 84.7924Z" fill="white"/>
<path opacity="0.1" d="M104.047 84.7924C105.253 81.5747 106.701 77.2308 106.701 75.3002C106.701 72.0825 102.921 67.0146 97.6114 66.4515C92.3022 65.8884 87.5561 69.8301 86.1081 72.8869C84.6601 75.9437 82.7295 90.2625 82.7295 93.078C82.7295 95.8935 84.7406 100.961 89.8085 101.122C94.8763 101.283 97.8527 98.1458 98.4962 97.1001C99.1398 96.0543 101.312 92.5149 101.312 92.5149C102.277 92.354 104.771 91.3082 104.771 91.3082C106.782 90.3429 106.54 87.447 106.54 85.2751C106.54 83.1835 104.047 84.7924 104.047 84.7924Z" fill="#263238"/>
<path opacity="0.2" d="M87.8778 79.081C88.2801 78.1157 88.1192 74.0936 92.0608 70.2323C94.3937 67.8995 97.2896 67.1755 99.3007 66.8537C98.7376 66.6929 98.1745 66.532 97.6114 66.532C92.3022 65.9689 87.5561 69.9106 86.1081 72.9674C84.6601 76.0242 82.7295 90.3429 82.7295 93.1584C82.7295 95.9739 84.7406 101.042 89.8085 101.203C93.6697 101.283 96.2439 99.5938 97.6114 98.2263C97.4505 98.2263 97.2896 98.3067 97.1287 98.3872C95.7612 99.0307 93.187 100.157 90.3716 100.157C87.5561 100.157 84.821 98.5481 84.4188 95.0086C84.0166 91.4691 85.2232 86.4012 86.4299 84.7924C87.717 83.1835 87.4756 80.0463 87.8778 79.081Z" fill="#263238"/>
<path d="M104.047 84.7924C105.253 81.5747 106.701 77.2308 106.701 75.3002C106.701 72.0825 102.921 67.0146 97.6114 66.4515C92.3022 65.8884 87.5561 69.8301 86.1081 72.8869C84.6601 75.9437 82.7295 90.2625 82.7295 93.078C82.7295 95.8935 84.7406 100.961 89.8085 101.122C94.8763 101.283 97.8527 98.1458 98.4962 97.1001C99.1398 96.0543 101.312 92.5149 101.312 92.5149C102.277 92.354 104.771 91.3082 104.771 91.3082C106.782 90.3429 106.54 87.447 106.54 85.2751C106.54 83.1835 104.047 84.7924 104.047 84.7924Z" stroke="#263238" stroke-miterlimit="10" stroke-linecap="round" stroke-linejoin="round"/>
<path d="M90.2107 86.3208C90.2107 86.3208 88.4409 87.7688 89.004 89.1363C89.5671 90.5038 91.176 90.906 92.2217 90.5843C93.2675 90.3429 93.4284 87.5274 93.4284 87.5274" stroke="#263238" stroke-miterlimit="10" stroke-linecap="round" stroke-linejoin="round"/>
<path d="M87.9583 92.5953L91.9804 93.802" stroke="#263238" stroke-miterlimit="10" stroke-linecap="round" stroke-linejoin="round"/>
<path d="M92.0608 81.1725C92.0608 81.1725 90.452 79.5636 89.0845 79.3223C87.717 79.081 86.6712 79.1614 86.6712 79.1614" stroke="#263238" stroke-miterlimit="10" stroke-linecap="round" stroke-linejoin="round"/>
<path d="M94.7959 81.9769C94.7959 81.9769 96.1634 81.4139 98.1745 81.9769C100.186 82.54 100.588 83.7467 100.588 83.7467" stroke="#263238" stroke-miterlimit="10" stroke-linecap="round" stroke-linejoin="round"/>
<path d="M89.5671 83.1835C89.4063 83.827 89.0041 84.2293 88.6018 84.1488C88.1996 84.0684 87.9583 83.5053 88.1192 82.8617C88.2801 82.2182 88.6823 81.816 89.0845 81.8964C89.4063 81.9769 89.6476 82.54 89.5671 83.1835Z" fill="#263238"/>
<path d="M96.8069 84.9533C96.6461 85.5968 96.2439 85.999 95.8416 85.9186C95.4394 85.8382 95.1981 85.2751 95.359 84.6315C95.5199 83.988 95.9221 83.5858 96.3243 83.6662C96.7265 83.7466 96.8874 84.3098 96.8069 84.9533Z" fill="#263238"/>
<path d="M97.6114 66.532C92.3022 65.9689 87.5561 69.9106 86.1081 72.9674C85.545 74.174 84.9015 76.9895 84.3384 80.1267C85.2232 78.9201 86.993 76.4264 86.993 75.622C86.993 74.5762 87.7974 71.5998 89.6476 69.7497C91.4978 67.8995 92.3022 68.1408 93.911 69.5083C95.5199 70.8759 97.1287 72.1629 99.6224 72.1629C102.197 72.1629 104.69 72.0021 104.449 74.3349C104.208 76.5873 102.599 79.4028 102.599 80.6094C102.599 81.816 101.794 87.1252 102.599 86.3208C103.001 85.9186 103.564 85.2751 103.966 84.712C105.173 81.4943 106.621 77.2308 106.621 75.3002C106.701 72.1629 102.921 67.0146 97.6114 66.532Z" fill="#263238"/>
<path d="M87.8778 116.004L94.3937 112.545L102.679 115.602" stroke="#263238" stroke-miterlimit="10" stroke-linecap="round" stroke-linejoin="round"/>
<path d="M90.3716 114.637L94.3937 118.659L91.176 141.424L94.1523 147.94L98.0136 141.504L95.8416 118.096L98.4158 114.234L94.3937 112.545L90.3716 114.637Z" fill="#263238"/>
<path d="M84.3384 171.59L48.7024 169.177C48.7024 169.177 42.267 195.562 42.4279 197.01C42.5887 198.458 46.0478 199.262 50.2308 200.388C56.1835 201.997 79.9945 204.571 83.2122 204.41C86.4299 204.249 85.9472 199.101 86.1081 198.136C86.269 197.17 88.1996 172.072 88.1996 172.072L84.3384 171.59Z" fill="white"/>
<path opacity="0.5" d="M84.3384 171.59L48.7024 169.177C48.7024 169.177 42.267 195.562 42.4279 197.01C42.5887 198.458 46.0478 199.262 50.2308 200.388C56.1835 201.997 79.9945 204.571 83.2122 204.41C86.4299 204.249 85.9472 199.101 86.1081 198.136C86.269 197.17 88.1996 172.072 88.1996 172.072L84.3384 171.59Z" fill="black"/>
<path d="M84.3384 171.59L48.7024 169.177C48.7024 169.177 42.267 195.562 42.4279 197.01C42.5887 198.458 46.0478 199.262 50.2308 200.388C56.1835 201.997 79.9945 204.571 83.2122 204.41C86.4299 204.249 85.9472 199.101 86.1081 198.136C86.269 197.17 88.1996 172.072 88.1996 172.072L84.3384 171.59Z" stroke="#263238" stroke-miterlimit="10" stroke-linecap="round" stroke-linejoin="round"/>
<path d="M84.3384 171.59C84.3384 171.59 79.8336 201.997 79.8336 203.123C79.8336 204.249 86.269 205.215 86.993 203.123C87.7974 201.032 90.5324 172.877 90.5324 172.394C90.6129 171.912 84.3384 171.59 84.3384 171.59Z" fill="white"/>
<path opacity="0.5" d="M84.3384 171.59C84.3384 171.59 79.8336 201.997 79.8336 203.123C79.8336 204.249 86.269 205.215 86.993 203.123C87.7974 201.032 90.5324 172.877 90.5324 172.394C90.6129 171.912 84.3384 171.59 84.3384 171.59Z" fill="black"/>
<path d="M84.3384 171.59C84.3384 171.59 79.8336 201.997 79.8336 203.123C79.8336 204.249 86.269 205.215 86.993 203.123C87.7974 201.032 90.5324 172.877 90.5324 172.394C90.6129 171.912 84.3384 171.59 84.3384 171.59Z" stroke="#263238" stroke-miterlimit="10" stroke-linecap="round" stroke-linejoin="round"/>
<path d="M73.4786 104.259L86.7516 167.889L85.1428 186.793L88.0387 186.954L89.9693 167.085L77.0181 102.972L73.4786 104.259Z" fill="#263238" stroke="#263238" stroke-miterlimit="10" stroke-linecap="round" stroke-linejoin="round"/>
<path d="M75.8115 165.959C75.8115 165.959 78.8683 165.959 79.2705 165.959C79.6727 165.959 83.534 163.546 84.7406 163.546C85.9472 163.546 88.6018 163.706 89.728 163.706C90.7738 163.706 91.4978 162.661 91.4978 163.948C91.4978 165.315 89.8889 166.12 89.0845 166.2C88.2801 166.361 85.2232 166.763 85.2232 166.763C85.2232 166.763 92.3022 169.579 92.5435 169.981C92.7848 170.383 92.9457 172.153 91.9804 172.394C91.0151 172.636 89.4063 172.957 89.4063 172.957C89.4063 172.957 89.004 174.325 88.7627 175.21C88.5214 176.175 87.5561 176.577 87.5561 176.577C87.5561 176.577 86.5908 177.623 85.9472 178.025C85.3037 178.427 82.3273 177.864 80.7185 177.462C79.1096 177.06 75.0071 174.405 74.6048 174.083C74.2026 173.842 72.3524 171.912 72.3524 171.912L75.8115 165.959Z" fill="white"/>
<path opacity="0.1" d="M75.8115 165.959C75.8115 165.959 78.8683 165.959 79.2705 165.959C79.6727 165.959 83.534 163.546 84.7406 163.546C85.9472 163.546 88.6018 163.706 89.728 163.706C90.7738 163.706 91.4978 162.661 91.4978 163.948C91.4978 165.315 89.8889 166.12 89.0845 166.2C88.2801 166.361 85.2232 166.763 85.2232 166.763C85.2232 166.763 92.3022 169.579 92.5435 169.981C92.7848 170.383 92.9457 172.153 91.9804 172.394C91.0151 172.636 89.4063 172.957 89.4063 172.957C89.4063 172.957 89.004 174.325 88.7627 175.21C88.5214 176.175 87.5561 176.577 87.5561 176.577C87.5561 176.577 86.5908 177.623 85.9472 178.025C85.3037 178.427 82.3273 177.864 80.7185 177.462C79.1096 177.06 75.0071 174.405 74.6048 174.083C74.2026 173.842 72.3524 171.912 72.3524 171.912L75.8115 165.959Z" fill="#263238"/>
<path opacity="0.2" d="M85.9472 178.025C86.5908 177.623 87.5561 176.577 87.5561 176.577C87.5561 176.577 88.5214 176.175 88.7627 175.21C89.004 174.244 89.4062 172.957 89.4062 172.957C89.4062 172.957 91.0151 172.716 91.9804 172.394C92.3022 172.314 92.5435 171.992 92.6239 171.67C91.176 171.59 89.2454 171.429 88.6823 171.429C87.6365 171.429 87.6365 174.084 87.3952 174.968C87.1539 175.853 86.1081 176.497 84.821 175.692C83.5339 174.968 76.0528 171.59 75.8115 171.268C75.5701 170.866 76.2137 168.211 76.8572 167.729C77.5008 167.246 81.8447 164.913 81.8447 164.913L81.6838 164.833C80.5576 165.396 79.5118 165.959 79.3509 165.959C78.9487 165.959 75.8919 165.959 75.8919 165.959L72.4329 171.992C72.4329 171.992 74.2831 173.842 74.6853 174.164C75.0875 174.405 79.2705 177.14 80.7989 177.543C82.3273 177.864 85.3037 178.427 85.9472 178.025Z" fill="#263238"/>
<path opacity="0.2" d="M87.5561 165.717C84.6601 166.12 85.2232 166.844 85.2232 166.844C85.2232 166.844 88.28 166.441 89.0845 166.281C89.8889 166.12 91.4977 165.315 91.4977 164.028C91.4977 163.948 91.4977 163.948 91.4977 163.867C90.5324 164.752 89.9693 165.396 87.5561 165.717Z" fill="#263238"/>
<path d="M75.8115 165.959C75.8115 165.959 78.8683 165.959 79.2705 165.959C79.6727 165.959 83.534 163.546 84.7406 163.546C85.9472 163.546 88.6018 163.706 89.728 163.706C90.7738 163.706 91.4978 162.661 91.4978 163.948C91.4978 165.315 89.8889 166.12 89.0845 166.2C88.2801 166.361 85.2232 166.763 85.2232 166.763C85.2232 166.763 92.3022 169.579 92.5435 169.981C92.7848 170.383 92.9457 172.153 91.9804 172.394C91.0151 172.636 89.4063 172.957 89.4063 172.957C89.4063 172.957 89.004 174.325 88.7627 175.21C88.5214 176.175 87.5561 176.577 87.5561 176.577C87.5561 176.577 86.5908 177.623 85.9472 178.025C85.3037 178.427 82.3273 177.864 80.7185 177.462C79.1096 177.06 75.0071 174.405 74.6048 174.083C74.2026 173.842 72.3524 171.912 72.3524 171.912L75.8115 165.959Z" stroke="#263238" stroke-miterlimit="10" stroke-linecap="round" stroke-linejoin="round"/>
<path d="M74.2026 163.706L76.455 165.878L72.7546 172.796L70.5023 171.348L74.2026 163.706Z" fill="white" stroke="#263238" stroke-miterlimit="10" stroke-linecap="round" stroke-linejoin="round"/>
<path d="M66.9628 107.316C66.9628 107.316 59.6425 110.534 59.2403 112.143C58.8381 113.752 45.0825 150.112 45.0825 151.399C45.0825 152.766 61.0101 165.235 64.3082 167.97C67.6868 170.785 70.4218 172.394 70.4218 172.394L75.6506 164.672C75.6506 164.672 66.5606 153.892 65.1126 151.157C63.6647 148.503 61.5732 146.25 61.5732 146.25L72.3524 125.094" fill="#136AFB"/>
<path opacity="0.3" d="M70.5023 172.394L71.2262 171.348L50.3112 152.927C50.3112 152.927 52.8854 147.779 56.7466 147.457C60.6078 147.216 51.2765 147.457 52.0809 146.974C52.8854 146.492 66.8019 127.829 66.8019 127.829C66.8019 127.829 67.0432 123.968 64.7104 118.015C62.3776 112.062 60.0448 111.258 60.0448 111.258L59.9643 111.177C59.5621 111.499 59.2403 111.821 59.2403 112.143C58.8381 113.752 45.0825 150.112 45.0825 151.399C45.0825 152.766 61.0101 165.235 64.3082 167.97C67.6868 170.785 70.5023 172.394 70.5023 172.394Z" fill="black"/>
<path d="M66.9628 107.316C66.9628 107.316 59.6425 110.534 59.2403 112.143C58.8381 113.752 45.0825 150.112 45.0825 151.399C45.0825 152.766 61.0101 165.235 64.3082 167.97C67.6868 170.785 70.4218 172.394 70.4218 172.394L75.6506 164.672C75.6506 164.672 66.5606 153.892 65.1126 151.157C63.6647 148.503 61.5732 146.25 61.5732 146.25L72.3524 125.094" stroke="#263238" stroke-miterlimit="10" stroke-linecap="round" stroke-linejoin="round"/>
<path d="M89.4062 197.492L93.1066 189.448" stroke="#263238" stroke-miterlimit="10" stroke-linecap="round" stroke-linejoin="round"/>
<path d="M1.40222 292.575H320.598" stroke="#263238" stroke-miterlimit="10" stroke-linecap="round" stroke-linejoin="round"/>
</g>
<defs>
<clipPath id="clip0">
<rect width="320" height="320" fill="white"/>
</clipPath>
</defs>
</svg>
