<svg width="320" height="320" viewBox="0 0 320 320" fill="none" xmlns="http://www.w3.org/2000/svg">
<g clip-path="url(#clip0)">
<path d="M233.788 245.927C233.788 245.927 270.92 243.642 296.436 197.941C321.953 152.24 317.287 82.6421 285.583 43.8917C253.878 5.23653 204.369 -7.90242 157.145 4.47485C134.104 10.4731 118.775 26.1827 105.541 45.0342C94.0205 61.5055 80.9768 77.3103 63.5534 87.6882C46.2252 97.9708 28.421 106.159 19.7569 125.772C-1.47485 173.377 14.0443 228.789 64.3151 247.45C118.394 267.635 208.939 256.781 233.788 245.927Z" fill="#136AFB"/>
<path opacity="0.9" d="M233.788 245.927C233.788 245.927 270.92 243.642 296.436 197.941C321.953 152.24 317.287 82.6421 285.583 43.8917C253.878 5.23653 204.369 -7.90242 157.145 4.47485C134.104 10.4731 118.775 26.1827 105.541 45.0342C94.0205 61.5055 80.9768 77.3103 63.5534 87.6882C46.2252 97.9708 28.421 106.159 19.7569 125.772C-1.47485 173.377 14.0443 228.789 64.3151 247.45C118.394 267.635 208.939 256.781 233.788 245.927Z" fill="white"/>
<path d="M281.203 245.736H46.3204V90.9253C46.3204 87.593 49.0815 84.8319 52.4139 84.8319H275.014C278.347 84.8319 281.108 87.593 281.108 90.9253V245.736H281.203Z" fill="#263238" stroke="#263238" stroke-miterlimit="10"/>
<path d="M309.48 319.524H18.1384C14.9012 319.524 12.2354 314.859 13.6635 312.002L46.4156 248.402H281.298L314.241 311.812C315.574 314.668 312.622 319.524 309.48 319.524Z" fill="#263238" stroke="#263238" stroke-miterlimit="10"/>
<path d="M309.48 316.858H18.1384C14.9012 316.858 12.8066 313.526 14.2348 310.574L46.3204 245.736H281.203L313.289 310.574C314.717 313.526 312.622 316.858 309.48 316.858Z" fill="white" stroke="#263238" stroke-miterlimit="10" stroke-linecap="round" stroke-linejoin="round"/>
<path d="M267.017 97.59H60.6019V232.978H267.017V97.59Z" fill="white" stroke="#263238" stroke-miterlimit="10"/>
<path d="M262.351 159.286H65.9337V228.123H262.351V159.286Z" fill="#136AFB"/>
<path opacity="0.46" d="M91.069 200.702V198.988C91.069 198.512 90.6882 198.036 90.1169 198.036H88.784C88.5936 197.179 88.2127 196.323 87.7367 195.561L88.6888 194.609C89.0696 194.228 89.0696 193.657 88.6888 193.276L87.4511 192.038C87.0702 191.657 86.499 191.657 86.1181 192.038L85.166 192.99C84.4044 192.514 83.5475 192.133 82.6906 191.943V190.61C82.6906 190.134 82.3097 189.658 81.7385 189.658H80.1199C79.6439 189.658 79.1678 190.039 79.1678 190.61V191.943C78.3109 192.133 77.454 192.514 76.6924 192.99L75.7403 192.038C75.3594 191.657 74.7882 191.657 74.4073 192.038L73.1696 193.276C72.7888 193.657 72.7888 194.228 73.1696 194.609L74.1217 195.561C73.6456 196.323 73.2648 197.179 73.0744 198.036H71.7414C71.2654 198.036 70.7894 198.417 70.7894 198.988V200.702C70.7894 201.178 71.1702 201.654 71.7414 201.654H73.0744C73.2648 202.511 73.6456 203.368 74.1217 204.13L73.1696 205.082C72.7888 205.463 72.7888 206.034 73.1696 206.415L74.4073 207.557C74.7882 207.938 75.3594 207.938 75.7403 207.557L76.6924 206.605C77.454 207.081 78.3109 207.462 79.1678 207.653V208.985C79.1678 209.461 79.5487 209.938 80.1199 209.938H81.8337C82.3097 209.938 82.7858 209.557 82.7858 208.985V207.653C83.6427 207.462 84.4996 207.081 85.2612 206.605L86.2133 207.557C86.5942 207.938 87.1654 207.938 87.5463 207.557L88.784 206.32C89.1648 205.939 89.1648 205.367 88.784 204.987L87.8319 204.035C88.3079 203.273 88.6888 202.416 88.8792 201.559H90.2121C90.593 201.654 91.069 201.178 91.069 200.702ZM81.3576 203.749C78.8822 204.035 76.7876 201.94 76.978 199.369C77.1684 197.56 78.6918 196.037 80.5008 195.846C82.9762 195.561 85.0708 197.655 84.8804 200.226C84.69 202.13 83.1666 203.558 81.3576 203.749Z" fill="white"/>
<path opacity="0.46" d="M107.35 212.889V211.175C107.35 210.699 106.969 210.223 106.398 210.223H105.065C104.874 209.366 104.494 208.509 104.018 207.748L104.97 206.796C105.35 206.415 105.35 205.844 104.97 205.463L103.732 204.225C103.351 203.844 102.78 203.844 102.399 204.225L101.447 205.177C100.685 204.701 99.8283 204.32 98.9714 204.13V202.797C98.9714 202.321 98.5906 201.845 98.0193 201.845H96.3056C95.8295 201.845 95.3535 202.226 95.3535 202.797V204.13C94.4966 204.32 93.6397 204.701 92.878 205.177L91.9259 204.225C91.5451 203.844 90.9738 203.844 90.593 204.225L89.3552 205.463C88.9744 205.844 88.9744 206.415 89.3552 206.796L90.3073 207.748C89.8313 208.509 89.4505 209.366 89.26 210.223H87.9271C87.4511 210.223 86.975 210.604 86.975 211.175V212.889C86.975 213.365 87.3558 213.841 87.9271 213.841H89.26C89.4505 214.698 89.8313 215.555 90.3073 216.317L89.3552 217.269C88.9744 217.65 88.9744 218.221 89.3552 218.602L90.593 219.839C90.9738 220.22 91.5451 220.22 91.9259 219.839L92.878 218.887C93.6397 219.363 94.4966 219.744 95.3535 219.935V221.267C95.3535 221.744 95.7343 222.22 96.3056 222.22H98.0193C98.4954 222.22 98.9714 221.839 98.9714 221.267V219.935C99.8283 219.744 100.685 219.363 101.447 218.887L102.399 219.839C102.78 220.22 103.351 220.22 103.732 219.839L104.97 218.602C105.35 218.221 105.35 217.65 104.97 217.269L104.018 216.317C104.494 215.555 104.874 214.698 105.065 213.841H106.398C106.969 213.746 107.35 213.365 107.35 212.889ZM97.7337 215.936C95.2583 216.221 93.1636 214.127 93.3541 211.556C93.5445 209.747 95.0678 208.224 96.8768 208.033C99.3523 207.748 101.447 209.842 101.256 212.413C101.066 214.222 99.5427 215.745 97.7337 215.936Z" fill="white"/>
<path d="M73.6456 165.475H109.254" stroke="#263238" stroke-width="0.868" stroke-miterlimit="10" stroke-linecap="round" stroke-linejoin="round"/>
<path d="M73.6456 170.616H109.254" stroke="#263238" stroke-width="0.868" stroke-miterlimit="10" stroke-linecap="round" stroke-linejoin="round"/>
<path d="M73.6456 175.757H109.254" stroke="#263238" stroke-width="0.868" stroke-miterlimit="10" stroke-linecap="round" stroke-linejoin="round"/>
<path d="M73.6456 180.899H109.254" stroke="#263238" stroke-width="0.868" stroke-miterlimit="10" stroke-linecap="round" stroke-linejoin="round"/>
<path d="M258.638 111.967H69.742C67.6474 111.967 65.9337 110.253 65.9337 108.158V107.778C65.9337 105.683 67.6474 103.969 69.742 103.969H258.638C260.733 103.969 262.447 105.683 262.447 107.778V108.158C262.351 110.253 260.638 111.967 258.638 111.967Z" fill="#136AFB"/>
<path d="M258.638 138.245H69.742C67.6474 138.245 65.9337 136.531 65.9337 134.436V134.055C65.9337 131.961 67.6474 130.247 69.742 130.247H258.638C260.733 130.247 262.447 131.961 262.447 134.055V134.436C262.351 136.531 260.638 138.245 258.638 138.245Z" fill="#136AFB"/>
<path d="M154.003 268.301L154.383 259.637H142.006L141.149 268.301H154.003Z" fill="#263238" stroke="white" stroke-miterlimit="10"/>
<path d="M179.614 268.301L179.233 259.637H166.761V268.301H179.614Z" fill="#263238" stroke="white" stroke-miterlimit="10"/>
<path d="M246.451 277.536H259.685L256.544 268.301H243.785L246.451 277.536Z" fill="#263238" stroke="white" stroke-miterlimit="10"/>
<path d="M141.149 268.301L142.006 259.637H129.534L128.296 268.301H141.149Z" fill="#263238" stroke="white" stroke-miterlimit="10"/>
<path d="M115.538 268.301L117.157 259.637H104.779L102.685 268.301H115.538Z" fill="#263238" stroke="white" stroke-miterlimit="10"/>
<path d="M230.932 268.301L228.838 259.637H216.46L218.079 268.301H230.932Z" fill="#263238" stroke="white" stroke-miterlimit="10"/>
<path d="M243.785 268.301L241.215 259.637H228.838L230.932 268.301H243.785Z" fill="#263238" stroke="white" stroke-miterlimit="10"/>
<path d="M102.685 268.301L104.779 259.637H92.3068L89.8313 268.301H102.685Z" fill="#263238" stroke="white" stroke-miterlimit="10"/>
<path d="M192.467 268.301L191.611 259.637H179.233L179.614 268.301H192.467Z" fill="#263238" stroke="white" stroke-miterlimit="10"/>
<path d="M256.544 268.301L253.687 259.637H241.215L243.785 268.301H256.544Z" fill="#263238" stroke="white" stroke-miterlimit="10"/>
<path d="M218.079 268.301L216.46 259.637H203.988L205.321 268.301H218.079Z" fill="#263238" stroke="white" stroke-miterlimit="10"/>
<path d="M205.321 268.301L203.988 259.637H191.611L192.467 268.301H205.321Z" fill="#263238" stroke="white" stroke-miterlimit="10"/>
<path d="M166.761 268.301V259.637H154.384L154.003 268.301H166.761Z" fill="#263238" stroke="white" stroke-miterlimit="10"/>
<path d="M77.0732 268.301H64.2199L60.6971 277.536H73.9313L77.0732 268.301Z" fill="#263238" stroke="white" stroke-miterlimit="10"/>
<path d="M79.9295 259.637H67.5522L64.2199 268.301H77.0732L79.9295 259.637Z" fill="#263238" stroke="white" stroke-miterlimit="10"/>
<path d="M89.8313 268.301L92.3068 259.637H79.9295L77.0732 268.301H89.8313Z" fill="#263238" stroke="white" stroke-miterlimit="10"/>
<path d="M56.8887 287.438L52.7947 298.197H67.0762L70.5989 287.438H56.8887Z" fill="#263238" stroke="white" stroke-miterlimit="10"/>
<path d="M73.9313 277.536H60.6971L56.8887 287.438H70.5989L73.9313 277.536Z" fill="#263238" stroke="white" stroke-miterlimit="10"/>
<path d="M70.5989 287.438L67.0762 298.197H81.2624L84.4043 287.438H70.5989Z" fill="#263238" stroke="white" stroke-miterlimit="10"/>
<path d="M128.296 268.301L129.534 259.637H117.157L115.538 268.301H128.296Z" fill="#263238" stroke="white" stroke-miterlimit="10"/>
<path d="M126.963 277.536L128.296 268.301H115.538L113.729 277.536H126.963Z" fill="#263238" stroke="white" stroke-miterlimit="10"/>
<path d="M113.729 277.536L115.538 268.301H102.685L100.495 277.536H113.729Z" fill="#263238" stroke="white" stroke-miterlimit="10"/>
<path d="M140.292 277.536L141.149 268.301H128.296L126.963 277.536H140.292Z" fill="#263238" stroke="white" stroke-miterlimit="10"/>
<path d="M89.8313 268.301H77.0732L73.9313 277.536H87.1654L89.8313 268.301Z" fill="#263238" stroke="white" stroke-miterlimit="10"/>
<path d="M249.308 287.438H263.018L259.686 277.536H246.451L249.308 287.438Z" fill="#263238" stroke="white" stroke-miterlimit="10"/>
<path d="M100.495 277.536L102.685 268.301H89.8313L87.1654 277.536H100.495Z" fill="#263238" stroke="white" stroke-miterlimit="10"/>
<path d="M73.9313 277.536L70.5989 287.438H84.4043L87.1654 277.536H73.9313Z" fill="#263238" stroke="white" stroke-miterlimit="10"/>
<path d="M219.888 277.536L218.079 268.301H205.321L206.654 277.536H219.888Z" fill="#263238" stroke="white" stroke-miterlimit="10"/>
<path d="M206.654 277.536L205.321 268.301H192.467L193.324 277.536H206.654Z" fill="#263238" stroke="white" stroke-miterlimit="10"/>
<path d="M246.451 277.536L243.785 268.301H230.932L233.122 277.536H246.451Z" fill="#263238" stroke="white" stroke-miterlimit="10"/>
<path d="M166.856 277.536L166.761 268.301H154.003L153.527 277.536H166.856Z" fill="#263238" stroke="white" stroke-miterlimit="10"/>
<path d="M193.324 277.536L192.467 268.301H179.614L180.09 277.536H193.324Z" fill="#263238" stroke="white" stroke-miterlimit="10"/>
<path d="M180.09 277.536L179.614 268.301H166.761L166.856 277.536H180.09Z" fill="#263238" stroke="white" stroke-miterlimit="10"/>
<path d="M153.527 277.536L154.003 268.301H141.149L140.292 277.536H153.527Z" fill="#263238" stroke="white" stroke-miterlimit="10"/>
<path d="M193.324 277.536L194.276 287.438H208.082L206.654 277.536H193.324Z" fill="#263238" stroke="white" stroke-miterlimit="10"/>
<path d="M206.654 277.536L208.082 287.438H221.792L219.888 277.536H206.654Z" fill="#263238" stroke="white" stroke-miterlimit="10"/>
<path d="M87.1654 277.536L84.4043 287.438H98.1145L100.495 277.536H87.1654Z" fill="#263238" stroke="white" stroke-miterlimit="10"/>
<path d="M219.888 277.536L221.792 287.438H235.502L233.122 277.536H219.888Z" fill="#263238" stroke="white" stroke-miterlimit="10"/>
<path d="M166.856 277.536V287.438H180.566L180.09 277.536H166.856Z" fill="#263238" stroke="white" stroke-miterlimit="10"/>
<path d="M233.122 277.536L235.502 287.438H249.308L246.451 277.536H233.122Z" fill="#263238" stroke="white" stroke-miterlimit="10"/>
<path d="M180.09 277.536L180.566 287.438H194.276L193.324 277.536H180.09Z" fill="#263238" stroke="white" stroke-miterlimit="10"/>
<path d="M113.729 277.536L111.825 287.438H125.63L126.963 277.536H113.729Z" fill="#263238" stroke="white" stroke-miterlimit="10"/>
<path d="M100.495 277.536L98.1145 287.438H111.825L113.729 277.536H100.495Z" fill="#263238" stroke="white" stroke-miterlimit="10"/>
<path d="M153.527 277.536L153.051 287.438H166.856V277.536H153.527Z" fill="#263238" stroke="white" stroke-miterlimit="10"/>
<path d="M140.292 277.536L139.34 287.438H153.051L153.527 277.536H140.292Z" fill="#263238" stroke="white" stroke-miterlimit="10"/>
<path d="M126.963 277.536L125.63 287.438H139.34L140.292 277.536H126.963Z" fill="#263238" stroke="white" stroke-miterlimit="10"/>
<path d="M233.122 277.536L230.932 268.301H218.079L219.888 277.536H233.122Z" fill="#263238" stroke="white" stroke-miterlimit="10"/>
<path d="M79.9295 259.637L82.881 250.782H70.8846L67.5522 259.637H79.9295Z" fill="#263238" stroke="white" stroke-miterlimit="10"/>
<path d="M67.5522 259.637H56.0318L52.4139 268.301H64.2199L67.5522 259.637Z" fill="#263238" stroke="white" stroke-miterlimit="10"/>
<path d="M70.8846 250.782H59.8402L56.0318 259.637H67.5522L70.8846 250.782Z" fill="#263238" stroke="white" stroke-miterlimit="10"/>
<path d="M64.2199 268.301H52.4139L48.4151 277.536H60.6971L64.2199 268.301Z" fill="#263238" stroke="white" stroke-miterlimit="10"/>
<path d="M60.6971 277.536H48.4151L44.2258 287.438H56.8887L60.6971 277.536Z" fill="#263238" stroke="white" stroke-miterlimit="10"/>
<path d="M56.8887 287.438H44.2258L39.6558 298.197H52.7947L56.8887 287.438Z" fill="#263238" stroke="white" stroke-miterlimit="10"/>
<path d="M269.397 268.301L272.92 277.536H284.726L280.727 268.301H269.397Z" fill="#263238" stroke="white" stroke-miterlimit="10"/>
<path d="M276.728 287.438H288.915L284.726 277.536H272.92L276.728 287.438Z" fill="#263238" stroke="white" stroke-miterlimit="10"/>
<path d="M280.822 298.197H293.485L288.915 287.438H276.728L280.822 298.197Z" fill="#263238" stroke="white" stroke-miterlimit="10"/>
<path d="M179.233 259.637L178.757 250.782H166.761V259.637H179.233Z" fill="#263238" stroke="white" stroke-miterlimit="10"/>
<path d="M269.397 268.301H280.727L277.014 259.637H266.065L269.397 268.301Z" fill="#263238" stroke="white" stroke-miterlimit="10"/>
<path d="M263.018 287.438H276.728L272.92 277.536H259.685L263.018 287.438Z" fill="#263238" stroke="white" stroke-miterlimit="10"/>
<path d="M92.3068 259.637L94.8774 250.782H82.881L79.9295 259.637H92.3068Z" fill="#263238" stroke="white" stroke-miterlimit="10"/>
<path d="M253.687 259.637L256.544 268.301H269.397L266.065 259.637H253.687Z" fill="#263238" stroke="white" stroke-miterlimit="10"/>
<path d="M277.014 259.637L273.3 250.782H262.637L266.065 259.637H277.014Z" fill="#263238" stroke="white" stroke-miterlimit="10"/>
<path d="M266.065 259.637L262.637 250.782H250.641L253.687 259.637H266.065Z" fill="#263238" stroke="white" stroke-miterlimit="10"/>
<path d="M221.792 287.438L223.887 298.197H238.073L235.502 287.438H221.792Z" fill="#263238" stroke="white" stroke-miterlimit="10"/>
<path d="M266.636 298.197H280.822L276.728 287.438H263.018L266.636 298.197Z" fill="#263238" stroke="white" stroke-miterlimit="10"/>
<path d="M253.687 259.637L250.641 250.782H238.739L241.215 259.637H253.687Z" fill="#263238" stroke="white" stroke-miterlimit="10"/>
<path d="M249.308 287.438L252.354 298.197H266.636L263.018 287.438H249.308Z" fill="#263238" stroke="white" stroke-miterlimit="10"/>
<path d="M235.502 287.438L238.073 298.197H252.354L249.308 287.438H235.502Z" fill="#263238" stroke="white" stroke-miterlimit="10"/>
<path d="M259.686 277.536H272.92L269.397 268.301H256.544L259.686 277.536Z" fill="#263238" stroke="white" stroke-miterlimit="10"/>
<path d="M142.006 259.637L142.863 250.782H130.867L129.534 259.637H142.006Z" fill="#263238" stroke="white" stroke-miterlimit="10"/>
<path d="M241.215 259.637L238.739 250.782H226.743L228.838 259.637H241.215Z" fill="#263238" stroke="white" stroke-miterlimit="10"/>
<path d="M129.534 259.637L130.867 250.782H118.87L117.157 259.637H129.534Z" fill="#263238" stroke="white" stroke-miterlimit="10"/>
<path d="M166.761 259.637V250.782H154.764L154.384 259.637H166.761Z" fill="#263238" stroke="white" stroke-miterlimit="10"/>
<path d="M117.157 259.637L118.87 250.782H106.874L104.779 259.637H117.157Z" fill="#263238" stroke="white" stroke-miterlimit="10"/>
<path d="M104.779 259.637L106.874 250.782H94.8774L92.3068 259.637H104.779Z" fill="#263238" stroke="white" stroke-miterlimit="10"/>
<path d="M154.383 259.637L154.764 250.782H142.863L142.006 259.637H154.383Z" fill="#263238" stroke="white" stroke-miterlimit="10"/>
<path d="M228.838 259.637L226.743 250.782H214.746L216.46 259.637H228.838Z" fill="#263238" stroke="white" stroke-miterlimit="10"/>
<path d="M216.46 259.637L214.746 250.782H202.75L203.988 259.637H216.46Z" fill="#263238" stroke="white" stroke-miterlimit="10"/>
<path d="M191.611 259.637L190.754 250.782H178.757L179.233 259.637H191.611Z" fill="#263238" stroke="white" stroke-miterlimit="10"/>
<path d="M221.792 287.438H208.082H194.276H180.566H166.856H153.051H139.34H125.63H111.825H98.1146H84.4043L81.2624 298.197H95.5439H109.825H124.107H138.293H152.575H166.856H181.042H195.324H209.605H223.887L221.792 287.438Z" fill="#263238" stroke="white" stroke-miterlimit="10"/>
<path d="M203.988 259.637L202.75 250.782H190.754L191.611 259.637H203.988Z" fill="#263238" stroke="white" stroke-miterlimit="10"/>
<path d="M182.375 175.281C196.415 175.281 207.796 160.831 207.796 143.005C207.796 125.179 196.415 110.729 182.375 110.729C168.336 110.729 156.954 125.179 156.954 143.005C156.954 160.831 168.336 175.281 182.375 175.281Z" fill="#263238" stroke="#263238" stroke-miterlimit="10" stroke-linecap="round" stroke-linejoin="round"/>
<path d="M136.389 151.193C136.389 151.193 115.157 214.984 115.157 216.602C115.157 218.221 121.441 225.266 125.44 224.885C129.343 224.504 136.484 220.125 136.484 220.125L143.625 157.762L136.389 151.193Z" stroke="#263238" stroke-miterlimit="10" stroke-linecap="round" stroke-linejoin="round"/>
<path d="M178.472 142.719L136.389 151.193L143.149 234.121H225.315L236.264 147.765L186.088 142.339L178.472 142.719Z" fill="#136AFB"/>
<path opacity="0.3" d="M143.149 234.121H225.315L227.314 217.935L227.219 217.078L207.415 221.458L215.984 184.992L168.475 205.939L156.954 217.459H164.095L142.958 231.455L143.149 234.121Z" fill="black"/>
<path d="M178.472 142.719L136.389 151.193L143.149 234.121H225.315L236.264 147.765L186.088 142.339L178.472 142.719Z" stroke="#263238" stroke-miterlimit="10" stroke-linecap="round" stroke-linejoin="round"/>
<path d="M173.997 138.054C173.997 138.054 167.142 141.767 165.428 145.195C163.714 148.527 156.478 173.472 156.478 173.472L168.284 176.043L156.954 181.565L174.187 230.884L201.608 229.17L219.412 177.376L208.463 172.71L218.174 168.521C218.174 168.521 208.939 150.812 203.893 143.291C198.751 135.579 173.997 138.054 173.997 138.054Z" fill="#136AFB" stroke="#263238" stroke-miterlimit="10" stroke-linecap="round" stroke-linejoin="round"/>
<path d="M172.949 234.978L172.569 148.242L195.324 146.147L202.084 234.121L172.949 234.978Z" fill="white" stroke="#263238" stroke-miterlimit="10" stroke-linecap="round" stroke-linejoin="round"/>
<path d="M169.236 125.486C169.236 125.486 172.188 141.958 172.569 146.147C172.949 150.336 183.899 180.232 187.136 175.376C190.658 170.045 194.943 153.288 195.705 149.479C196.561 145.671 196.561 129.295 196.561 129.295C196.561 129.295 185.708 136.816 169.236 125.486Z" fill="white"/>
<path d="M196.466 140.149C196.657 134.722 196.657 129.2 196.657 129.2C196.657 129.2 185.708 136.816 169.236 125.391C169.236 125.391 170.474 132.151 171.426 138.149C173.711 141.006 177.9 145.576 183.232 146.433C188.659 147.289 193.039 144.433 196.466 140.149Z" fill="#136AFB"/>
<path opacity="0.5" d="M196.466 140.149C196.657 134.722 196.657 129.2 196.657 129.2C196.657 129.2 185.708 136.816 169.236 125.391C169.236 125.391 170.474 132.151 171.426 138.149C173.711 141.006 177.9 145.576 183.232 146.433C188.659 147.289 193.039 144.433 196.466 140.149Z" fill="white"/>
<path d="M169.236 125.486C169.236 125.486 172.188 141.958 172.569 146.147C172.949 150.336 183.899 180.232 187.136 175.376C190.658 170.045 194.943 153.288 195.705 149.479C196.561 145.671 196.561 129.295 196.561 129.295C196.561 129.295 185.708 136.816 169.236 125.486Z" stroke="#263238" stroke-miterlimit="10" stroke-linecap="round" stroke-linejoin="round"/>
<path d="M205.511 109.015C205.511 109.015 210.176 103.112 210.176 109.872C210.176 116.632 205.511 117.489 205.511 117.489V109.015Z" fill="white" stroke="#263238" stroke-miterlimit="10" stroke-linecap="round" stroke-linejoin="round"/>
<path d="M159.525 95.1145C159.525 95.1145 165.047 119.964 165.047 123.297C165.047 130.437 178.567 138.435 184.47 140.149C190.373 141.862 204.654 128.819 205.511 125.391C206.368 122.059 206.749 92.5438 205.13 86.6408C203.417 80.7378 193.8 76.9294 187.421 76.9294C181.042 77.0247 162.476 80.357 159.525 95.1145Z" fill="white"/>
<path d="M187.326 77.0247C181.042 77.0247 162.476 80.357 159.525 95.1145C159.525 95.1145 162.762 109.967 164.285 118.25C164.285 114.442 164.952 107.111 169.046 103.969C174.663 99.5894 184.089 98.9229 189.516 96.4474C194.848 93.972 196.085 87.3073 196.085 87.3073C196.085 87.3073 196.371 98.9229 198.942 101.779C201.417 104.635 203.988 106.54 204.273 111.491C204.559 116.537 205.511 121.583 203.036 125.677C200.56 129.771 190.182 137.578 185.422 139.197C184.66 139.482 183.994 139.673 183.327 139.863C183.708 139.958 184.089 140.149 184.375 140.244C190.278 141.958 204.559 128.914 205.416 125.486C206.273 122.154 206.654 92.6391 205.035 86.736C203.321 80.833 193.705 77.0247 187.326 77.0247Z" fill="#136AFB"/>
<path d="M178.567 137.673C176.282 135.388 169.998 128.914 167.142 125.677C165.999 124.344 165.333 123.392 164.952 122.63C164.952 122.916 164.952 123.106 164.952 123.297C165.047 128.628 172.378 134.341 178.567 137.673Z" fill="#136AFB"/>
<g opacity="0.5">
<path opacity="0.5" d="M187.326 77.0247C181.042 77.0247 162.476 80.357 159.525 95.1145C159.525 95.1145 162.762 109.967 164.285 118.25C164.285 114.442 164.952 107.111 169.046 103.969C174.663 99.5894 184.089 98.9229 189.516 96.4474C194.848 93.972 196.085 87.3073 196.085 87.3073C196.085 87.3073 196.371 98.9229 198.942 101.779C201.417 104.635 203.988 106.54 204.273 111.491C204.559 116.537 205.511 121.583 203.036 125.677C200.56 129.771 190.182 137.578 185.422 139.197C184.66 139.482 183.994 139.673 183.327 139.863C183.708 139.958 184.089 140.149 184.375 140.244C190.278 141.958 204.559 128.914 205.416 125.486C206.273 122.154 206.654 92.6391 205.035 86.736C203.321 80.833 193.705 77.0247 187.326 77.0247Z" fill="white"/>
<path opacity="0.5" d="M178.567 137.673C176.282 135.388 169.998 128.914 167.142 125.677C165.999 124.344 165.333 123.392 164.952 122.63C164.952 122.916 164.952 123.106 164.952 123.297C165.047 128.628 172.378 134.341 178.567 137.673Z" fill="white"/>
</g>
<path d="M159.525 95.1145C159.525 95.1145 165.047 119.964 165.047 123.297C165.047 130.437 178.567 138.435 184.47 140.149C190.373 141.862 204.654 128.819 205.511 125.391C206.368 122.059 206.749 92.5438 205.13 86.6408C203.417 80.7378 193.8 76.9294 187.421 76.9294C181.042 77.0247 162.476 80.357 159.525 95.1145Z" stroke="#263238" stroke-miterlimit="10" stroke-linecap="round" stroke-linejoin="round"/>
<path d="M181.328 110.348C181.328 111.491 180.757 112.443 180.185 112.443C179.614 112.443 179.043 111.491 179.043 110.348C179.043 109.206 179.614 108.253 180.185 108.253C180.757 108.253 181.328 109.206 181.328 110.348Z" fill="#263238"/>
<path d="M195.229 110.348C195.229 111.491 194.657 112.443 194.086 112.443C193.42 112.443 192.943 111.491 192.943 110.348C192.943 109.206 193.515 108.253 194.086 108.253C194.752 108.253 195.229 109.206 195.229 110.348Z" fill="#263238"/>
<path d="M190.087 107.873C190.087 107.873 188.849 111.967 190.087 113.204C191.325 114.442 194.181 113.871 193.896 115.394C193.61 117.013 188.849 118.917 188.849 118.917" stroke="#263238" stroke-miterlimit="10" stroke-linecap="round" stroke-linejoin="round"/>
<path d="M188.183 124.63C188.183 124.63 182.47 126.819 179.995 123.011" stroke="#263238" stroke-miterlimit="10" stroke-linecap="round" stroke-linejoin="round"/>
<path d="M175.806 106.54C175.806 106.54 177.424 102.446 182.09 104.35" stroke="#263238" stroke-miterlimit="10" stroke-linecap="round" stroke-linejoin="round"/>
<path d="M190.658 104.731C190.658 104.731 192.943 100.922 196.181 105.112" stroke="#263238" stroke-miterlimit="10" stroke-linecap="round" stroke-linejoin="round"/>
<path d="M207.13 80.357C202.94 75.5965 198.561 75.8821 195.895 76.9294C192.372 70.9312 180.566 66.1707 165.428 71.9785C147.719 78.7384 149.813 96.8283 150.67 100.161C151.527 103.493 157.43 112.347 161.239 112.824C161.239 112.824 164.571 109.872 164.571 106.921C164.571 103.969 172.569 98.066 180.566 95.5905C185.612 93.972 191.134 91.1157 194.372 87.3073C194.372 89.2115 194.657 92.0678 196.181 94.2576C198.751 98.066 202.464 100.161 202.464 101.398C202.464 102.636 204.559 107.301 206.273 107.301C207.987 107.301 207.987 100.541 208.367 97.5899C208.843 94.7337 213.033 87.1169 207.13 80.357Z" fill="#263238" stroke="#263238" stroke-miterlimit="10" stroke-linecap="round" stroke-linejoin="round"/>
<path d="M160.667 98.2565C159.049 99.2086 158.001 100.351 157.716 101.779" stroke="white" stroke-miterlimit="10" stroke-linecap="round" stroke-linejoin="round"/>
<path d="M192.848 83.0228C192.848 83.0228 188.564 89.7827 180.757 92.2582C175.996 93.7815 168.76 94.9241 163.714 96.8282" stroke="white" stroke-miterlimit="10" stroke-linecap="round" stroke-linejoin="round"/>
<path d="M189.326 81.2139C189.326 81.2139 181.518 86.5456 172.664 87.2121C163.809 87.8785 157.716 86.1648 156.288 88.2594" stroke="white" stroke-miterlimit="10" stroke-linecap="round" stroke-linejoin="round"/>
<path d="M207.13 89.6875C207.32 90.7348 207.415 91.9725 207.415 93.3055" stroke="white" stroke-miterlimit="10" stroke-linecap="round" stroke-linejoin="round"/>
<path d="M198.942 80.1665C198.942 80.1665 204.559 81.7851 206.654 87.7833" stroke="white" stroke-miterlimit="10" stroke-linecap="round" stroke-linejoin="round"/>
<path d="M162.476 119.583C162.476 119.583 169.046 128.438 172.664 130.342C176.282 132.246 183.042 129.58 183.042 129.58" stroke="#263238" stroke-miterlimit="10" stroke-linecap="round" stroke-linejoin="round"/>
<path d="M185.422 129.676C185.422 130.532 184.375 131.294 183.042 131.294C181.709 131.294 180.661 130.628 180.661 129.676C180.661 128.819 181.709 128.057 183.042 128.057C184.375 128.057 185.422 128.819 185.422 129.676Z" fill="#263238"/>
<path d="M158.763 107.492C158.763 107.492 150.956 87.2121 158.763 75.2157C158.763 75.2157 146.672 87.6882 157.335 110.348L158.763 107.492Z" fill="white"/>
<path d="M164.19 114.061C164.857 118.822 163.619 122.916 161.334 123.297C159.049 123.677 156.573 120.059 155.812 115.299C155.145 110.538 156.383 106.444 158.668 106.064C161.048 105.778 163.524 109.301 164.19 114.061Z" fill="white" stroke="#263238" stroke-miterlimit="10" stroke-linecap="round" stroke-linejoin="round"/>
<path d="M159.949 123.112C162.029 122.8 163.139 118.71 162.428 113.978C161.717 109.246 159.454 105.664 157.374 105.976C155.294 106.289 154.185 110.378 154.896 115.11C155.607 119.842 157.869 123.425 159.949 123.112Z" fill="white" stroke="#263238" stroke-miterlimit="10" stroke-linecap="round" stroke-linejoin="round"/>
<path d="M236.264 147.766L247.213 234.597L225.315 234.121L236.264 147.766Z" fill="#136AFB"/>
<path opacity="0.3" d="M242.167 195.085L230.837 201.94L231.027 189.182L225.315 234.121L247.213 234.597L245.404 220.411L235.883 220.696L244.357 211.842L244.261 211.27L232.551 215.269L243.119 202.511L242.167 195.085Z" fill="black"/>
<path d="M236.264 147.766L247.213 234.597L225.315 234.121L236.264 147.766Z" stroke="#263238" stroke-miterlimit="10" stroke-linecap="round" stroke-linejoin="round"/>
<path d="M157.811 122.154C157.811 122.154 161.048 121.012 161.715 122.249C162.381 123.487 163.238 128.914 163.238 129.676C163.238 130.437 162.952 131.104 161.524 130.628C160.096 130.056 157.716 125.296 157.716 125.296L157.811 122.154Z" fill="white" stroke="#263238" stroke-miterlimit="10" stroke-linecap="round" stroke-linejoin="round"/>
<path d="M143.625 139.387C143.625 139.387 146.672 120.059 146.672 118.06C146.767 115.965 149.528 114.252 150.861 113.776C152.194 113.3 159.81 113.49 160.572 113.49C161.429 113.49 164.666 113.3 164.571 114.347C164.571 115.394 164.285 115.87 161.524 116.346C158.763 116.822 152.289 117.108 152.289 117.108L150.575 119.679L158.668 121.202C158.668 121.202 160.572 122.059 160.191 123.297C159.906 124.63 158.858 130.342 158.858 131.104C158.858 131.865 158.002 132.342 156.097 133.674C154.193 134.912 152.289 135.103 152.289 135.103C152.289 135.103 152.479 139.006 151.337 139.482C150.194 139.958 148.576 140.72 148.576 140.72L148.195 163.189L135.818 161.761L143.625 139.387Z" fill="white" stroke="#263238" stroke-miterlimit="10" stroke-linecap="round" stroke-linejoin="round"/>
<path d="M159.715 124.439L149.909 122.725" stroke="#263238" stroke-miterlimit="10" stroke-linecap="round" stroke-linejoin="round"/>
<path d="M150.48 126.915L158.573 128.914" stroke="#263238" stroke-miterlimit="10" stroke-linecap="round" stroke-linejoin="round"/>
<path d="M152.384 135.198C152.384 135.198 151.051 133.103 151.813 132.913C152.575 132.722 154.288 132.246 154.288 132.246" stroke="#263238" stroke-miterlimit="10" stroke-linecap="round" stroke-linejoin="round"/>
<path d="M137.055 150.336L150.48 155.382C150.48 155.382 141.149 214.032 138.864 218.697C136.579 223.267 131.343 228.694 124.583 229.265C117.823 229.932 112.872 222.6 112.682 214.888C112.491 207.272 137.055 150.336 137.055 150.336Z" fill="#136AFB"/>
<path opacity="0.3" d="M125.916 199.464C122.393 201.273 118.87 202.606 115.728 203.558C114.491 207.081 113.634 210.033 113.062 212.222C114.871 211.937 117.061 211.746 119.442 211.366C127.725 210.318 132.771 208.509 132.771 208.509C132.771 208.509 122.298 214.984 112.967 216.031C112.872 216.031 112.872 216.031 112.777 216.031C113.443 223.267 118.109 229.836 124.583 229.265C131.343 228.599 136.675 223.267 138.864 218.697C140.007 216.412 142.768 201.178 145.339 186.135C145.148 186.325 136.198 194.133 125.916 199.464Z" fill="black"/>
<path d="M137.055 150.336L150.48 155.382C150.48 155.382 141.149 214.032 138.864 218.697C136.579 223.267 131.343 228.694 124.583 229.265C117.823 229.932 112.872 222.6 112.682 214.888C112.491 207.272 137.055 150.336 137.055 150.336Z" stroke="#263238" stroke-miterlimit="10" stroke-linecap="round" stroke-linejoin="round"/>
<path d="M269.587 49.5091V46.9385C269.587 46.1768 268.921 45.5103 268.159 45.5103H266.16C265.874 44.1774 265.303 42.9397 264.636 41.7971L266.065 40.369C266.636 39.7977 266.636 38.9408 266.065 38.3696L264.256 36.5606C263.684 35.9893 262.827 35.9893 262.256 36.5606L260.828 37.9888C259.685 37.3223 258.448 36.751 257.115 36.4654V34.466C257.115 33.7043 256.448 33.0378 255.687 33.0378H253.116C252.354 33.0378 251.688 33.7043 251.688 34.466V36.4654C250.355 36.751 249.117 37.3223 247.975 37.9888L246.547 36.5606C245.975 35.9893 245.118 35.9893 244.547 36.5606L242.738 38.3696C242.167 38.9408 242.167 39.7977 242.738 40.369L244.166 41.7971C243.5 42.9397 242.929 44.1774 242.643 45.5103H240.644C239.882 45.5103 239.215 46.1768 239.215 46.9385V49.5091C239.215 50.2708 239.882 50.9373 240.644 50.9373H242.643C242.929 52.2702 243.5 53.5079 244.166 54.6505L242.738 56.0786C242.167 56.6499 242.167 57.5068 242.738 58.078L244.547 59.887C245.118 60.4583 245.975 60.4583 246.547 59.887L247.975 58.4588C249.117 59.1253 250.355 59.6966 251.688 59.9822V61.9816C251.688 62.7433 252.354 63.4098 253.116 63.4098H255.687C256.448 63.4098 257.115 62.7433 257.115 61.9816V59.9822C258.448 59.6966 259.685 59.1253 260.828 58.4588L262.256 59.887C262.827 60.4583 263.684 60.4583 264.256 59.887L266.065 58.078C266.636 57.5068 266.636 56.6499 266.065 56.0786L264.636 54.6505C265.303 53.5079 265.874 52.2702 266.16 50.9373H268.159C269.016 50.9373 269.587 50.2708 269.587 49.5091ZM255.02 54.1744C251.212 54.5553 248.07 51.4133 248.451 47.6049C248.736 44.8439 251.021 42.5588 253.782 42.2732C257.591 41.8924 260.733 45.0343 260.352 48.8427C260.066 51.6037 257.877 53.8888 255.02 54.1744Z" fill="#263238"/>
<path d="M25.8503 163.285V161.285C25.8503 160.714 25.3743 160.238 24.803 160.238H23.2797C23.0893 159.191 22.6132 158.334 22.1372 157.477L23.1845 156.43C23.5653 156.049 23.5653 155.382 23.1845 154.906L21.7563 153.478C21.3755 153.097 20.709 153.097 20.233 153.478L19.1857 154.525C18.3288 153.954 17.3767 153.573 16.4246 153.383V151.86C16.4246 151.288 15.9485 150.812 15.3773 150.812H13.4731C12.9018 150.812 12.4258 151.288 12.4258 151.86V153.383C11.3785 153.573 10.5216 154.049 9.66468 154.525L8.61738 153.478C8.23654 153.097 7.57007 153.097 7.09402 153.478L5.66587 154.906C5.28503 155.287 5.28503 155.954 5.66587 156.43L6.71318 157.477C6.14192 158.334 5.76108 159.286 5.57066 160.238H4.04731C3.47605 160.238 3 160.714 3 161.285V163.285C3 163.856 3.47605 164.332 4.04731 164.332H5.57066C5.76108 165.379 6.23713 166.236 6.71318 167.093L5.66587 168.14C5.28503 168.521 5.28503 169.188 5.66587 169.664L7.09402 171.092C7.47486 171.473 8.14133 171.473 8.61738 171.092L9.66468 170.045C10.5216 170.616 11.4737 170.997 12.4258 171.187V172.71C12.4258 173.282 12.9018 173.758 13.4731 173.758H15.3773C15.9485 173.758 16.4246 173.282 16.4246 172.71V171.187C17.4719 170.997 18.3288 170.521 19.1857 170.045L20.233 171.092C20.6138 171.473 21.2803 171.473 21.7563 171.092L23.1845 169.664C23.5653 169.283 23.5653 168.616 23.1845 168.14L22.1372 167.093C22.7084 166.236 23.0893 165.284 23.2797 164.332H24.803C25.3743 164.332 25.8503 163.856 25.8503 163.285ZM14.9012 166.712C12.0449 166.998 9.66468 164.618 9.95031 161.761C10.1407 159.667 11.8545 157.953 13.9491 157.763C16.8054 157.477 19.1857 159.857 18.9 162.713C18.7096 164.808 16.9958 166.522 14.9012 166.712Z" fill="#263238"/>
<path d="M317.763 137.102V135.103C317.763 134.531 317.287 134.055 316.716 134.055H315.193C315.002 133.008 314.526 132.151 314.05 131.294L315.098 130.247C315.478 129.866 315.478 129.2 315.098 128.724L313.669 127.296C313.289 126.915 312.622 126.915 312.146 127.296L311.099 128.343C310.242 127.772 309.29 127.391 308.338 127.2V125.677C308.338 125.106 307.862 124.63 307.29 124.63H305.291C304.72 124.63 304.244 125.106 304.244 125.677V127.2C303.196 127.391 302.339 127.867 301.483 128.343L300.435 127.296C300.054 126.915 299.388 126.915 298.912 127.296L297.484 128.724C297.103 129.104 297.103 129.771 297.484 130.247L298.531 131.294C297.96 132.151 297.579 133.103 297.389 134.055H295.865C295.294 134.055 294.818 134.531 294.818 135.103V137.102C294.818 137.673 295.294 138.149 295.865 138.149H297.389C297.579 139.197 298.055 140.054 298.531 140.911L297.484 141.958C297.103 142.339 297.103 143.005 297.484 143.481L298.912 144.909C299.293 145.29 299.959 145.29 300.435 144.909L301.483 143.862C302.339 144.433 303.292 144.814 304.244 145.005V146.528C304.244 147.099 304.72 147.575 305.291 147.575H307.29C307.862 147.575 308.338 147.099 308.338 146.528V145.005C309.385 144.814 310.242 144.338 311.099 143.862L312.146 144.909C312.527 145.29 313.193 145.29 313.669 144.909L315.098 143.481C315.478 143.1 315.478 142.434 315.098 141.958L314.05 140.911C314.622 140.054 315.002 139.102 315.193 138.149H316.716C317.287 138.149 317.763 137.673 317.763 137.102ZM306.814 140.53C303.958 140.815 301.578 138.435 301.863 135.579C302.054 133.484 303.768 131.77 305.862 131.58C308.719 131.294 311.099 133.675 310.813 136.531C310.623 138.625 308.909 140.339 306.814 140.53Z" fill="#263238"/>
<path d="M157.335 9.33059V8.28328C157.335 7.99766 157.049 7.71203 156.764 7.71203H156.002C155.907 7.23598 155.716 6.75993 155.431 6.28388L156.002 5.71262C156.192 5.5222 156.192 5.14136 156.002 4.95094L155.336 4.28447C155.145 4.09406 154.764 4.09406 154.574 4.28447L154.003 4.85573C153.527 4.5701 153.051 4.37968 152.575 4.28447V3.5228C152.575 3.23717 152.289 2.95154 152.003 2.95154H150.956C150.67 2.95154 150.385 3.23717 150.385 3.5228V4.28447C149.909 4.37968 149.433 4.5701 148.957 4.85573L148.385 4.28447C148.195 4.09406 147.814 4.09406 147.624 4.28447L146.957 4.95094C146.767 5.14136 146.767 5.5222 146.957 5.71262L147.528 6.28388C147.243 6.75993 147.052 7.23598 146.957 7.71203H146.195C145.91 7.71203 145.624 7.99766 145.624 8.28328V9.33059C145.624 9.61622 145.91 9.90185 146.195 9.90185H146.957C147.052 10.3779 147.243 10.8539 147.528 11.33L146.957 11.9013C146.767 12.0917 146.767 12.4725 146.957 12.6629L147.719 13.3294C147.909 13.5198 148.29 13.5198 148.48 13.3294L149.052 12.7581C149.528 13.0438 150.004 13.2342 150.48 13.3294V14.0911C150.48 14.3767 150.766 14.6623 151.051 14.6623H152.098C152.384 14.6623 152.67 14.3767 152.67 14.0911V13.3294C153.146 13.2342 153.622 13.0438 154.098 12.7581L154.669 13.3294C154.86 13.5198 155.24 13.5198 155.431 13.3294L156.097 12.6629C156.288 12.4725 156.288 12.0917 156.097 11.9013L155.526 11.33C155.812 10.8539 156.002 10.3779 156.097 9.90185H156.859C157.049 9.90185 157.335 9.61622 157.335 9.33059ZM151.718 11.1396C150.289 11.33 149.052 10.0923 149.147 8.56891C149.242 7.52161 150.099 6.66472 151.242 6.4743C152.67 6.28388 153.907 7.52161 153.812 9.04496C153.622 10.1875 152.765 11.0444 151.718 11.1396Z" fill="#263238"/>
<path d="M34.8001 75.9774H28.3258V82.4517H34.8001V75.9774ZM29.6587 77.3103H33.4671V81.1187H29.6587V77.3103Z" fill="#263238"/>
<path d="M296.341 202.511H289.867V208.985H296.341V202.511ZM291.2 203.844H295.008V207.653H291.2V203.844Z" fill="#263238"/>
<path d="M199.227 17.0426H192.753V23.5169H199.227V17.0426ZM194.086 18.3755H197.894V22.1839H194.086V18.3755Z" fill="#263238"/>
<path d="M30.9917 179.375H24.5174V185.85H30.9917V179.375ZM25.8503 180.708H29.6587V184.517H25.8503V180.708Z" fill="#263238"/>
<path opacity="0.9" d="M220.078 61.8864C217.888 61.8864 216.175 63.6001 216.175 65.79C216.175 67.9798 217.888 69.6936 220.078 69.6936C222.268 69.6936 223.982 67.9798 223.982 65.79C223.982 63.6001 222.173 61.8864 220.078 61.8864ZM220.078 68.075C218.745 68.075 217.698 67.0277 217.698 65.6947C217.698 64.3618 218.745 63.3145 220.078 63.3145C221.411 63.3145 222.458 64.3618 222.458 65.6947C222.363 67.0277 221.316 68.075 220.078 68.075Z" fill="#263238"/>
<path d="M150.861 80.1666L142.101 68.075C145.434 68.075 148.1 65.3139 148.1 62.0768V29.1342C148.1 25.8019 145.339 23.136 142.101 23.136H66.3145C62.9821 23.136 60.3163 25.8971 60.3163 29.1342V61.9816C60.3163 65.3139 63.0774 67.9798 66.3145 67.9798H131.819L150.861 80.1666Z" fill="#263238"/>
<path d="M85.4516 44.2725C85.4516 42.2731 83.8331 40.5593 81.7385 40.5593C79.6438 40.5593 78.0253 42.1779 78.0253 44.2725C78.0253 46.3671 79.6438 47.9857 81.7385 47.9857C83.8331 47.9857 85.4516 46.2719 85.4516 44.2725Z" fill="#136AFB"/>
<path d="M107.255 44.2725C107.255 42.2731 105.636 40.5593 103.541 40.5593C101.542 40.5593 99.8283 42.1779 99.8283 44.2725C99.8283 46.3671 101.447 47.9857 103.541 47.9857C105.636 47.9857 107.255 46.2719 107.255 44.2725Z" fill="#136AFB"/>
<path d="M129.058 44.2725C129.058 42.2731 127.439 40.5593 125.345 40.5593C123.345 40.5593 121.631 42.1779 121.631 44.2725C121.631 46.3671 123.25 47.9857 125.345 47.9857C127.439 47.9857 129.058 46.2719 129.058 44.2725Z" fill="#136AFB"/>
</g>
<defs>
<clipPath id="clip0">
<rect width="320" height="320" fill="white"/>
</clipPath>
</defs>
</svg>
